<svg width="1440" height="850" viewBox="0 0 1440 850" fill="none" xmlns="http://www.w3.org/2000/svg">
<g clip-path="url(#clip0_34_83)">
<rect width="1440" height="850" fill="#4B9EFF"/>
<path d="M97.5 75L214.587 116.93L294.844 204.724L286.95 318.432L219.465 414.621L97.5 442.967L-24.4654 414.621L-91.9505 318.432L-99.8442 204.724L-19.5868 116.93L97.5 75Z" fill="#D6B9FB"/>
<circle cx="149.375" cy="215.804" r="49.4048" fill="white"/>
<circle cx="127.143" cy="205.923" r="24.7024" fill="black"/>
<circle cx="45.625" cy="218.274" r="49.4048" fill="white"/>
<circle cx="23.3929" cy="205.923" r="24.7024" fill="black"/>
<circle cx="13.5119" cy="191.101" r="4.94048" fill="white"/>
<circle cx="117.262" cy="191.101" r="4.94048" fill="white"/>
<path d="M1116.06 -101.17C1119.91 -107.791 1129.48 -107.791 1133.34 -101.17L1325.25 228.216C1329.14 234.882 1324.33 243.25 1316.61 243.25H932.781C925.066 243.25 920.257 234.882 924.141 228.216L1116.06 -101.17Z" fill="#AFD4FF"/>
<circle cx="1082.95" cy="83.9496" r="43.945" fill="white"/>
<circle cx="1063.17" cy="75.1605" r="21.9725" fill="black"/>
<circle cx="1082.95" cy="83.9496" r="43.945" fill="white"/>
<circle cx="1093.94" cy="101.528" r="21.9725" fill="black"/>
<circle cx="1082.95" cy="101.528" r="4.3945" fill="white"/>
<circle cx="155" cy="782" r="200" fill="#FDFF8F"/>
<circle cx="110.222" cy="748.833" r="57.2222" fill="white"/>
<circle cx="133.111" cy="740.25" r="28.6111" fill="black"/>
<circle cx="144.556" cy="725.944" r="5.72222" fill="white"/>
<circle cx="247.556" cy="720.222" r="57.2222" fill="white"/>
<circle cx="221.806" cy="723.083" r="28.6111" fill="black"/>
<circle cx="204.639" cy="714.5" r="5.72222" fill="white"/>
<rect x="555" y="612" width="399" height="315" rx="63" fill="#78FF9E"/>
<ellipse cx="807.532" cy="752.294" rx="50.5063" ry="52.9412" fill="white"/>
<ellipse cx="832.785" cy="747" rx="25.2532" ry="26.4706" fill="black"/>
<ellipse cx="847.937" cy="736.412" rx="5.05063" ry="5.29412" fill="white"/>
<ellipse cx="703.994" cy="752.294" rx="50.5063" ry="52.9412" fill="white"/>
<ellipse cx="729.247" cy="747" rx="25.2532" ry="26.4706" fill="black"/>
<ellipse cx="744.399" cy="736.412" rx="5.05063" ry="5.29412" fill="white"/>
<path d="M565.295 -78.6007C575.412 -86.4798 589.588 -86.4798 599.705 -78.6008L690.766 -7.68073C692.382 -6.42197 694.132 -5.3444 695.983 -4.46734L797.77 43.7529C812.306 50.6392 818.065 68.3285 810.37 82.453L763.407 168.649C762.216 170.836 761.322 173.171 760.748 175.594L737.733 272.786C734.503 286.43 721.678 295.581 707.725 294.198L585.262 282.06C583.425 281.878 581.575 281.878 579.738 282.06L457.275 294.198C443.322 295.581 430.497 286.43 427.267 272.786L404.252 175.594C403.678 173.171 402.784 170.836 401.593 168.649L354.63 82.453C346.935 68.3285 352.694 50.6392 367.23 43.7528L469.017 -4.46735C470.868 -5.3444 472.618 -6.42198 474.234 -7.68073L565.295 -78.6007Z" fill="#FFCD82"/>
<circle cx="634.495" cy="99.5591" r="54.7312" fill="white"/>
<path d="M681.016 94.0861C681.016 100.417 678.821 106.553 674.804 111.447C670.788 116.341 665.199 119.691 658.989 120.926C652.78 122.161 646.334 121.205 640.75 118.22C635.167 115.236 630.791 110.408 628.368 104.558C625.945 98.7092 625.625 92.2008 627.463 86.1422C629.301 80.0837 633.183 74.8498 638.447 71.3324C643.711 67.815 650.032 66.2317 656.333 66.8522C662.633 67.4728 668.524 70.2588 673.001 74.7357L653.651 94.0861H681.016Z" fill="black"/>
<circle cx="522.296" cy="99.5591" r="54.7312" fill="white"/>
<circle cx="497.667" cy="88.6129" r="27.3656" fill="black"/>
<circle cx="522.296" cy="99.5591" r="54.7312" fill="white"/>
<circle cx="505.876" cy="94.0861" r="27.3656" fill="black"/>
<circle cx="492.194" cy="80.4033" r="5.47312" fill="white"/>
<mask id="path-36-outside-1_34_83" maskUnits="userSpaceOnUse" x="276" y="370" width="890" height="158" fill="black">
<rect fill="white" x="276" y="370" width="890" height="158"/>
<path d="M297.36 389.44L301.36 388.8H302.96C305.093 388.8 307.44 390.133 310 392.8C314.693 392.8 321.36 398.667 330 410.4C337.36 424.267 341.04 436.587 341.04 447.36C341.04 462.08 335.707 471.893 325.04 476.8L314.96 478.88C298.96 478.88 287.44 466.88 280.4 442.88C278.8 436.587 278 430.453 278 424.48V422.88C278 404.853 284.453 393.707 297.36 389.44ZM295.92 404.8L292.4 403.36C289.093 407.307 287.44 413.013 287.44 420.48V424.8C287.44 444.533 294.107 458.88 307.44 467.84L311.92 468.8H318C323.547 468.8 327.547 465.333 330 458.4L330.96 451.36V446.4C330.96 430.4 324.613 416.053 311.92 403.36L305.36 401.44H305.04C302.907 401.44 299.867 402.56 295.92 404.8ZM368.309 422.08C377.375 422.827 381.909 427.253 381.909 435.36L382.229 437.44L381.909 462.4C381.909 465.28 383.562 469.173 386.869 474.08V474.4C386.015 477.493 384.469 479.04 382.229 479.04C375.615 476.267 372.309 470.4 372.309 461.44V459.36L371.829 459.04L372.309 458.4V458.08L372.789 436C372.789 432.907 371.455 431.36 368.789 431.36H366.869C361.535 433.493 358.869 445.173 358.869 466.4C358.869 473.76 357.002 477.44 353.269 477.44C350.389 477.44 348.895 475.627 348.789 472V456C348.789 435.307 350.602 424.96 354.229 424.96L355.829 424.48L359.189 424.96C362.069 423.04 365.109 422.08 368.309 422.08ZM408.204 421.76L414.764 420.8C417.43 420.8 418.924 422.453 419.244 425.76C419.244 428.64 415.777 430.507 408.844 431.36C404.47 434.773 402.284 439.147 402.284 444.48V449.76C404.417 461.493 408.044 467.36 413.164 467.36H414.764C417.75 467.36 422.23 464.533 428.204 458.88H429.164C431.297 458.88 433.004 460.373 434.284 463.36C432.79 467.947 427.99 472.107 419.884 475.84C418.39 476.48 416.524 476.8 414.284 476.8C403.297 476.8 396.15 468.16 392.844 450.88V447.36C392.844 434.88 397.964 426.347 408.204 421.76ZM456.753 418.56C461.019 418.667 468.219 426.133 478.353 440.96L478.673 443.68C478.673 446.667 471.366 448.96 456.753 450.56L456.273 451.04V451.68C458.513 461.28 460.859 466.08 463.313 466.08H465.233C468.646 466.08 473.819 462.4 480.753 455.04H481.713C483.846 455.04 485.499 456.587 486.673 459.68C486.673 462.24 482.193 466.667 473.233 472.96C470.886 474.347 468.059 475.36 464.753 476C456.113 476 450.086 467.893 446.673 451.68C441.766 450.933 439.312 448.907 439.312 445.6C439.312 443.253 441.126 441.707 444.753 440.96V441.6L446.353 440.96V436.96C446.353 424.693 449.819 418.56 456.753 418.56ZM457.713 430.08H456.273L455.633 436V440.96H456.273C462.246 440.747 465.233 440.107 465.233 439.04C462.459 434.88 459.953 431.893 457.713 430.08ZM589.614 404C589.614 388.64 591.96 380.96 596.654 380.96C601.347 380.96 603.694 389.653 603.694 407.04L601.614 430.56C601.614 450.613 604.28 466.08 609.614 476.96V477.6C609.614 479.733 608.174 481.067 605.294 481.6H604.654C600.707 481.387 597.24 473.867 594.254 459.04H593.614C588.067 475.68 580.974 484 572.334 484C563.694 484 558.147 477.013 555.694 463.04L555.214 453.6V450.56L557.614 414.08V407.04C557.614 404.907 558.84 403.253 561.294 402.08H562.734C565.72 402.08 567.214 404.053 567.214 408V408.96L564.654 451.68V457.6C564.654 466.133 566.68 471.787 570.734 474.56H573.614C579.054 471.253 584.28 460.053 589.294 440.96L591.694 430.08L589.614 404ZM637.97 428.48C649.277 428.48 655.943 435.573 657.97 449.76C657.97 462.347 652.103 471.36 640.37 476.8C639.09 477.44 637.33 477.76 635.09 477.76H633.97L630.45 477.44V477.76L631.09 520.48C630.343 523.787 628.637 525.44 625.97 525.44C622.983 524.48 621.49 522.933 621.49 520.8L620.05 433.76C620.05 430.987 621.703 429.547 625.01 429.44L628.37 430.88C631.357 429.28 634.557 428.48 637.97 428.48ZM629.97 445.44L629.49 450.4L629.97 467.36L634.45 468.48C641.597 468.48 646.237 463.253 648.37 452.8V450.4C647.623 441.973 644.637 437.76 639.41 437.76H637.01C632.317 437.76 629.97 440.32 629.97 445.44ZM691.078 415.68C698.971 415.68 704.944 421.547 708.998 433.28L709.638 436.64C709.638 448.053 704.304 459.733 693.638 471.68C689.371 475.627 685.051 477.6 680.678 477.6C674.278 477.6 669.744 473.92 667.078 466.56C666.118 463.147 665.638 460.16 665.638 457.6V455.68C665.638 438.827 671.771 426.027 684.038 417.28C686.171 416.213 688.518 415.68 691.078 415.68ZM675.078 457.28C675.078 464.533 676.944 468.16 680.678 468.16C688.464 468.16 694.918 458.187 700.038 438.24V435.2C698.224 428.587 694.864 425.28 689.958 425.28C688.038 425.28 687.078 426.613 687.078 429.28C687.078 431.093 684.944 432.533 680.678 433.6C676.944 439.893 675.078 447.787 675.078 457.28ZM737.528 422.08C746.594 422.827 751.128 427.253 751.128 435.36L751.448 437.44L751.128 462.4C751.128 465.28 752.781 469.173 756.088 474.08V474.4C755.234 477.493 753.688 479.04 751.448 479.04C744.834 476.267 741.528 470.4 741.528 461.44V459.36L741.048 459.04L741.528 458.4V458.08L742.008 436C742.008 432.907 740.674 431.36 738.008 431.36H736.088C730.754 433.493 728.088 445.173 728.088 466.4C728.088 473.76 726.221 477.44 722.488 477.44C719.608 477.44 718.114 475.627 718.008 472V456C718.008 435.307 719.821 424.96 723.448 424.96L725.048 424.48L728.408 424.96C731.288 423.04 734.328 422.08 737.528 422.08ZM854.695 380.96L858.695 379.68C862.322 379.68 864.135 384.48 864.135 394.08L869.095 431.04L869.735 431.68L888.135 424.96C890.588 424.96 891.922 426.827 892.135 430.56C892.135 433.333 885.362 436.693 871.815 440.64L871.175 440.96V441.6C871.175 443.84 874.695 455.52 881.735 476.64V476.96C881.735 478.987 880.082 480.693 876.775 482.08C873.682 482.08 871.655 478.4 870.695 471.04C868.242 465.707 865.255 456.907 861.735 444.64H861.095C847.122 447.52 840.135 449.973 840.135 452C832.455 468.64 826.642 476.96 822.695 476.96C820.455 476.96 819.122 475.52 818.695 472.64C818.695 470.08 821.522 465.067 827.175 457.6L829.735 452H825.735L822.695 452.64C818.748 451.68 816.775 449.653 816.775 446.56C818.375 442.827 820.722 440.96 823.815 440.96L827.815 442.56C833.788 442.56 836.775 440.373 836.775 436C842.215 423.2 848.188 404.853 854.695 380.96ZM856.135 410.08L846.695 438.56C855.442 436.853 859.815 435.2 859.815 433.6C858.215 417.92 856.988 410.08 856.135 410.08ZM988.396 375.04L1036.4 372C1037.78 372 1039.12 373.333 1040.4 376C1040.4 380.053 1035.7 382.08 1026.32 382.08L998.316 383.68L997.676 384C1000.34 401.387 1001.68 434.4 1001.68 483.04C1001.14 487.733 999.436 490.08 996.556 490.08C993.783 490.08 992.183 487.947 991.756 483.68V446.56C991.756 421.813 990.636 401.173 988.396 384.64C969.303 386.453 959.756 388.587 959.756 391.04L958.316 391.68C955.01 390.72 953.356 389.013 953.356 386.56C953.356 380.693 965.036 376.853 988.396 375.04ZM1027.09 392.64C1031.14 393.493 1033.17 395.307 1033.17 398.08C1032.1 401.067 1030.39 402.56 1028.05 402.56C1024.1 401.813 1022.12 399.84 1022.12 396.64C1023.19 393.973 1024.85 392.64 1027.09 392.64ZM1033.17 415.04C1034.87 415.04 1036.31 416.587 1037.49 419.68L1036.05 431.04V438.56C1036.05 447.307 1037.54 458.773 1040.53 472.96C1039.46 474.987 1037.65 476 1035.09 476C1030.71 476 1027.83 463.2 1026.45 437.6V432C1026.45 420.693 1028.69 415.04 1033.17 415.04ZM1051.32 420C1052.07 417.333 1053.77 416 1056.44 416C1059.11 416 1060.87 418.667 1061.72 424H1062.36L1069.72 422.4C1073.13 422.4 1076.44 425.6 1079.64 432H1080.28C1084.97 424.64 1089.77 420.96 1094.68 420.96C1105.13 422.88 1110.36 429.707 1110.36 441.44L1110.68 447.04L1109.24 479.36V482.4C1109.24 485.067 1107.59 486.613 1104.28 487.04C1100.97 487.04 1099.32 483.147 1099.32 475.36L1101.24 446.4C1101.24 435.733 1098.73 430.4 1093.72 430.4C1090.84 430.4 1087.37 437.387 1083.32 451.36C1081.29 467.36 1079.64 475.36 1078.36 475.36C1076.55 475.36 1075.64 475.733 1075.64 476.48C1072.33 476.053 1070.68 474.347 1070.68 471.36L1072.76 452C1072.44 438.667 1071.11 432 1068.76 432H1068.28C1065.61 434.027 1064.28 438.027 1064.28 444V452.48L1063.64 476.96C1062.89 479.627 1061.24 480.96 1058.68 480.96C1056.44 480.96 1055 479.093 1054.36 475.36L1053.72 456.48L1054.68 440.96C1054.04 432.96 1052.92 425.973 1051.32 420ZM1133.94 418.56C1138.21 418.667 1145.41 426.133 1155.54 440.96L1155.86 443.68C1155.86 446.667 1148.55 448.96 1133.94 450.56L1133.46 451.04V451.68C1135.7 461.28 1138.05 466.08 1140.5 466.08H1142.42C1145.83 466.08 1151.01 462.4 1157.94 455.04H1158.9C1161.03 455.04 1162.69 456.587 1163.86 459.68C1163.86 462.24 1159.38 466.667 1150.42 472.96C1148.07 474.347 1145.25 475.36 1141.94 476C1133.3 476 1127.27 467.893 1123.86 451.68C1118.95 450.933 1116.5 448.907 1116.5 445.6C1116.5 443.253 1118.31 441.707 1121.94 440.96V441.6L1123.54 440.96V436.96C1123.54 424.693 1127.01 418.56 1133.94 418.56ZM1134.9 430.08H1133.46L1132.82 436V440.96H1133.46C1139.43 440.747 1142.42 440.107 1142.42 439.04C1139.65 434.88 1137.14 431.893 1134.9 430.08Z"/>
</mask>
<path d="M297.36 389.44L301.36 388.8H302.96C305.093 388.8 307.44 390.133 310 392.8C314.693 392.8 321.36 398.667 330 410.4C337.36 424.267 341.04 436.587 341.04 447.36C341.04 462.08 335.707 471.893 325.04 476.8L314.96 478.88C298.96 478.88 287.44 466.88 280.4 442.88C278.8 436.587 278 430.453 278 424.48V422.88C278 404.853 284.453 393.707 297.36 389.44ZM295.92 404.8L292.4 403.36C289.093 407.307 287.44 413.013 287.44 420.48V424.8C287.44 444.533 294.107 458.88 307.44 467.84L311.92 468.8H318C323.547 468.8 327.547 465.333 330 458.4L330.96 451.36V446.4C330.96 430.4 324.613 416.053 311.92 403.36L305.36 401.44H305.04C302.907 401.44 299.867 402.56 295.92 404.8ZM368.309 422.08C377.375 422.827 381.909 427.253 381.909 435.36L382.229 437.44L381.909 462.4C381.909 465.28 383.562 469.173 386.869 474.08V474.4C386.015 477.493 384.469 479.04 382.229 479.04C375.615 476.267 372.309 470.4 372.309 461.44V459.36L371.829 459.04L372.309 458.4V458.08L372.789 436C372.789 432.907 371.455 431.36 368.789 431.36H366.869C361.535 433.493 358.869 445.173 358.869 466.4C358.869 473.76 357.002 477.44 353.269 477.44C350.389 477.44 348.895 475.627 348.789 472V456C348.789 435.307 350.602 424.96 354.229 424.96L355.829 424.48L359.189 424.96C362.069 423.04 365.109 422.08 368.309 422.08ZM408.204 421.76L414.764 420.8C417.43 420.8 418.924 422.453 419.244 425.76C419.244 428.64 415.777 430.507 408.844 431.36C404.47 434.773 402.284 439.147 402.284 444.48V449.76C404.417 461.493 408.044 467.36 413.164 467.36H414.764C417.75 467.36 422.23 464.533 428.204 458.88H429.164C431.297 458.88 433.004 460.373 434.284 463.36C432.79 467.947 427.99 472.107 419.884 475.84C418.39 476.48 416.524 476.8 414.284 476.8C403.297 476.8 396.15 468.16 392.844 450.88V447.36C392.844 434.88 397.964 426.347 408.204 421.76ZM456.753 418.56C461.019 418.667 468.219 426.133 478.353 440.96L478.673 443.68C478.673 446.667 471.366 448.96 456.753 450.56L456.273 451.04V451.68C458.513 461.28 460.859 466.08 463.313 466.08H465.233C468.646 466.08 473.819 462.4 480.753 455.04H481.713C483.846 455.04 485.499 456.587 486.673 459.68C486.673 462.24 482.193 466.667 473.233 472.96C470.886 474.347 468.059 475.36 464.753 476C456.113 476 450.086 467.893 446.673 451.68C441.766 450.933 439.312 448.907 439.312 445.6C439.312 443.253 441.126 441.707 444.753 440.96V441.6L446.353 440.96V436.96C446.353 424.693 449.819 418.56 456.753 418.56ZM457.713 430.08H456.273L455.633 436V440.96H456.273C462.246 440.747 465.233 440.107 465.233 439.04C462.459 434.88 459.953 431.893 457.713 430.08ZM589.614 404C589.614 388.64 591.96 380.96 596.654 380.96C601.347 380.96 603.694 389.653 603.694 407.04L601.614 430.56C601.614 450.613 604.28 466.08 609.614 476.96V477.6C609.614 479.733 608.174 481.067 605.294 481.6H604.654C600.707 481.387 597.24 473.867 594.254 459.04H593.614C588.067 475.68 580.974 484 572.334 484C563.694 484 558.147 477.013 555.694 463.04L555.214 453.6V450.56L557.614 414.08V407.04C557.614 404.907 558.84 403.253 561.294 402.08H562.734C565.72 402.08 567.214 404.053 567.214 408V408.96L564.654 451.68V457.6C564.654 466.133 566.68 471.787 570.734 474.56H573.614C579.054 471.253 584.28 460.053 589.294 440.96L591.694 430.08L589.614 404ZM637.97 428.48C649.277 428.48 655.943 435.573 657.97 449.76C657.97 462.347 652.103 471.36 640.37 476.8C639.09 477.44 637.33 477.76 635.09 477.76H633.97L630.45 477.44V477.76L631.09 520.48C630.343 523.787 628.637 525.44 625.97 525.44C622.983 524.48 621.49 522.933 621.49 520.8L620.05 433.76C620.05 430.987 621.703 429.547 625.01 429.44L628.37 430.88C631.357 429.28 634.557 428.48 637.97 428.48ZM629.97 445.44L629.49 450.4L629.97 467.36L634.45 468.48C641.597 468.48 646.237 463.253 648.37 452.8V450.4C647.623 441.973 644.637 437.76 639.41 437.76H637.01C632.317 437.76 629.97 440.32 629.97 445.44ZM691.078 415.68C698.971 415.68 704.944 421.547 708.998 433.28L709.638 436.64C709.638 448.053 704.304 459.733 693.638 471.68C689.371 475.627 685.051 477.6 680.678 477.6C674.278 477.6 669.744 473.92 667.078 466.56C666.118 463.147 665.638 460.16 665.638 457.6V455.68C665.638 438.827 671.771 426.027 684.038 417.28C686.171 416.213 688.518 415.68 691.078 415.68ZM675.078 457.28C675.078 464.533 676.944 468.16 680.678 468.16C688.464 468.16 694.918 458.187 700.038 438.24V435.2C698.224 428.587 694.864 425.28 689.958 425.28C688.038 425.28 687.078 426.613 687.078 429.28C687.078 431.093 684.944 432.533 680.678 433.6C676.944 439.893 675.078 447.787 675.078 457.28ZM737.528 422.08C746.594 422.827 751.128 427.253 751.128 435.36L751.448 437.44L751.128 462.4C751.128 465.28 752.781 469.173 756.088 474.08V474.4C755.234 477.493 753.688 479.04 751.448 479.04C744.834 476.267 741.528 470.4 741.528 461.44V459.36L741.048 459.04L741.528 458.4V458.08L742.008 436C742.008 432.907 740.674 431.36 738.008 431.36H736.088C730.754 433.493 728.088 445.173 728.088 466.4C728.088 473.76 726.221 477.44 722.488 477.44C719.608 477.44 718.114 475.627 718.008 472V456C718.008 435.307 719.821 424.96 723.448 424.96L725.048 424.48L728.408 424.96C731.288 423.04 734.328 422.08 737.528 422.08ZM854.695 380.96L858.695 379.68C862.322 379.68 864.135 384.48 864.135 394.08L869.095 431.04L869.735 431.68L888.135 424.96C890.588 424.96 891.922 426.827 892.135 430.56C892.135 433.333 885.362 436.693 871.815 440.64L871.175 440.96V441.6C871.175 443.84 874.695 455.52 881.735 476.64V476.96C881.735 478.987 880.082 480.693 876.775 482.08C873.682 482.08 871.655 478.4 870.695 471.04C868.242 465.707 865.255 456.907 861.735 444.64H861.095C847.122 447.52 840.135 449.973 840.135 452C832.455 468.64 826.642 476.96 822.695 476.96C820.455 476.96 819.122 475.52 818.695 472.64C818.695 470.08 821.522 465.067 827.175 457.6L829.735 452H825.735L822.695 452.64C818.748 451.68 816.775 449.653 816.775 446.56C818.375 442.827 820.722 440.96 823.815 440.96L827.815 442.56C833.788 442.56 836.775 440.373 836.775 436C842.215 423.2 848.188 404.853 854.695 380.96ZM856.135 410.08L846.695 438.56C855.442 436.853 859.815 435.2 859.815 433.6C858.215 417.92 856.988 410.08 856.135 410.08ZM988.396 375.04L1036.4 372C1037.78 372 1039.12 373.333 1040.4 376C1040.4 380.053 1035.7 382.08 1026.32 382.08L998.316 383.68L997.676 384C1000.34 401.387 1001.68 434.4 1001.68 483.04C1001.14 487.733 999.436 490.08 996.556 490.08C993.783 490.08 992.183 487.947 991.756 483.68V446.56C991.756 421.813 990.636 401.173 988.396 384.64C969.303 386.453 959.756 388.587 959.756 391.04L958.316 391.68C955.01 390.72 953.356 389.013 953.356 386.56C953.356 380.693 965.036 376.853 988.396 375.04ZM1027.09 392.64C1031.14 393.493 1033.17 395.307 1033.17 398.08C1032.1 401.067 1030.39 402.56 1028.05 402.56C1024.1 401.813 1022.12 399.84 1022.12 396.64C1023.19 393.973 1024.85 392.64 1027.09 392.64ZM1033.17 415.04C1034.87 415.04 1036.31 416.587 1037.49 419.68L1036.05 431.04V438.56C1036.05 447.307 1037.54 458.773 1040.53 472.96C1039.46 474.987 1037.65 476 1035.09 476C1030.71 476 1027.83 463.2 1026.45 437.6V432C1026.45 420.693 1028.69 415.04 1033.17 415.04ZM1051.32 420C1052.07 417.333 1053.77 416 1056.44 416C1059.11 416 1060.87 418.667 1061.72 424H1062.36L1069.72 422.4C1073.13 422.4 1076.44 425.6 1079.64 432H1080.28C1084.97 424.64 1089.77 420.96 1094.68 420.96C1105.13 422.88 1110.36 429.707 1110.36 441.44L1110.68 447.04L1109.24 479.36V482.4C1109.24 485.067 1107.59 486.613 1104.28 487.04C1100.97 487.04 1099.32 483.147 1099.32 475.36L1101.24 446.4C1101.24 435.733 1098.73 430.4 1093.72 430.4C1090.84 430.4 1087.37 437.387 1083.32 451.36C1081.29 467.36 1079.64 475.36 1078.36 475.36C1076.55 475.36 1075.64 475.733 1075.64 476.48C1072.33 476.053 1070.68 474.347 1070.68 471.36L1072.76 452C1072.44 438.667 1071.11 432 1068.76 432H1068.28C1065.61 434.027 1064.28 438.027 1064.28 444V452.48L1063.64 476.96C1062.89 479.627 1061.24 480.96 1058.68 480.96C1056.44 480.96 1055 479.093 1054.36 475.36L1053.72 456.48L1054.68 440.96C1054.04 432.96 1052.92 425.973 1051.32 420ZM1133.94 418.56C1138.21 418.667 1145.41 426.133 1155.54 440.96L1155.86 443.68C1155.86 446.667 1148.55 448.96 1133.94 450.56L1133.46 451.04V451.68C1135.7 461.28 1138.05 466.08 1140.5 466.08H1142.42C1145.83 466.08 1151.01 462.4 1157.94 455.04H1158.9C1161.03 455.04 1162.69 456.587 1163.86 459.68C1163.86 462.24 1159.38 466.667 1150.42 472.96C1148.07 474.347 1145.25 475.36 1141.94 476C1133.3 476 1127.27 467.893 1123.86 451.68C1118.95 450.933 1116.5 448.907 1116.5 445.6C1116.5 443.253 1118.31 441.707 1121.94 440.96V441.6L1123.54 440.96V436.96C1123.54 424.693 1127.01 418.56 1133.94 418.56ZM1134.9 430.08H1133.46L1132.82 436V440.96H1133.46C1139.43 440.747 1142.42 440.107 1142.42 439.04C1139.65 434.88 1137.14 431.893 1134.9 430.08Z" fill="white"/>
<path d="M297.36 389.44L297.044 387.465L296.885 387.491L296.732 387.541L297.36 389.44ZM301.36 388.8V386.8H301.201L301.044 386.825L301.36 388.8ZM310 392.8L308.557 394.185L309.148 394.8H310V392.8ZM330 410.4L331.767 409.462L331.698 409.332L331.61 409.214L330 410.4ZM325.04 476.8L325.444 478.759L325.668 478.713L325.876 478.617L325.04 476.8ZM314.96 478.88V480.88H315.164L315.364 480.839L314.96 478.88ZM280.4 442.88L278.462 443.373L278.471 443.408L278.481 443.443L280.4 442.88ZM295.92 404.8L295.163 406.651L296.062 407.019L296.907 406.539L295.92 404.8ZM292.4 403.36L293.157 401.509L291.805 400.956L290.867 402.076L292.4 403.36ZM307.44 467.84L306.324 469.5L306.644 469.715L307.021 469.796L307.44 467.84ZM311.92 468.8L311.501 470.756L311.708 470.8H311.92V468.8ZM330 458.4L331.885 459.067L331.954 458.874L331.982 458.67L330 458.4ZM330.96 451.36L332.942 451.63L332.96 451.496V451.36H330.96ZM311.92 403.36L313.334 401.946L312.973 401.584L312.482 401.441L311.92 403.36ZM305.36 401.44L305.922 399.521L305.647 399.44H305.36V401.44ZM297.676 391.415L301.676 390.775L301.044 386.825L297.044 387.465L297.676 391.415ZM301.36 390.8H302.96V386.8H301.36V390.8ZM302.96 390.8C304.264 390.8 306.116 391.642 308.557 394.185L311.443 391.415C308.764 388.625 305.923 386.8 302.96 386.8V390.8ZM310 394.8C311.581 394.8 313.945 395.838 317.199 398.701C320.378 401.5 324.108 405.771 328.39 411.586L331.61 409.214C327.252 403.295 323.328 398.767 319.841 395.699C316.428 392.695 313.112 390.8 310 390.8V394.8ZM328.233 411.338C335.505 425.038 339.04 437.029 339.04 447.36H343.04C343.04 436.144 339.215 423.495 331.767 409.462L328.233 411.338ZM339.04 447.36C339.04 454.489 337.747 460.27 335.283 464.805C332.833 469.312 329.167 472.7 324.204 474.983L325.876 478.617C331.58 475.993 335.913 472.021 338.797 466.715C341.666 461.437 343.04 454.951 343.04 447.36H339.04ZM324.636 474.841L314.556 476.921L315.364 480.839L325.444 478.759L324.636 474.841ZM314.96 476.88C307.528 476.88 301.162 474.12 295.763 468.495C290.309 462.814 285.79 454.151 282.319 442.317L278.481 443.443C282.05 455.609 286.811 464.946 292.877 471.265C298.998 477.64 306.392 480.88 314.96 480.88V476.88ZM282.338 442.387C280.776 436.241 280 430.273 280 424.48H276C276 430.633 276.824 436.932 278.462 443.373L282.338 442.387ZM280 424.48V422.88H276V424.48H280ZM280 422.88C280 414.085 281.577 407.173 284.571 402.002C287.538 396.878 291.971 393.328 297.988 391.339L296.732 387.541C289.842 389.819 284.596 393.976 281.109 399.998C277.65 405.974 276 413.648 276 422.88H280ZM296.677 402.949L293.157 401.509L291.643 405.211L295.163 406.651L296.677 402.949ZM290.867 402.076C287.148 406.514 285.44 412.75 285.44 420.48H289.44C289.44 413.277 291.038 408.099 293.933 404.644L290.867 402.076ZM285.44 420.48V424.8H289.44V420.48H285.44ZM285.44 424.8C285.44 445.026 292.309 460.081 306.324 469.5L308.556 466.18C295.905 457.679 289.44 444.04 289.44 424.8H285.44ZM307.021 469.796L311.501 470.756L312.339 466.844L307.859 465.884L307.021 469.796ZM311.92 470.8H318V466.8H311.92V470.8ZM318 470.8C321.229 470.8 324.088 469.776 326.47 467.711C328.814 465.68 330.586 462.739 331.885 459.067L328.115 457.733C326.961 460.994 325.506 463.253 323.85 464.689C322.232 466.091 320.317 466.8 318 466.8V470.8ZM331.982 458.67L332.942 451.63L328.978 451.09L328.018 458.13L331.982 458.67ZM332.96 451.36V446.4H328.96V451.36H332.96ZM332.96 446.4C332.96 429.803 326.353 414.964 313.334 401.946L310.506 404.774C322.874 417.142 328.96 430.997 328.96 446.4H332.96ZM312.482 401.441L305.922 399.521L304.798 403.359L311.358 405.279L312.482 401.441ZM305.36 399.44H305.04V403.44H305.36V399.44ZM305.04 399.44C302.346 399.44 298.912 400.802 294.933 403.061L296.907 406.539C300.821 404.318 303.467 403.44 305.04 403.44V399.44ZM368.309 422.08L368.473 420.087L368.391 420.08H368.309V422.08ZM381.909 435.36H379.909V435.513L379.932 435.664L381.909 435.36ZM382.229 437.44L384.229 437.466L384.231 437.3L384.205 437.136L382.229 437.44ZM381.909 462.4L379.909 462.374L379.909 462.387V462.4H381.909ZM386.869 474.08H388.869V473.469L388.527 472.962L386.869 474.08ZM386.869 474.4L388.797 474.932L388.869 474.671V474.4H386.869ZM382.229 479.04L381.455 480.884L381.826 481.04H382.229V479.04ZM372.309 459.36H374.309V458.29L373.418 457.696L372.309 459.36ZM371.829 459.04L370.229 457.84L368.96 459.531L370.719 460.704L371.829 459.04ZM372.309 458.4L373.909 459.6L374.309 459.067V458.4H372.309ZM372.309 458.08L370.309 458.037L370.309 458.058V458.08H372.309ZM372.789 436L374.788 436.043L374.789 436.022V436H372.789ZM366.869 431.36V429.36H366.484L366.126 429.503L366.869 431.36ZM348.789 472H346.789V472.029L346.79 472.059L348.789 472ZM354.229 424.96V426.96H354.522L354.803 426.876L354.229 424.96ZM355.829 424.48L356.112 422.5L355.676 422.438L355.254 422.564L355.829 424.48ZM359.189 424.96L358.906 426.94L359.662 427.048L360.298 426.624L359.189 424.96ZM368.145 424.073C372.412 424.425 375.297 425.619 377.111 427.391C378.893 429.13 379.909 431.687 379.909 435.36H383.909C383.909 430.926 382.658 427.217 379.906 424.529C377.188 421.875 373.272 420.482 368.473 420.087L368.145 424.073ZM379.932 435.664L380.252 437.744L384.205 437.136L383.885 435.056L379.932 435.664ZM380.229 437.414L379.909 462.374L383.909 462.426L384.229 437.466L380.229 437.414ZM379.909 462.4C379.909 465.92 381.873 470.245 385.21 475.198L388.527 472.962C385.252 468.102 383.909 464.64 383.909 462.4H379.909ZM384.869 474.08V474.4H388.869V474.08H384.869ZM384.941 473.868C384.566 475.226 384.095 476.025 383.655 476.466C383.266 476.854 382.833 477.04 382.229 477.04V481.04C383.865 481.04 385.325 480.453 386.483 479.294C387.589 478.188 388.318 476.667 388.797 474.932L384.941 473.868ZM383.002 477.196C380.077 475.969 377.952 474.098 376.531 471.578C375.093 469.027 374.309 465.686 374.309 461.44H370.309C370.309 466.154 371.177 470.226 373.046 473.542C374.933 476.888 377.767 479.338 381.455 480.884L383.002 477.196ZM374.309 461.44V459.36H370.309V461.44H374.309ZM373.418 457.696L372.938 457.376L370.719 460.704L371.199 461.024L373.418 457.696ZM373.429 460.24L373.909 459.6L370.709 457.2L370.229 457.84L373.429 460.24ZM374.309 458.4V458.08H370.309V458.4H374.309ZM374.308 458.123L374.788 436.043L370.789 435.957L370.309 458.037L374.308 458.123ZM374.789 436C374.789 434.212 374.41 432.497 373.304 431.214C372.148 429.874 370.514 429.36 368.789 429.36V433.36C369.73 433.36 370.096 433.619 370.274 433.826C370.501 434.089 370.789 434.695 370.789 436H374.789ZM368.789 429.36H366.869V433.36H368.789V429.36ZM366.126 429.503C364.242 430.257 362.776 431.782 361.638 433.748C360.501 435.712 359.61 438.247 358.919 441.275C357.536 447.332 356.869 455.733 356.869 466.4H360.869C360.869 455.841 361.535 447.788 362.819 442.165C363.461 439.353 364.237 437.242 365.099 435.752C365.961 434.265 366.829 433.53 367.612 433.217L366.126 429.503ZM356.869 466.4C356.869 469.976 356.405 472.357 355.685 473.775C355.34 474.456 354.969 474.85 354.62 475.079C354.283 475.3 353.858 475.44 353.269 475.44V479.44C354.546 479.44 355.754 479.12 356.817 478.421C357.869 477.73 358.664 476.744 359.252 475.585C360.4 473.323 360.869 470.184 360.869 466.4H356.869ZM353.269 475.44C352.278 475.44 351.814 475.151 351.533 474.809C351.185 474.386 350.835 473.539 350.788 471.941L346.79 472.059C346.849 474.088 347.299 475.96 348.445 477.351C349.657 478.823 351.379 479.44 353.269 479.44V475.44ZM350.789 472V456H346.789V472H350.789ZM350.789 456C350.789 445.681 351.243 438.062 352.119 433.065C352.56 430.548 353.084 428.849 353.619 427.831C354.18 426.764 354.45 426.96 354.229 426.96V422.96C352.194 422.96 350.878 424.45 350.079 425.969C349.254 427.538 348.644 429.719 348.179 432.375C347.241 437.725 346.789 445.626 346.789 456H350.789ZM354.803 426.876L356.403 426.396L355.254 422.564L353.654 423.044L354.803 426.876ZM355.546 426.46L358.906 426.94L359.472 422.98L356.112 422.5L355.546 426.46ZM360.298 426.624C362.878 424.904 365.536 424.08 368.309 424.08V420.08C364.681 420.08 361.26 421.176 358.079 423.296L360.298 426.624ZM408.204 421.76L407.914 419.781L407.64 419.821L407.386 419.935L408.204 421.76ZM414.764 420.8V418.8H414.618L414.474 418.821L414.764 420.8ZM419.244 425.76H421.244V425.663L421.234 425.567L419.244 425.76ZM408.844 431.36L408.599 429.375L408.05 429.443L407.613 429.783L408.844 431.36ZM402.284 449.76H400.284V449.94L400.316 450.118L402.284 449.76ZM428.204 458.88V456.88H427.407L426.829 457.427L428.204 458.88ZM434.284 463.36L436.185 463.979L436.418 463.264L436.122 462.572L434.284 463.36ZM419.884 475.84L420.672 477.678L420.696 477.668L420.72 477.657L419.884 475.84ZM392.844 450.88H390.844V451.07L390.879 451.256L392.844 450.88ZM408.493 423.739L415.053 422.779L414.474 418.821L407.914 419.781L408.493 423.739ZM414.764 422.8C415.653 422.8 416.106 423.056 416.4 423.381C416.748 423.767 417.115 424.527 417.253 425.953L421.234 425.567C421.052 423.687 420.513 421.967 419.368 420.699C418.168 419.371 416.541 418.8 414.764 418.8V422.8ZM417.244 425.76C417.244 426.2 417.053 426.828 415.696 427.559C414.289 428.317 411.98 428.959 408.599 429.375L409.088 433.345C412.641 432.908 415.532 432.19 417.592 431.081C419.701 429.945 421.244 428.2 421.244 425.76H417.244ZM407.613 429.783C402.777 433.558 400.284 438.502 400.284 444.48H404.284C404.284 439.791 406.164 435.989 410.074 432.937L407.613 429.783ZM400.284 444.48V449.76H404.284V444.48H400.284ZM400.316 450.118C401.4 456.078 402.895 460.765 404.903 464.012C406.939 467.305 409.678 469.36 413.164 469.36V465.36C411.529 465.36 409.895 464.481 408.305 461.908C406.685 459.289 405.301 455.176 404.251 449.402L400.316 450.118ZM413.164 469.36H414.764V465.36H413.164V469.36ZM414.764 469.36C416.827 469.36 419.086 468.411 421.431 466.931C423.824 465.422 426.543 463.205 429.579 460.333L426.829 457.427C423.891 460.208 421.384 462.232 419.297 463.549C417.161 464.896 415.687 465.36 414.764 465.36V469.36ZM428.204 460.88H429.164V456.88H428.204V460.88ZM429.164 460.88C430.109 460.88 431.293 461.458 432.445 464.148L436.122 462.572C434.715 459.289 432.485 456.88 429.164 456.88V460.88ZM432.382 462.741C431.161 466.493 427.04 470.342 419.047 474.023L420.72 477.657C428.941 473.871 434.42 469.401 436.185 463.979L432.382 462.741ZM419.096 474.002C417.927 474.503 416.349 474.8 414.284 474.8V478.8C416.699 478.8 418.854 478.457 420.672 477.678L419.096 474.002ZM414.284 474.8C409.401 474.8 405.427 472.917 402.225 469.045C398.954 465.091 396.431 458.984 394.808 450.504L390.879 451.256C392.563 460.056 395.266 466.909 399.143 471.595C403.087 476.363 408.18 478.8 414.284 478.8V474.8ZM394.844 450.88V447.36H390.844V450.88H394.844ZM394.844 447.36C394.844 441.391 396.067 436.515 398.399 432.629C400.722 428.757 404.225 425.733 409.021 423.585L407.386 419.935C401.942 422.373 397.766 425.91 394.969 430.571C392.18 435.218 390.844 440.849 390.844 447.36H394.844ZM456.753 418.56L456.802 416.561L456.777 416.56H456.753V418.56ZM478.353 440.96L480.339 440.726L480.281 440.238L480.004 439.831L478.353 440.96ZM478.673 443.68H480.673V443.563L480.659 443.446L478.673 443.68ZM456.753 450.56L456.535 448.572L455.836 448.648L455.338 449.146L456.753 450.56ZM456.273 451.04L454.858 449.626L454.273 450.212V451.04H456.273ZM456.273 451.68H454.273V451.91L454.325 452.134L456.273 451.68ZM480.753 455.04V453.04H479.889L479.297 453.669L480.753 455.04ZM486.673 459.68H488.673V459.313L488.542 458.971L486.673 459.68ZM473.233 472.96L474.25 474.682L474.318 474.642L474.382 474.597L473.233 472.96ZM464.753 476V478H464.944L465.133 477.964L464.753 476ZM446.673 451.68L448.63 451.268L448.344 449.911L446.973 449.703L446.673 451.68ZM444.753 440.96H446.753V438.506L444.349 439.001L444.753 440.96ZM444.753 441.6H442.753V444.554L445.495 443.457L444.753 441.6ZM446.353 440.96L447.095 442.817L448.353 442.314V440.96H446.353ZM457.713 430.08L458.971 428.526L458.421 428.08H457.713V430.08ZM456.273 430.08V428.08H454.477L454.284 429.865L456.273 430.08ZM455.633 436L453.644 435.785L453.633 435.892V436H455.633ZM455.633 440.96H453.633V442.96H455.633V440.96ZM456.273 440.96V442.96H456.308L456.344 442.959L456.273 440.96ZM465.233 439.04H467.233V438.434L466.897 437.931L465.233 439.04ZM456.703 420.559C457.231 420.573 458.107 420.835 459.4 421.689C460.666 422.525 462.169 423.82 463.913 425.628C467.399 429.244 471.659 434.711 476.701 442.089L480.004 439.831C474.912 432.382 470.506 426.703 466.792 422.852C464.936 420.927 463.206 419.408 461.605 418.351C460.031 417.312 458.408 416.601 456.802 416.561L456.703 420.559ZM476.366 441.194L476.686 443.914L480.659 443.446L480.339 440.726L476.366 441.194ZM476.673 443.68C476.673 443.507 476.8 443.686 476.131 444.169C475.472 444.645 474.337 445.184 472.594 445.732C469.131 446.819 463.807 447.776 456.535 448.572L456.97 452.548C464.311 451.744 469.948 450.755 473.791 449.548C475.701 448.949 477.306 448.255 478.474 447.411C479.632 446.574 480.673 445.346 480.673 443.68H476.673ZM455.338 449.146L454.858 449.626L457.687 452.454L458.167 451.974L455.338 449.146ZM454.273 451.04V451.68H458.273V451.04H454.273ZM454.325 452.134C455.455 456.98 456.643 460.754 457.916 463.358C458.55 464.657 459.259 465.775 460.078 466.594C460.907 467.423 461.992 468.08 463.313 468.08V464.08C463.406 464.08 463.278 464.137 462.907 463.766C462.526 463.385 462.048 462.703 461.509 461.602C460.436 459.406 459.33 455.98 458.22 451.226L454.325 452.134ZM463.313 468.08H465.233V464.08H463.313V468.08ZM465.233 468.08C467.582 468.08 470.157 466.852 472.832 464.95C475.569 463.003 478.698 460.138 482.208 456.411L479.297 453.669C475.874 457.302 472.949 459.957 470.513 461.69C468.014 463.468 466.296 464.08 465.233 464.08V468.08ZM480.753 457.04H481.713V453.04H480.753V457.04ZM481.713 457.04C482.589 457.04 483.736 457.578 484.803 460.389L488.542 458.971C487.262 455.595 485.103 453.04 481.713 453.04V457.04ZM484.673 459.68C484.673 459.768 484.619 460.138 484.149 460.87C483.698 461.573 482.97 462.447 481.907 463.497C479.783 465.596 476.528 468.201 472.083 471.323L474.382 474.597C478.897 471.425 482.362 468.671 484.718 466.343C485.895 465.18 486.847 464.073 487.516 463.03C488.166 462.015 488.673 460.872 488.673 459.68H484.673ZM472.215 471.238C470.106 472.485 467.505 473.43 464.372 474.036L465.133 477.964C468.613 477.29 471.666 476.209 474.25 474.682L472.215 471.238ZM464.753 474C461.177 474 458.066 472.37 455.358 468.727C452.593 465.008 450.31 459.251 448.63 451.268L444.715 452.092C446.448 460.322 448.886 466.726 452.147 471.113C455.466 475.577 459.688 478 464.753 478V474ZM446.973 449.703C444.695 449.356 443.259 448.746 442.426 448.058C441.68 447.441 441.312 446.684 441.312 445.6H437.312C437.312 447.823 438.172 449.732 439.879 451.142C441.499 452.48 443.744 453.257 446.372 453.657L446.973 449.703ZM441.312 445.6C441.312 445.023 441.501 444.602 441.97 444.202C442.517 443.736 443.506 443.258 445.156 442.919L444.349 439.001C442.372 439.408 440.642 440.078 439.375 441.158C438.03 442.305 437.312 443.831 437.312 445.6H441.312ZM442.753 440.96V441.6H446.753V440.96H442.753ZM445.495 443.457L447.095 442.817L445.61 439.103L444.01 439.743L445.495 443.457ZM448.353 440.96V436.96H444.353V440.96H448.353ZM448.353 436.96C448.353 430.95 449.213 426.763 450.694 424.144C452.079 421.693 454.021 420.56 456.753 420.56V416.56C452.55 416.56 449.292 418.494 447.211 422.176C445.225 425.69 444.353 430.704 444.353 436.96H448.353ZM457.713 428.08H456.273V432.08H457.713V428.08ZM454.284 429.865L453.644 435.785L457.621 436.215L458.261 430.295L454.284 429.865ZM453.633 436V440.96H457.633V436H453.633ZM455.633 442.96H456.273V438.96H455.633V442.96ZM456.344 442.959C459.359 442.851 461.741 442.633 463.412 442.276C464.229 442.1 465.025 441.862 465.665 441.496C466.258 441.157 467.233 440.392 467.233 439.04H463.233C463.233 438.222 463.833 437.936 463.68 438.024C463.573 438.085 463.249 438.22 462.573 438.364C461.257 438.647 459.159 438.856 456.201 438.961L456.344 442.959ZM466.897 437.931C464.081 433.707 461.442 430.526 458.971 428.526L456.454 431.634C458.463 433.261 460.838 436.053 463.568 440.149L466.897 437.931ZM589.614 404H587.614V404.08L587.62 404.159L589.614 404ZM603.694 407.04L605.686 407.216L605.694 407.128V407.04H603.694ZM601.614 430.56L599.622 430.384L599.614 430.472V430.56H601.614ZM609.614 476.96H611.614V476.496L611.41 476.08L609.614 476.96ZM605.294 481.6V483.6H605.477L605.658 483.567L605.294 481.6ZM604.654 481.6L604.546 483.597L604.6 483.6H604.654V481.6ZM594.254 459.04L596.214 458.645L595.891 457.04H594.254V459.04ZM593.614 459.04V457.04H592.172L591.716 458.408L593.614 459.04ZM555.694 463.04L553.696 463.142L553.703 463.265L553.724 463.386L555.694 463.04ZM555.214 453.6H553.214V453.651L553.216 453.702L555.214 453.6ZM555.214 450.56L553.218 450.429L553.214 450.494V450.56H555.214ZM557.614 414.08L559.609 414.211L559.614 414.146V414.08H557.614ZM561.294 402.08V400.08H560.84L560.431 400.276L561.294 402.08ZM567.214 408.96L569.21 409.08L569.214 409.02V408.96H567.214ZM564.654 451.68L562.657 451.56L562.654 451.62V451.68H564.654ZM570.734 474.56L569.604 476.211L570.115 476.56H570.734V474.56ZM573.614 474.56V476.56H574.174L574.653 476.269L573.614 474.56ZM589.294 440.96L591.228 441.468L591.238 441.43L591.247 441.391L589.294 440.96ZM591.694 430.08L593.647 430.511L593.711 430.219L593.687 429.921L591.694 430.08ZM591.614 404C591.614 396.372 592.202 390.853 593.286 387.304C594.412 383.622 595.737 382.96 596.654 382.96V378.96C592.878 378.96 590.683 382.138 589.461 386.136C588.199 390.267 587.614 396.268 587.614 404H591.614ZM596.654 382.96C597.106 382.96 597.598 383.131 598.179 383.849C598.809 384.626 599.45 385.952 600.003 388.001C601.106 392.086 601.694 398.392 601.694 407.04H605.694C605.694 398.302 605.109 391.567 603.865 386.959C603.244 384.661 602.418 382.727 601.288 381.331C600.109 379.876 598.548 378.96 596.654 378.96V382.96ZM601.702 406.864L599.622 430.384L603.606 430.736L605.686 407.216L601.702 406.864ZM599.614 430.56C599.614 450.743 602.29 466.563 607.818 477.84L611.41 476.08C606.271 465.597 603.614 450.484 603.614 430.56H599.614ZM607.614 476.96V477.6H611.614V476.96H607.614ZM607.614 477.6C607.614 478.164 607.448 478.48 607.175 478.732C606.837 479.045 606.169 479.404 604.93 479.633L605.658 483.567C607.299 483.263 608.79 482.688 609.893 481.668C611.059 480.587 611.614 479.17 611.614 477.6H607.614ZM605.294 479.6H604.654V483.6H605.294V479.6ZM604.762 479.603C604.439 479.585 603.93 479.419 603.228 478.686C602.515 477.942 601.729 476.739 600.91 474.963C599.275 471.415 597.698 466.009 596.214 458.645L592.293 459.435C593.796 466.898 595.446 472.665 597.277 476.637C598.192 478.621 599.2 480.264 600.34 481.454C601.491 482.655 602.895 483.508 604.546 483.597L604.762 479.603ZM594.254 457.04H593.614V461.04H594.254V457.04ZM591.716 458.408C588.981 466.613 585.922 472.58 582.612 476.462C579.336 480.304 575.919 482 572.334 482V486C577.389 486 581.838 483.536 585.656 479.058C589.439 474.62 592.7 468.107 595.511 459.672L591.716 458.408ZM572.334 482C568.647 482 565.668 480.55 563.26 477.516C560.782 474.394 558.863 469.527 557.664 462.694L553.724 463.386C554.978 470.526 557.059 476.139 560.127 480.004C563.266 483.957 567.381 486 572.334 486V482ZM557.691 462.938L557.211 453.498L553.216 453.702L553.696 463.142L557.691 462.938ZM557.214 453.6V450.56H553.214V453.6H557.214ZM557.209 450.691L559.609 414.211L555.618 413.949L553.218 450.429L557.209 450.691ZM559.614 414.08V407.04H555.614V414.08H559.614ZM559.614 407.04C559.614 405.902 560.169 404.835 562.157 403.884L560.431 400.276C557.512 401.672 555.614 403.912 555.614 407.04H559.614ZM561.294 404.08H562.734V400.08H561.294V404.08ZM562.734 404.08C563.746 404.08 564.21 404.385 564.499 404.767C564.867 405.254 565.214 406.222 565.214 408H569.214C569.214 405.832 568.813 403.84 567.689 402.353C566.484 400.761 564.708 400.08 562.734 400.08V404.08ZM565.214 408V408.96H569.214V408H565.214ZM565.217 408.84L562.657 451.56L566.65 451.8L569.21 409.08L565.217 408.84ZM562.654 451.68V457.6H566.654V451.68H562.654ZM562.654 457.6C562.654 466.313 564.703 472.857 569.604 476.211L571.863 472.909C568.658 470.716 566.654 465.954 566.654 457.6H562.654ZM570.734 476.56H573.614V472.56H570.734V476.56ZM574.653 476.269C577.903 474.293 580.778 470.201 583.426 464.526C586.111 458.773 588.707 451.071 591.228 441.468L587.359 440.452C584.867 449.943 582.343 457.387 579.801 462.834C577.223 468.359 574.765 471.52 572.575 472.851L574.653 476.269ZM591.247 441.391L593.647 430.511L589.741 429.649L587.341 440.529L591.247 441.391ZM593.687 429.921L591.607 403.841L587.62 404.159L589.7 430.239L593.687 429.921ZM657.97 449.76H659.97V449.618L659.95 449.477L657.97 449.76ZM640.37 476.8L639.529 474.986L639.502 474.998L639.476 475.011L640.37 476.8ZM633.97 477.76L633.789 479.752L633.879 479.76H633.97V477.76ZM630.45 477.44L630.631 475.448L628.45 475.25V477.44H630.45ZM630.45 477.76H628.45V477.775L628.45 477.79L630.45 477.76ZM631.09 520.48L633.041 520.921L633.093 520.688L633.09 520.45L631.09 520.48ZM625.97 525.44L625.358 527.344L625.656 527.44H625.97V525.44ZM621.49 520.8H623.49V520.783L623.49 520.767L621.49 520.8ZM620.05 433.76H618.05V433.777L618.05 433.793L620.05 433.76ZM625.01 429.44L625.798 427.602L625.39 427.427L624.946 427.441L625.01 429.44ZM628.37 430.88L627.582 432.718L628.466 433.097L629.314 432.643L628.37 430.88ZM629.97 445.44L631.961 445.633L631.97 445.537V445.44H629.97ZM629.49 450.4L627.499 450.207L627.487 450.332L627.491 450.457L629.49 450.4ZM629.97 467.36L627.971 467.417L628.014 468.932L629.485 469.3L629.97 467.36ZM634.45 468.48L633.965 470.42L634.204 470.48H634.45V468.48ZM648.37 452.8L650.33 453.2L650.37 453.002V452.8H648.37ZM648.37 450.4H650.37V450.312L650.362 450.223L648.37 450.4ZM637.97 430.48C643.169 430.48 647.099 432.091 649.993 435.17C652.94 438.305 655.009 443.174 655.99 450.043L659.95 449.477C658.904 442.159 656.627 436.388 652.907 432.43C649.134 428.416 644.078 426.48 637.97 426.48V430.48ZM655.97 449.76C655.97 455.733 654.582 460.739 651.894 464.869C649.203 469.002 645.124 472.391 639.529 474.986L641.211 478.614C647.349 475.769 652.07 471.931 655.246 467.051C658.425 462.168 659.97 456.373 659.97 449.76H655.97ZM639.476 475.011C638.587 475.456 637.178 475.76 635.09 475.76V479.76C637.482 479.76 639.593 479.424 641.264 478.589L639.476 475.011ZM635.09 475.76H633.97V479.76H635.09V475.76ZM634.151 475.768L630.631 475.448L630.269 479.432L633.789 479.752L634.151 475.768ZM628.45 477.44V477.76H632.45V477.44H628.45ZM628.45 477.79L629.09 520.51L633.09 520.45L632.45 477.73L628.45 477.79ZM629.139 520.039C628.817 521.468 628.337 522.3 627.858 522.764C627.425 523.183 626.853 523.44 625.97 523.44V527.44C627.754 527.44 629.368 526.87 630.642 525.636C631.87 524.447 632.617 522.799 633.041 520.921L629.139 520.039ZM626.582 523.536C625.268 523.114 624.485 522.623 624.049 522.171C623.659 521.767 623.49 521.344 623.49 520.8H619.49C619.49 522.389 620.068 523.806 621.171 524.949C622.228 526.044 623.685 526.806 625.358 527.344L626.582 523.536ZM623.49 520.767L622.05 433.727L618.05 433.793L619.49 520.833L623.49 520.767ZM622.05 433.76C622.05 432.787 622.324 432.352 622.604 432.108C622.945 431.811 623.657 431.485 625.074 431.439L624.946 427.441C623.056 427.502 621.289 427.949 619.976 429.092C618.603 430.288 618.05 431.96 618.05 433.76H622.05ZM624.222 431.278L627.582 432.718L629.158 429.042L625.798 427.602L624.222 431.278ZM629.314 432.643C632.008 431.2 634.884 430.48 637.97 430.48V426.48C634.23 426.48 630.705 427.36 627.426 429.117L629.314 432.643ZM627.979 445.247L627.499 450.207L631.481 450.593L631.961 445.633L627.979 445.247ZM627.491 450.457L627.971 467.417L631.969 467.303L631.489 450.343L627.491 450.457ZM629.485 469.3L633.965 470.42L634.935 466.54L630.455 465.42L629.485 469.3ZM634.45 470.48C638.58 470.48 642.076 468.94 644.786 465.888C647.431 462.908 649.227 458.604 650.33 453.2L646.41 452.4C645.38 457.449 643.789 460.985 641.794 463.232C639.864 465.407 637.466 466.48 634.45 466.48V470.48ZM650.37 452.8V450.4H646.37V452.8H650.37ZM650.362 450.223C649.975 445.859 648.992 442.288 647.202 439.763C645.328 437.12 642.662 435.76 639.41 435.76V439.76C641.384 439.76 642.825 440.507 643.938 442.077C645.135 443.765 646.018 446.515 646.378 450.577L650.362 450.223ZM639.41 435.76H637.01V439.76H639.41V435.76ZM637.01 435.76C634.308 435.76 631.927 436.505 630.256 438.329C628.614 440.119 627.97 442.613 627.97 445.44H631.97C631.97 443.147 632.499 441.801 633.204 441.031C633.879 440.295 635.019 439.76 637.01 439.76V435.76ZM708.998 433.28L710.962 432.906L710.935 432.764L710.888 432.627L708.998 433.28ZM709.638 436.64H711.638V436.451L711.602 436.266L709.638 436.64ZM693.638 471.68L694.996 473.148L695.066 473.083L695.129 473.012L693.638 471.68ZM667.078 466.56L665.152 467.101L665.172 467.172L665.197 467.241L667.078 466.56ZM684.038 417.28L683.143 415.491L683.003 415.561L682.876 415.652L684.038 417.28ZM700.038 438.24L701.975 438.737L702.038 438.493V438.24H700.038ZM700.038 435.2H702.038V434.931L701.966 434.671L700.038 435.2ZM680.678 433.6L680.192 431.66L679.383 431.862L678.957 432.58L680.678 433.6ZM691.078 417.68C697.662 417.68 703.146 422.467 707.107 433.933L710.888 432.627C706.742 420.626 700.28 413.68 691.078 413.68V417.68ZM707.033 433.654L707.673 437.014L711.602 436.266L710.962 432.906L707.033 433.654ZM707.638 436.64C707.638 447.395 702.617 458.62 692.146 470.348L695.129 473.012C705.992 460.846 711.638 448.712 711.638 436.64H707.638ZM692.279 470.212C688.258 473.932 684.4 475.6 680.678 475.6V479.6C685.701 479.6 690.484 477.322 694.996 473.148L692.279 470.212ZM680.678 475.6C677.889 475.6 675.613 474.81 673.738 473.287C671.834 471.741 670.208 469.33 668.958 465.879L665.197 467.241C666.613 471.15 668.588 474.259 671.217 476.393C673.875 478.55 677.066 479.6 680.678 479.6V475.6ZM669.003 466.019C668.075 462.719 667.638 459.922 667.638 457.6H663.638C663.638 460.398 664.16 463.574 665.152 467.101L669.003 466.019ZM667.638 457.6V455.68H663.638V457.6H667.638ZM667.638 455.68C667.638 439.384 673.527 427.231 685.199 418.908L682.876 415.652C670.015 424.822 663.638 438.269 663.638 455.68H667.638ZM684.932 419.069C686.767 418.151 688.805 417.68 691.078 417.68V413.68C688.23 413.68 685.574 414.276 683.143 415.491L684.932 419.069ZM673.078 457.28C673.078 461.013 673.547 464.117 674.699 466.355C675.29 467.504 676.089 468.478 677.14 469.159C678.202 469.846 679.406 470.16 680.678 470.16V466.16C680.082 466.16 679.653 466.021 679.315 465.801C678.966 465.576 678.598 465.19 678.256 464.525C677.541 463.137 677.078 460.8 677.078 457.28H673.078ZM680.678 470.16C685.555 470.16 689.646 467.006 693.037 461.767C696.436 456.513 699.394 448.79 701.975 438.737L698.1 437.743C695.561 447.637 692.732 454.874 689.678 459.593C686.615 464.327 683.586 466.16 680.678 466.16V470.16ZM702.038 438.24V435.2H698.038V438.24H702.038ZM701.966 434.671C701.006 431.169 699.581 428.323 697.56 426.335C695.49 424.297 692.912 423.28 689.958 423.28V427.28C691.91 427.28 693.465 427.917 694.755 429.185C696.094 430.504 697.256 432.617 698.109 435.729L701.966 434.671ZM689.958 423.28C688.478 423.28 687.097 423.83 686.174 425.111C685.339 426.272 685.078 427.767 685.078 429.28H689.078C689.078 428.127 689.296 427.622 689.421 427.449C689.467 427.384 689.501 427.362 689.538 427.345C689.585 427.323 689.708 427.28 689.958 427.28V423.28ZM685.078 429.28C685.078 429.315 685.074 429.368 685.005 429.473C684.923 429.599 684.739 429.805 684.359 430.062C683.575 430.591 682.236 431.149 680.192 431.66L681.163 435.54C683.385 434.985 685.247 434.289 686.596 433.378C687.964 432.454 689.078 431.104 689.078 429.28H685.078ZM678.957 432.58C674.994 439.261 673.078 447.532 673.078 457.28H677.078C677.078 448.041 678.894 440.526 682.398 434.62L678.957 432.58ZM737.528 422.08L737.692 420.087L737.61 420.08H737.528V422.08ZM751.128 435.36H749.128V435.513L749.151 435.664L751.128 435.36ZM751.448 437.44L753.447 437.466L753.449 437.3L753.424 437.136L751.448 437.44ZM751.128 462.4L749.128 462.374L749.128 462.387V462.4H751.128ZM756.088 474.08H758.088V473.469L757.746 472.962L756.088 474.08ZM756.088 474.4L758.015 474.932L758.088 474.671V474.4H756.088ZM751.448 479.04L750.674 480.884L751.045 481.04H751.448V479.04ZM741.528 459.36H743.528V458.29L742.637 457.696L741.528 459.36ZM741.048 459.04L739.448 457.84L738.179 459.531L739.938 460.704L741.048 459.04ZM741.528 458.4L743.128 459.6L743.528 459.067V458.4H741.528ZM741.528 458.08L739.528 458.037L739.528 458.058V458.08H741.528ZM742.008 436L744.007 436.043L744.008 436.022V436H742.008ZM736.088 431.36V429.36H735.702L735.345 429.503L736.088 431.36ZM718.008 472H716.008V472.029L716.008 472.059L718.008 472ZM723.448 424.96V426.96H723.741L724.022 426.876L723.448 424.96ZM725.048 424.48L725.33 422.5L724.895 422.438L724.473 422.564L725.048 424.48ZM728.408 424.96L728.125 426.94L728.881 427.048L729.517 426.624L728.408 424.96ZM737.363 424.073C741.631 424.425 744.515 425.619 746.33 427.391C748.111 429.13 749.128 431.687 749.128 435.36H753.128C753.128 430.926 751.877 427.217 749.125 424.529C746.406 421.875 742.491 420.482 737.692 420.087L737.363 424.073ZM749.151 435.664L749.471 437.744L753.424 437.136L753.104 435.056L749.151 435.664ZM749.448 437.414L749.128 462.374L753.127 462.426L753.447 437.466L749.448 437.414ZM749.128 462.4C749.128 465.92 751.091 470.245 754.429 475.198L757.746 472.962C754.47 468.102 753.128 464.64 753.128 462.4H749.128ZM754.088 474.08V474.4H758.088V474.08H754.088ZM754.16 473.868C753.785 475.226 753.314 476.025 752.873 476.466C752.485 476.854 752.051 477.04 751.448 477.04V481.04C753.084 481.04 754.543 480.453 755.702 479.294C756.808 478.188 757.537 476.667 758.015 474.932L754.16 473.868ZM752.221 477.196C749.296 475.969 747.17 474.098 745.75 471.578C744.312 469.027 743.528 465.686 743.528 461.44H739.528C739.528 466.154 740.396 470.226 742.265 473.542C744.151 476.888 746.986 479.338 750.674 480.884L752.221 477.196ZM743.528 461.44V459.36H739.528V461.44H743.528ZM742.637 457.696L742.157 457.376L739.938 460.704L740.418 461.024L742.637 457.696ZM742.647 460.24L743.128 459.6L739.928 457.2L739.448 457.84L742.647 460.24ZM743.528 458.4V458.08H739.528V458.4H743.528ZM743.527 458.123L744.007 436.043L740.008 435.957L739.528 458.037L743.527 458.123ZM744.008 436C744.008 434.212 743.628 432.497 742.522 431.214C741.367 429.874 739.733 429.36 738.008 429.36V433.36C738.949 433.36 739.314 433.619 739.493 433.826C739.72 434.089 740.008 434.695 740.008 436H744.008ZM738.008 429.36H736.088V433.36H738.008V429.36ZM735.345 429.503C733.46 430.257 731.995 431.782 730.857 433.748C729.719 435.712 728.829 438.247 728.138 441.275C726.755 447.332 726.088 455.733 726.088 466.4H730.088C730.088 455.841 730.753 447.788 732.037 442.165C732.679 439.353 733.456 437.242 734.318 435.752C735.18 434.265 736.048 433.53 736.83 433.217L735.345 429.503ZM726.088 466.4C726.088 469.976 725.623 472.357 724.904 473.775C724.559 474.456 724.187 474.85 723.839 475.079C723.502 475.3 723.077 475.44 722.488 475.44V479.44C723.765 479.44 724.973 479.12 726.036 478.421C727.088 477.73 727.883 476.744 728.471 475.585C729.618 473.323 730.088 470.184 730.088 466.4H726.088ZM722.488 475.44C721.497 475.44 721.033 475.151 720.751 474.809C720.404 474.386 720.054 473.539 720.007 471.941L716.008 472.059C716.068 474.088 716.518 475.96 717.664 477.351C718.875 478.823 720.598 479.44 722.488 479.44V475.44ZM720.008 472V456H716.008V472H720.008ZM720.008 456C720.008 445.681 720.462 438.062 721.337 433.065C721.779 430.548 722.302 428.849 722.838 427.831C723.399 426.764 723.669 426.96 723.448 426.96V422.96C721.412 422.96 720.096 424.45 719.297 425.969C718.473 427.538 717.863 429.719 717.398 432.375C716.46 437.725 716.008 445.626 716.008 456H720.008ZM724.022 426.876L725.622 426.396L724.473 422.564L722.873 423.044L724.022 426.876ZM724.765 426.46L728.125 426.94L728.69 422.98L725.33 422.5L724.765 426.46ZM729.517 426.624C732.096 424.904 734.755 424.08 737.528 424.08V420.08C733.9 420.08 730.479 421.176 727.298 423.296L729.517 426.624ZM854.695 380.96L854.085 379.055L853.051 379.386L852.765 380.434L854.695 380.96ZM858.695 379.68V377.68H858.383L858.085 377.775L858.695 379.68ZM864.135 394.08H862.135V394.214L862.153 394.346L864.135 394.08ZM869.095 431.04L867.113 431.306L867.203 431.976L867.681 432.454L869.095 431.04ZM869.735 431.68L868.321 433.094L869.223 433.996L870.421 433.559L869.735 431.68ZM888.135 424.96V422.96H887.781L887.449 423.081L888.135 424.96ZM892.135 430.56H894.135V430.503L894.132 430.446L892.135 430.56ZM871.815 440.64L871.256 438.72L871.082 438.77L870.921 438.851L871.815 440.64ZM871.175 440.96L870.281 439.171L869.175 439.724V440.96H871.175ZM881.735 476.64H883.735V476.315L883.632 476.008L881.735 476.64ZM876.775 482.08V484.08H877.177L877.548 483.924L876.775 482.08ZM870.695 471.04L872.678 470.781L872.639 470.48L872.512 470.204L870.695 471.04ZM861.735 444.64L863.657 444.088L863.242 442.64H861.735V444.64ZM861.095 444.64V442.64H860.891L860.691 442.681L861.095 444.64ZM840.135 452L841.951 452.838L842.135 452.439V452H840.135ZM818.695 472.64H816.695V472.787L816.717 472.933L818.695 472.64ZM827.175 457.6L828.77 458.807L828.902 458.632L828.994 458.432L827.175 457.6ZM829.735 452L831.554 452.832L832.848 450H829.735V452ZM825.735 452V450H825.527L825.323 450.043L825.735 452ZM822.695 452.64L822.222 454.583L822.663 454.691L823.107 454.597L822.695 452.64ZM816.775 446.56L814.937 445.772L814.775 446.149V446.56H816.775ZM823.815 440.96L824.558 439.103L824.2 438.96H823.815V440.96ZM827.815 442.56L827.072 444.417L827.43 444.56H827.815V442.56ZM836.775 436L834.934 435.218L834.775 435.593V436H836.775ZM856.135 410.08V408.08H854.691L854.237 409.451L856.135 410.08ZM846.695 438.56L844.797 437.931L843.72 441.178L847.078 440.523L846.695 438.56ZM859.815 433.6H861.815V433.498L861.805 433.397L859.815 433.6ZM855.305 382.865L859.305 381.585L858.085 377.775L854.085 379.055L855.305 382.865ZM858.695 381.68C859.114 381.68 859.437 381.802 859.752 382.08C860.107 382.393 860.521 382.973 860.904 383.987C861.68 386.042 862.135 389.349 862.135 394.08H866.135C866.135 389.211 865.683 385.318 864.646 382.573C864.122 381.187 863.403 379.967 862.398 379.08C861.353 378.158 860.089 377.68 858.695 377.68V381.68ZM862.153 394.346L867.113 431.306L871.077 430.774L866.117 393.814L862.153 394.346ZM867.681 432.454L868.321 433.094L871.149 430.266L870.509 429.626L867.681 432.454ZM870.421 433.559L888.821 426.839L887.449 423.081L869.049 429.801L870.421 433.559ZM888.135 426.96C888.768 426.96 889.086 427.156 889.348 427.522C889.696 428.011 890.041 428.97 890.138 430.674L894.132 430.446C894.016 428.416 893.587 426.576 892.602 425.198C891.531 423.697 889.955 422.96 888.135 422.96V426.96ZM890.135 430.56C890.135 430.412 890.212 430.643 889.523 431.267C888.872 431.857 887.787 432.564 886.166 433.368C882.94 434.969 877.995 436.756 871.256 438.72L872.374 442.56C879.182 440.577 884.397 438.711 887.944 436.952C889.709 436.076 891.165 435.177 892.207 434.233C893.211 433.324 894.135 432.094 894.135 430.56H890.135ZM870.921 438.851L870.281 439.171L872.069 442.749L872.709 442.429L870.921 438.851ZM869.175 440.96V441.6H873.175V440.96H869.175ZM869.175 441.6C869.175 442.455 869.47 443.854 869.896 445.54C870.347 447.323 871.016 449.685 871.9 452.617C873.668 458.485 876.316 466.706 879.838 477.272L883.632 476.008C880.114 465.454 877.482 457.275 875.73 451.463C874.854 448.555 874.203 446.257 873.774 444.56C873.32 442.766 873.175 441.865 873.175 441.6H869.175ZM879.735 476.64V476.96H883.735V476.64H879.735ZM879.735 476.96C879.735 477.679 879.176 478.905 876.002 480.236L877.548 483.924C880.988 482.482 883.735 480.294 883.735 476.96H879.735ZM876.775 480.08C876.213 480.08 875.492 479.818 874.687 478.355C873.853 476.841 873.147 474.374 872.678 470.781L868.712 471.299C869.203 475.066 869.99 478.119 871.183 480.285C872.404 482.502 874.243 484.08 876.775 484.08V480.08ZM872.512 470.204C870.127 465.018 867.174 456.343 863.657 444.088L859.813 445.192C863.336 457.47 866.357 466.395 868.878 471.876L872.512 470.204ZM861.735 442.64H861.095V446.64H861.735V442.64ZM860.691 442.681C853.681 444.126 848.336 445.481 844.712 446.753C842.914 447.384 841.433 448.032 840.365 448.716C839.832 449.059 839.316 449.464 838.915 449.953C838.509 450.449 838.135 451.142 838.135 452H842.135C842.135 452.351 841.979 452.525 842.01 452.487C842.046 452.443 842.185 452.301 842.525 452.084C843.203 451.648 844.342 451.122 846.038 450.527C849.401 449.346 854.535 448.034 861.499 446.599L860.691 442.681ZM838.319 451.162C834.496 459.445 831.181 465.56 828.376 469.574C826.97 471.586 825.745 472.993 824.708 473.878C823.638 474.79 822.987 474.96 822.695 474.96V478.96C824.376 478.96 825.932 478.09 827.302 476.922C828.705 475.727 830.153 474.014 831.654 471.866C834.662 467.56 838.094 461.195 841.951 452.838L838.319 451.162ZM822.695 474.96C822.045 474.96 821.716 474.773 821.483 474.521C821.193 474.208 820.855 473.57 820.673 472.347L816.717 472.933C816.962 474.59 817.504 476.112 818.547 477.239C819.648 478.427 821.105 478.96 822.695 478.96V474.96ZM820.695 472.64C820.695 471.928 821.151 470.436 822.557 467.942C823.908 465.547 825.968 462.507 828.77 458.807L825.58 456.393C822.729 460.159 820.549 463.36 819.073 465.978C817.652 468.497 816.695 470.792 816.695 472.64H820.695ZM828.994 458.432L831.554 452.832L827.916 451.168L825.356 456.768L828.994 458.432ZM829.735 450H825.735V454H829.735V450ZM825.323 450.043L822.283 450.683L823.107 454.597L826.147 453.957L825.323 450.043ZM823.168 450.697C821.409 450.269 820.322 449.656 819.688 449.005C819.101 448.401 818.775 447.639 818.775 446.56H814.775C814.775 448.574 815.436 450.372 816.822 451.795C818.162 453.171 820.035 454.051 822.222 454.583L823.168 450.697ZM818.613 447.348C819.327 445.682 820.141 444.592 820.98 443.925C821.788 443.283 822.705 442.96 823.815 442.96V438.96C821.832 438.96 820.029 439.57 818.49 440.795C816.982 441.994 815.823 443.704 814.937 445.772L818.613 447.348ZM823.072 442.817L827.072 444.417L828.558 440.703L824.558 439.103L823.072 442.817ZM827.815 444.56C830.987 444.56 833.727 443.99 835.716 442.534C837.822 440.992 838.775 438.693 838.775 436H834.775C834.775 437.68 834.235 438.661 833.354 439.306C832.356 440.037 830.617 440.56 827.815 440.56V444.56ZM838.616 436.782C844.108 423.858 850.11 405.41 856.625 381.485L852.765 380.434C846.267 404.297 840.322 422.542 834.934 435.218L838.616 436.782ZM854.237 409.451L844.797 437.931L848.593 439.189L858.033 410.709L854.237 409.451ZM847.078 440.523C851.482 439.664 854.895 438.798 857.242 437.911C858.404 437.471 859.424 436.984 860.189 436.415C860.892 435.891 861.815 434.969 861.815 433.6H857.815C857.815 433.031 858.191 432.915 857.801 433.205C857.473 433.45 856.852 433.782 855.828 434.169C853.802 434.935 850.655 435.75 846.312 436.597L847.078 440.523ZM861.805 433.397C861.004 425.549 860.293 419.626 859.671 415.651C859.362 413.674 859.066 412.121 858.778 411.037C858.638 410.51 858.476 409.996 858.273 409.578C858.176 409.376 858.018 409.086 857.772 408.819C857.546 408.573 856.996 408.08 856.135 408.08V412.08C855.38 412.08 854.94 411.648 854.826 411.525C854.693 411.38 854.651 411.274 854.672 411.317C854.706 411.389 854.792 411.61 854.912 412.063C855.144 412.939 855.415 414.326 855.719 416.269C856.324 420.134 857.026 425.971 857.825 433.803L861.805 433.397ZM988.396 375.04L988.27 373.044L988.256 373.045L988.241 373.046L988.396 375.04ZM1036.4 372V370H1036.33L1036.27 370.004L1036.4 372ZM1040.4 376H1042.4V375.545L1042.2 375.135L1040.4 376ZM1026.32 382.08V380.08H1026.26L1026.2 380.083L1026.32 382.08ZM998.316 383.68L998.202 381.683L997.791 381.707L997.422 381.891L998.316 383.68ZM997.676 384L996.782 382.211L995.478 382.863L995.699 384.303L997.676 384ZM1001.68 483.04L1003.66 483.266L1003.68 483.153V483.04H1001.68ZM991.756 483.68H989.756V483.78L989.766 483.879L991.756 483.68ZM988.396 384.64L990.378 384.371L990.12 382.467L988.207 382.649L988.396 384.64ZM959.756 391.04L960.569 392.868L961.756 392.34V391.04H959.756ZM958.316 391.68L957.759 393.601L958.461 393.804L959.129 393.508L958.316 391.68ZM988.523 377.036L1036.52 373.996L1036.27 370.004L988.27 373.044L988.523 377.036ZM1036.4 374C1036.41 374 1036.45 374.001 1036.55 374.046C1036.65 374.095 1036.81 374.2 1037.02 374.414C1037.46 374.857 1038 375.633 1038.59 376.865L1042.2 375.135C1041.51 373.7 1040.74 372.476 1039.85 371.586C1038.95 370.682 1037.79 370 1036.4 370V374ZM1038.4 376C1038.4 376.597 1038.23 377.048 1037.93 377.438C1037.61 377.855 1037.04 378.309 1036.08 378.724C1034.12 379.573 1030.93 380.08 1026.32 380.08V384.08C1031.09 384.08 1034.94 383.574 1037.67 382.396C1039.05 381.798 1040.25 380.985 1041.1 379.882C1041.97 378.752 1042.4 377.429 1042.4 376H1038.4ZM1026.2 380.083L998.202 381.683L998.43 385.677L1026.43 384.077L1026.2 380.083ZM997.422 381.891L996.782 382.211L998.571 385.789L999.211 385.469L997.422 381.891ZM995.699 384.303C998.34 401.517 999.676 434.384 999.676 483.04H1003.68C1003.68 434.416 1002.35 401.256 999.653 383.697L995.699 384.303ZM999.689 482.814C999.439 485.01 998.939 486.373 998.379 487.144C997.898 487.804 997.351 488.08 996.556 488.08V492.08C998.642 492.08 1000.39 491.183 1001.61 489.496C1002.76 487.92 1003.38 485.763 1003.66 483.266L999.689 482.814ZM996.556 488.08C995.77 488.08 995.281 487.82 994.876 487.28C994.39 486.632 993.943 485.451 993.746 483.481L989.766 483.879C989.996 486.176 990.562 488.195 991.676 489.68C992.871 491.273 994.57 492.08 996.556 492.08V488.08ZM993.756 483.68V446.56H989.756V483.68H993.756ZM993.756 446.56C993.756 421.762 992.634 401.025 990.378 384.371L986.414 384.909C988.638 401.321 989.756 421.865 989.756 446.56H993.756ZM988.207 382.649C978.64 383.558 971.379 384.553 966.48 385.648C964.047 386.192 962.081 386.784 960.68 387.457C959.984 387.792 959.315 388.199 958.794 388.717C958.261 389.246 957.756 390.028 957.756 391.04H961.756C961.756 391.439 961.549 391.617 961.614 391.553C961.69 391.478 961.915 391.301 962.412 391.063C963.398 390.589 965.012 390.075 967.352 389.552C972 388.513 979.059 387.536 988.585 386.631L988.207 382.649ZM958.944 389.212L957.504 389.852L959.129 393.508L960.569 392.868L958.944 389.212ZM958.874 389.759C957.414 389.335 956.533 388.804 956.033 388.288C955.58 387.821 955.356 387.286 955.356 386.56H951.356C951.356 388.287 951.959 389.832 953.16 391.072C954.313 392.262 955.912 393.065 957.759 393.601L958.874 389.759ZM955.356 386.56C955.356 385.853 955.677 385.032 956.825 384.078C958.009 383.094 959.93 382.104 962.741 381.18C968.348 379.337 976.915 377.937 988.551 377.034L988.241 373.046C976.518 373.956 967.565 375.383 961.492 377.38C958.462 378.376 956.004 379.559 954.268 381.002C952.496 382.475 951.356 384.333 951.356 386.56H955.356ZM1027.09 392.64L1027.5 390.683L1027.29 390.64H1027.09V392.64ZM1033.17 398.08L1035.05 398.753L1035.17 398.426V398.08H1033.17ZM1028.05 402.56L1027.67 404.525L1027.86 404.56H1028.05V402.56ZM1022.12 396.64L1020.27 395.897L1020.12 396.255V396.64H1022.12ZM1037.49 419.68L1039.47 419.932L1039.53 419.437L1039.35 418.971L1037.49 419.68ZM1036.05 431.04L1034.06 430.788L1034.05 430.914V431.04H1036.05ZM1040.53 472.96L1042.29 473.891L1042.63 473.253L1042.48 472.548L1040.53 472.96ZM1026.45 437.6H1024.45V437.654L1024.45 437.708L1026.45 437.6ZM1026.67 394.597C1028.52 394.986 1029.66 395.549 1030.31 396.13C1030.89 396.649 1031.17 397.249 1031.17 398.08H1035.17C1035.17 396.137 1034.43 394.444 1032.98 393.15C1031.6 391.918 1029.7 391.147 1027.5 390.683L1026.67 394.597ZM1031.28 397.407C1030.82 398.701 1030.28 399.485 1029.77 399.935C1029.29 400.351 1028.75 400.56 1028.05 400.56V404.56C1029.68 404.56 1031.17 404.023 1032.4 402.945C1033.59 401.902 1034.44 400.446 1035.05 398.753L1031.28 397.407ZM1028.42 400.595C1026.67 400.265 1025.62 399.709 1025.02 399.106C1024.46 398.55 1024.12 397.794 1024.12 396.64H1020.12C1020.12 398.686 1020.77 400.517 1022.19 401.934C1023.56 403.305 1025.47 404.108 1027.67 404.525L1028.42 400.595ZM1023.98 397.383C1024.43 396.26 1024.94 395.586 1025.42 395.197C1025.87 394.833 1026.39 394.64 1027.09 394.64V390.64C1025.54 390.64 1024.11 391.113 1022.91 392.083C1021.74 393.028 1020.89 394.353 1020.27 395.897L1023.98 397.383ZM1033.17 417.04C1033.34 417.04 1033.62 417.092 1034.06 417.563C1034.53 418.07 1035.07 418.963 1035.62 420.389L1039.35 418.971C1038.72 417.304 1037.96 415.876 1036.99 414.837C1035.99 413.761 1034.7 413.04 1033.17 413.04V417.04ZM1035.5 419.428L1034.06 430.788L1038.03 431.292L1039.47 419.932L1035.5 419.428ZM1034.05 431.04V438.56H1038.05V431.04H1034.05ZM1034.05 438.56C1034.05 447.506 1035.57 459.126 1038.57 473.372L1042.48 472.548C1039.51 458.421 1038.05 447.108 1038.05 438.56H1034.05ZM1038.76 472.029C1038.38 472.736 1037.92 473.195 1037.39 473.494C1036.84 473.8 1036.1 474 1035.09 474V478C1036.63 478 1038.07 477.694 1039.34 476.986C1040.62 476.271 1041.6 475.211 1042.29 473.891L1038.76 472.029ZM1035.09 474C1035.07 474 1034.97 474.005 1034.76 473.838C1034.53 473.65 1034.2 473.281 1033.83 472.614C1033.06 471.269 1032.3 469.094 1031.6 465.961C1030.19 459.729 1029.13 450.264 1028.44 437.492L1024.45 437.708C1025.14 450.536 1026.22 460.271 1027.69 466.839C1028.43 470.106 1029.29 472.731 1030.34 474.586C1031.36 476.369 1032.88 478 1035.09 478V474ZM1028.45 437.6V432H1024.45V437.6H1028.45ZM1028.45 432C1028.45 426.42 1029.01 422.486 1029.98 420.017C1030.47 418.799 1031 418.058 1031.51 417.63C1031.98 417.234 1032.51 417.04 1033.17 417.04V413.04C1031.58 413.04 1030.15 413.553 1028.94 414.57C1027.77 415.556 1026.9 416.934 1026.27 418.543C1025 421.727 1024.45 426.273 1024.45 432H1028.45ZM1051.32 420L1049.39 419.461L1049.25 419.988L1049.39 420.517L1051.32 420ZM1061.72 424L1059.74 424.316L1060.01 426H1061.72V424ZM1062.36 424V426H1062.57L1062.78 425.954L1062.36 424ZM1069.72 422.4V420.4H1069.5L1069.29 420.446L1069.72 422.4ZM1079.64 432L1077.85 432.894L1078.4 434H1079.64V432ZM1080.28 432V434H1081.38L1081.97 433.075L1080.28 432ZM1094.68 420.96L1095.04 418.993L1094.86 418.96H1094.68V420.96ZM1110.36 441.44H1108.36V441.497L1108.36 441.554L1110.36 441.44ZM1110.68 447.04L1112.68 447.129L1112.68 447.027L1112.68 446.926L1110.68 447.04ZM1109.24 479.36L1107.24 479.271L1107.24 479.315V479.36H1109.24ZM1104.28 487.04V489.04H1104.41L1104.53 489.024L1104.28 487.04ZM1099.32 475.36L1097.32 475.228L1097.32 475.294V475.36H1099.32ZM1101.24 446.4L1103.23 446.532L1103.24 446.466V446.4H1101.24ZM1083.32 451.36L1081.4 450.803L1081.35 450.953L1081.33 451.109L1083.32 451.36ZM1075.64 476.48L1075.38 478.464L1077.64 478.755V476.48H1075.64ZM1070.68 471.36L1068.69 471.146L1068.68 471.253V471.36H1070.68ZM1072.76 452L1074.75 452.214L1074.76 452.083L1074.76 451.952L1072.76 452ZM1068.28 432V430H1067.6L1067.07 430.408L1068.28 432ZM1064.28 452.48L1066.28 452.532L1066.28 452.506V452.48H1064.28ZM1063.64 476.96L1065.56 477.499L1065.63 477.26L1065.64 477.012L1063.64 476.96ZM1054.36 475.36L1052.36 475.428L1052.36 475.564L1052.39 475.698L1054.36 475.36ZM1053.72 456.48L1051.72 456.357L1051.72 456.452L1051.72 456.548L1053.72 456.48ZM1054.68 440.96L1056.67 441.083L1056.68 440.942L1056.67 440.801L1054.68 440.96ZM1053.24 420.539C1053.54 419.502 1053.96 418.915 1054.39 418.576C1054.82 418.243 1055.45 418 1056.44 418V414C1054.76 414 1053.21 414.424 1051.93 415.424C1050.65 416.418 1049.85 417.832 1049.39 419.461L1053.24 420.539ZM1056.44 418C1056.96 418 1057.5 418.201 1058.09 419.102C1058.74 420.088 1059.34 421.762 1059.74 424.316L1063.69 423.684C1063.25 420.905 1062.54 418.579 1061.43 416.898C1060.26 415.132 1058.58 414 1056.44 414V418ZM1061.72 426H1062.36V422H1061.72V426ZM1062.78 425.954L1070.14 424.354L1069.29 420.446L1061.93 422.046L1062.78 425.954ZM1069.72 424.4C1070.75 424.4 1071.95 424.87 1073.37 426.237C1074.79 427.618 1076.3 429.797 1077.85 432.894L1081.43 431.106C1079.78 427.803 1078.03 425.182 1076.15 423.363C1074.26 421.53 1072.1 420.4 1069.72 420.4V424.4ZM1079.64 434H1080.28V430H1079.64V434ZM1081.97 433.075C1086.57 425.847 1090.85 422.96 1094.68 422.96V418.96C1088.69 418.96 1083.37 423.433 1078.59 430.925L1081.97 433.075ZM1094.32 422.927C1099.18 423.82 1102.61 425.804 1104.85 428.736C1107.11 431.692 1108.36 435.855 1108.36 441.44H1112.36C1112.36 435.292 1110.99 430.174 1108.03 426.304C1105.04 422.41 1100.63 420.02 1095.04 418.993L1094.32 422.927ZM1108.36 441.554L1108.68 447.154L1112.68 446.926L1112.36 441.326L1108.36 441.554ZM1108.68 446.951L1107.24 479.271L1111.24 479.449L1112.68 447.129L1108.68 446.951ZM1107.24 479.36V482.4H1111.24V479.36H1107.24ZM1107.24 482.4C1107.24 483.287 1106.98 483.772 1106.63 484.099C1106.23 484.48 1105.45 484.873 1104.02 485.056L1104.53 489.024C1106.42 488.781 1108.12 488.187 1109.37 487.021C1110.67 485.802 1111.24 484.18 1111.24 482.4H1107.24ZM1104.28 485.04C1103.88 485.04 1103.59 484.933 1103.34 484.737C1103.06 484.518 1102.72 484.103 1102.4 483.338C1101.73 481.767 1101.32 479.173 1101.32 475.36H1097.32C1097.32 479.334 1097.73 482.579 1098.72 484.902C1099.22 486.084 1099.91 487.129 1100.87 487.883C1101.86 488.661 1103.03 489.04 1104.28 489.04V485.04ZM1101.31 475.492L1103.23 446.532L1099.24 446.268L1097.32 475.228L1101.31 475.492ZM1103.24 446.4C1103.24 440.973 1102.61 436.618 1101.17 433.549C1100.44 431.989 1099.45 430.683 1098.17 429.769C1096.86 428.841 1095.35 428.4 1093.72 428.4V432.4C1094.6 432.4 1095.28 432.626 1095.85 433.031C1096.44 433.45 1097.03 434.144 1097.55 435.251C1098.61 437.515 1099.24 441.16 1099.24 446.4H1103.24ZM1093.72 428.4C1092.16 428.4 1090.91 429.332 1089.97 430.365C1089 431.435 1088.07 432.932 1087.17 434.751C1085.35 438.406 1083.43 443.782 1081.4 450.803L1085.24 451.917C1087.26 444.965 1089.1 439.861 1090.75 436.529C1091.58 434.855 1092.31 433.731 1092.93 433.055C1093.58 432.341 1093.84 432.4 1093.72 432.4V428.4ZM1081.33 451.109C1080.32 459.096 1079.41 465.034 1078.6 468.955C1078.19 470.929 1077.83 472.313 1077.51 473.171C1077.35 473.614 1077.24 473.807 1077.21 473.853C1077.09 474.02 1077.45 473.36 1078.36 473.36V477.36C1079.59 477.36 1080.28 476.45 1080.5 476.117C1080.82 475.663 1081.06 475.106 1081.27 474.549C1081.69 473.407 1082.1 471.791 1082.52 469.765C1083.36 465.686 1084.29 459.624 1085.3 451.611L1081.33 451.109ZM1078.36 473.36C1077.37 473.36 1076.38 473.453 1075.56 473.791C1075.13 473.968 1074.64 474.254 1074.25 474.732C1073.84 475.241 1073.64 475.853 1073.64 476.48H1077.64C1077.64 476.733 1077.55 477.019 1077.36 477.248C1077.2 477.446 1077.06 477.499 1077.08 477.489C1077.1 477.481 1077.21 477.443 1077.44 477.411C1077.67 477.38 1077.97 477.36 1078.36 477.36V473.36ZM1075.89 474.496C1074.51 474.318 1073.76 473.908 1073.36 473.488C1072.98 473.098 1072.68 472.474 1072.68 471.36H1068.68C1068.68 473.233 1069.21 474.955 1070.48 476.272C1071.73 477.559 1073.46 478.215 1075.38 478.464L1075.89 474.496ZM1072.67 471.574L1074.75 452.214L1070.77 451.786L1068.69 471.146L1072.67 471.574ZM1074.76 451.952C1074.6 445.257 1074.18 440.117 1073.48 436.608C1073.13 434.872 1072.69 433.385 1072.08 432.283C1071.5 431.233 1070.45 430 1068.76 430V434C1068.24 434 1068.24 433.6 1068.58 434.217C1068.89 434.782 1069.24 435.795 1069.56 437.392C1070.19 440.55 1070.6 445.409 1070.76 452.048L1074.76 451.952ZM1068.76 430H1068.28V434H1068.76V430ZM1067.07 430.408C1063.62 433.027 1062.28 437.871 1062.28 444H1066.28C1066.28 438.182 1067.6 435.027 1069.49 433.592L1067.07 430.408ZM1062.28 444V452.48H1066.28V444H1062.28ZM1062.28 452.428L1061.64 476.908L1065.64 477.012L1066.28 452.532L1062.28 452.428ZM1061.71 476.421C1061.42 477.475 1061 478.067 1060.58 478.403C1060.18 478.727 1059.6 478.96 1058.68 478.96V482.96C1060.32 482.96 1061.84 482.526 1063.09 481.517C1064.33 480.52 1065.11 479.112 1065.56 477.499L1061.71 476.421ZM1058.68 478.96C1058.22 478.96 1057.87 478.811 1057.5 478.338C1057.07 477.775 1056.62 476.742 1056.33 475.022L1052.39 475.698C1052.73 477.712 1053.33 479.479 1054.34 480.782C1055.41 482.176 1056.9 482.96 1058.68 482.96V478.96ZM1056.36 475.292L1055.72 456.412L1051.72 456.548L1052.36 475.428L1056.36 475.292ZM1055.71 456.603L1056.67 441.083L1052.68 440.837L1051.72 456.357L1055.71 456.603ZM1056.67 440.801C1056.03 432.713 1054.89 425.602 1053.25 419.483L1049.39 420.517C1050.95 426.345 1052.05 433.207 1052.69 441.119L1056.67 440.801ZM1133.94 418.56L1133.99 416.561L1133.96 416.56H1133.94V418.56ZM1155.54 440.96L1157.53 440.726L1157.47 440.238L1157.19 439.831L1155.54 440.96ZM1155.86 443.68H1157.86V443.563L1157.85 443.446L1155.86 443.68ZM1133.94 450.56L1133.72 448.572L1133.02 448.648L1132.53 449.146L1133.94 450.56ZM1133.46 451.04L1132.05 449.626L1131.46 450.212V451.04H1133.46ZM1133.46 451.68H1131.46V451.91L1131.51 452.134L1133.46 451.68ZM1157.94 455.04V453.04H1157.08L1156.48 453.669L1157.94 455.04ZM1163.86 459.68H1165.86V459.313L1165.73 458.971L1163.86 459.68ZM1150.42 472.96L1151.44 474.682L1151.51 474.642L1151.57 474.597L1150.42 472.96ZM1141.94 476V478H1142.13L1142.32 477.964L1141.94 476ZM1123.86 451.68L1125.82 451.268L1125.53 449.911L1124.16 449.703L1123.86 451.68ZM1121.94 440.96H1123.94V438.506L1121.54 439.001L1121.94 440.96ZM1121.94 441.6H1119.94V444.554L1122.68 443.457L1121.94 441.6ZM1123.54 440.96L1124.28 442.817L1125.54 442.314V440.96H1123.54ZM1134.9 430.08L1136.16 428.526L1135.61 428.08H1134.9V430.08ZM1133.46 430.08V428.08H1131.66L1131.47 429.865L1133.46 430.08ZM1132.82 436L1130.83 435.785L1130.82 435.892V436H1132.82ZM1132.82 440.96H1130.82V442.96H1132.82V440.96ZM1133.46 440.96V442.96H1133.5L1133.53 442.959L1133.46 440.96ZM1142.42 439.04H1144.42V438.434L1144.08 437.931L1142.42 439.04ZM1133.89 420.559C1134.42 420.573 1135.29 420.835 1136.59 421.689C1137.85 422.525 1139.36 423.82 1141.1 425.628C1144.59 429.244 1148.85 434.711 1153.89 442.089L1157.19 439.831C1152.1 432.382 1147.69 426.703 1143.98 422.852C1142.12 420.927 1140.39 419.408 1138.79 418.351C1137.22 417.312 1135.6 416.601 1133.99 416.561L1133.89 420.559ZM1153.55 441.194L1153.87 443.914L1157.85 443.446L1157.53 440.726L1153.55 441.194ZM1153.86 443.68C1153.86 443.507 1153.99 443.686 1153.32 444.169C1152.66 444.645 1151.52 445.184 1149.78 445.732C1146.32 446.819 1140.99 447.776 1133.72 448.572L1134.16 452.548C1141.5 451.744 1147.14 450.755 1150.98 449.548C1152.89 448.949 1154.49 448.255 1155.66 447.411C1156.82 446.574 1157.86 445.346 1157.86 443.68H1153.86ZM1132.53 449.146L1132.05 449.626L1134.87 452.454L1135.35 451.974L1132.53 449.146ZM1131.46 451.04V451.68H1135.46V451.04H1131.46ZM1131.51 452.134C1132.64 456.98 1133.83 460.754 1135.1 463.358C1135.74 464.657 1136.45 465.775 1137.27 466.594C1138.09 467.423 1139.18 468.08 1140.5 468.08V464.08C1140.59 464.08 1140.47 464.137 1140.09 463.766C1139.71 463.385 1139.24 462.703 1138.7 461.602C1137.62 459.406 1136.52 455.98 1135.41 451.226L1131.51 452.134ZM1140.5 468.08H1142.42V464.08H1140.5V468.08ZM1142.42 468.08C1144.77 468.08 1147.34 466.852 1150.02 464.95C1152.76 463.003 1155.89 460.138 1159.4 456.411L1156.48 453.669C1153.06 457.302 1150.14 459.957 1147.7 461.69C1145.2 463.468 1143.48 464.08 1142.42 464.08V468.08ZM1157.94 457.04H1158.9V453.04H1157.94V457.04ZM1158.9 457.04C1159.78 457.04 1160.92 457.578 1161.99 460.389L1165.73 458.971C1164.45 455.595 1162.29 453.04 1158.9 453.04V457.04ZM1161.86 459.68C1161.86 459.768 1161.81 460.138 1161.34 460.87C1160.89 461.573 1160.16 462.447 1159.09 463.497C1156.97 465.596 1153.72 468.201 1149.27 471.323L1151.57 474.597C1156.08 471.425 1159.55 468.671 1161.91 466.343C1163.08 465.18 1164.03 464.073 1164.7 463.03C1165.35 462.015 1165.86 460.872 1165.86 459.68H1161.86ZM1149.4 471.238C1147.29 472.485 1144.69 473.43 1141.56 474.036L1142.32 477.964C1145.8 477.29 1148.85 476.209 1151.44 474.682L1149.4 471.238ZM1141.94 474C1138.36 474 1135.25 472.37 1132.55 468.727C1129.78 465.008 1127.5 459.251 1125.82 451.268L1121.9 452.092C1123.64 460.322 1126.07 466.726 1129.33 471.113C1132.65 475.577 1136.88 478 1141.94 478V474ZM1124.16 449.703C1121.88 449.356 1120.45 448.746 1119.61 448.058C1118.87 447.441 1118.5 446.684 1118.5 445.6H1114.5C1114.5 447.823 1115.36 449.732 1117.07 451.142C1118.69 452.48 1120.93 453.257 1123.56 453.657L1124.16 449.703ZM1118.5 445.6C1118.5 445.023 1118.69 444.602 1119.16 444.202C1119.7 443.736 1120.69 443.258 1122.34 442.919L1121.54 439.001C1119.56 439.408 1117.83 440.078 1116.56 441.158C1115.22 442.305 1114.5 443.831 1114.5 445.6H1118.5ZM1119.94 440.96V441.6H1123.94V440.96H1119.94ZM1122.68 443.457L1124.28 442.817L1122.8 439.103L1121.2 439.743L1122.68 443.457ZM1125.54 440.96V436.96H1121.54V440.96H1125.54ZM1125.54 436.96C1125.54 430.95 1126.4 426.763 1127.88 424.144C1129.27 421.693 1131.21 420.56 1133.94 420.56V416.56C1129.74 416.56 1126.48 418.494 1124.4 422.176C1122.41 425.69 1121.54 430.704 1121.54 436.96H1125.54ZM1134.9 428.08H1133.46V432.08H1134.9V428.08ZM1131.47 429.865L1130.83 435.785L1134.81 436.215L1135.45 430.295L1131.47 429.865ZM1130.82 436V440.96H1134.82V436H1130.82ZM1132.82 442.96H1133.46V438.96H1132.82V442.96ZM1133.53 442.959C1136.55 442.851 1138.93 442.633 1140.6 442.276C1141.42 442.1 1142.21 441.862 1142.85 441.496C1143.45 441.157 1144.42 440.392 1144.42 439.04H1140.42C1140.42 438.222 1141.02 437.936 1140.87 438.024C1140.76 438.085 1140.44 438.22 1139.76 438.364C1138.44 438.647 1136.35 438.856 1133.39 438.961L1133.53 442.959ZM1144.08 437.931C1141.27 433.707 1138.63 430.526 1136.16 428.526L1133.64 431.634C1135.65 433.261 1138.03 436.053 1140.76 440.149L1144.08 437.931Z" fill="white" mask="url(#path-36-outside-1_34_83)"/>
<path d="M1234.65 422.282C1237.97 413.961 1247.79 410.386 1255.68 414.626L1347.98 464.226C1350.93 465.813 1354.33 466.365 1357.63 465.794L1462.55 447.665C1471.74 446.078 1480.13 453.16 1480.11 462.479L1479.88 564.271C1479.88 567.821 1481.13 571.258 1483.41 573.972L1549.02 651.804C1555.02 658.93 1553.15 669.749 1545.09 674.436L1453.06 727.991C1450.17 729.677 1447.92 732.285 1446.68 735.399L1407.86 832.718C1404.54 841.039 1394.72 844.614 1386.82 840.374L1294.53 790.774C1291.58 789.187 1288.18 788.635 1284.88 789.206L1179.96 807.335C1170.77 808.922 1162.38 801.84 1162.4 792.521L1162.63 690.729C1162.63 687.179 1161.38 683.742 1159.1 681.028L1093.49 603.196C1087.49 596.07 1089.36 585.251 1097.42 580.564L1189.45 527.009C1192.34 525.323 1194.59 522.715 1195.83 519.601L1234.65 422.282Z" fill="#FFC4C4"/>
<circle cx="1268.84" cy="593.361" r="50.0669" fill="white"/>
<circle cx="1246.31" cy="583.348" r="25.0335" fill="black"/>
<circle cx="1268.84" cy="593.361" r="50.0669" fill="white"/>
<circle cx="1253.82" cy="588.355" r="25.0335" fill="black"/>
<circle cx="1241.31" cy="575.838" r="5.00669" fill="white"/>
<circle cx="1369.07" cy="621.067" r="50.0669" fill="white"/>
<circle cx="1381.94" cy="632.804" r="25.0335" fill="black"/>
<circle cx="1398.63" cy="634.2" r="5.00669" fill="white"/>
<circle cx="1172.94" cy="85.945" r="43.945" fill="white"/>
<circle cx="1183.93" cy="103.523" r="21.9725" fill="black"/>
<circle cx="1172.94" cy="103.523" r="4.3945" fill="white"/>
</g>
<defs>
<clipPath id="clip0_34_83">
<rect width="1440" height="850" fill="white"/>
</clipPath>
</defs>
</svg>
