<svg width="492" height="132" viewBox="0 0 492 132" fill="none" xmlns="http://www.w3.org/2000/svg">
<mask id="path-1-outside-1_40_154" maskUnits="userSpaceOnUse" x="133" y="40" width="359" height="66" fill="black">
<rect fill="white" x="133" y="40" width="359" height="66"/>
<path d="M143.344 49.376L144.944 49.12H145.584C146.437 49.12 147.376 49.6533 148.4 50.72C150.277 50.72 152.944 53.0667 156.4 57.76C159.344 63.3067 160.816 68.2347 160.816 72.544C160.816 78.432 158.683 82.3573 154.416 84.32L150.384 85.152C143.984 85.152 139.376 80.352 136.56 70.752C135.92 68.2347 135.6 65.7813 135.6 63.392V62.752C135.6 55.5413 138.181 51.0827 143.344 49.376ZM142.768 55.52L141.36 54.944C140.037 56.5227 139.376 58.8053 139.376 61.792V63.52C139.376 71.4133 142.043 77.152 147.376 80.736L149.168 81.12H151.6C153.819 81.12 155.419 79.7333 156.4 76.96L156.784 74.144V72.16C156.784 65.76 154.245 60.0213 149.168 54.944L146.544 54.176H146.416C145.563 54.176 144.347 54.624 142.768 55.52ZM171.724 62.432C175.35 62.7307 177.164 64.5013 177.164 67.744L177.292 68.576L177.164 78.56C177.164 79.712 177.825 81.2693 179.148 83.232V83.36C178.806 84.5973 178.188 85.216 177.292 85.216C174.646 84.1067 173.324 81.76 173.324 78.176V77.344L173.132 77.216L173.324 76.96V76.832L173.516 68C173.516 66.7627 172.982 66.144 171.916 66.144H171.148C169.014 66.9973 167.948 71.6693 167.948 80.16C167.948 83.104 167.201 84.576 165.708 84.576C164.556 84.576 163.958 83.8507 163.916 82.4V76C163.916 67.7227 164.641 63.584 166.092 63.584L166.732 63.392L168.076 63.584C169.228 62.816 170.444 62.432 171.724 62.432ZM187.682 62.304L190.306 61.92C191.372 61.92 191.97 62.5813 192.098 63.904C192.098 65.056 190.711 65.8027 187.938 66.144C186.188 67.5093 185.314 69.2587 185.314 71.392V73.504C186.167 78.1973 187.618 80.544 189.666 80.544H190.306C191.5 80.544 193.292 79.4133 195.682 77.152H196.066C196.919 77.152 197.602 77.7493 198.114 78.944C197.516 80.7787 195.596 82.4427 192.354 83.936C191.756 84.192 191.01 84.32 190.114 84.32C185.719 84.32 182.86 80.864 181.538 73.952V72.544C181.538 67.552 183.586 64.1387 187.682 62.304ZM207.101 61.024C208.808 61.0667 211.688 64.0533 215.741 69.984L215.869 71.072C215.869 72.2667 212.946 73.184 207.101 73.824L206.909 74.016V74.272C207.805 78.112 208.744 80.032 209.725 80.032H210.493C211.858 80.032 213.928 78.56 216.701 75.616H217.085C217.938 75.616 218.6 76.2347 219.069 77.472C219.069 78.496 217.277 80.2667 213.693 82.784C212.754 83.3387 211.624 83.744 210.301 84C206.845 84 204.434 80.7573 203.069 74.272C201.106 73.9733 200.125 73.1627 200.125 71.84C200.125 70.9013 200.85 70.2827 202.301 69.984V70.24L202.941 69.984V68.384C202.941 63.4773 204.328 61.024 207.101 61.024ZM207.485 65.632H206.909L206.653 68V69.984H206.909C209.298 69.8987 210.493 69.6427 210.493 69.216C209.384 67.552 208.381 66.3573 207.485 65.632ZM260.246 55.2C260.246 49.056 261.184 45.984 263.062 45.984C264.939 45.984 265.878 49.4613 265.878 56.416L265.046 65.824C265.046 73.8453 266.112 80.032 268.246 84.384V84.64C268.246 85.4933 267.67 86.0267 266.518 86.24H266.262C264.683 86.1547 263.296 83.1467 262.102 77.216H261.846C259.627 83.872 256.79 87.2 253.334 87.2C249.878 87.2 247.659 84.4053 246.678 78.816L246.486 75.04V73.824L247.446 59.232V56.416C247.446 55.5627 247.936 54.9013 248.918 54.432H249.494C250.688 54.432 251.286 55.2213 251.286 56.8V57.184L250.262 74.272V76.64C250.262 80.0533 251.072 82.3147 252.694 83.424H253.845C256.022 82.1013 258.112 77.6213 260.118 69.984L261.078 65.632L260.246 55.2ZM279.588 64.992C284.111 64.992 286.777 67.8293 287.588 73.504C287.588 78.5387 285.241 82.144 280.548 84.32C280.036 84.576 279.332 84.704 278.436 84.704H277.988L276.58 84.576V84.704L276.836 101.792C276.537 103.115 275.855 103.776 274.788 103.776C273.593 103.392 272.996 102.773 272.996 101.92L272.42 67.104C272.42 65.9947 273.081 65.4187 274.404 65.376L275.748 65.952C276.943 65.312 278.223 64.992 279.588 64.992ZM276.388 71.776L276.196 73.76L276.388 80.544L278.18 80.992C281.039 80.992 282.895 78.9013 283.748 74.72V73.76C283.449 70.3893 282.255 68.704 280.164 68.704H279.204C277.327 68.704 276.388 69.728 276.388 71.776ZM300.831 59.872C303.988 59.872 306.378 62.2187 307.999 66.912L308.255 68.256C308.255 72.8213 306.122 77.4933 301.855 82.272C300.148 83.8507 298.42 84.64 296.671 84.64C294.111 84.64 292.298 83.168 291.231 80.224C290.847 78.8587 290.655 77.664 290.655 76.64V75.872C290.655 69.1307 293.108 64.0107 298.015 60.512C298.868 60.0853 299.807 59.872 300.831 59.872ZM294.431 76.512C294.431 79.4133 295.178 80.864 296.671 80.864C299.786 80.864 302.367 76.8747 304.415 68.896V67.68C303.69 65.0347 302.346 63.712 300.383 63.712C299.615 63.712 299.231 64.2453 299.231 65.312C299.231 66.0373 298.378 66.6133 296.671 67.04C295.178 69.5573 294.431 72.7147 294.431 76.512ZM319.411 62.432C323.038 62.7307 324.851 64.5013 324.851 67.744L324.979 68.576L324.851 78.56C324.851 79.712 325.512 81.2693 326.835 83.232V83.36C326.494 84.5973 325.875 85.216 324.979 85.216C322.334 84.1067 321.011 81.76 321.011 78.176V77.344L320.819 77.216L321.011 76.96V76.832L321.203 68C321.203 66.7627 320.67 66.144 319.603 66.144H318.835C316.702 66.9973 315.635 71.6693 315.635 80.16C315.635 83.104 314.888 84.576 313.395 84.576C312.243 84.576 311.646 83.8507 311.603 82.4V76C311.603 67.7227 312.328 63.584 313.779 63.584L314.419 63.392L315.763 63.584C316.915 62.816 318.131 62.432 319.411 62.432ZM366.278 45.984L367.878 45.472C369.329 45.472 370.054 47.392 370.054 51.232L372.038 66.016L372.294 66.272L379.654 63.584C380.635 63.584 381.169 64.3307 381.254 65.824C381.254 66.9333 378.545 68.2773 373.126 69.856L372.87 69.984V70.24C372.87 71.136 374.278 75.808 377.094 84.256V84.384C377.094 85.1947 376.433 85.8773 375.11 86.432C373.873 86.432 373.062 84.96 372.678 82.016C371.697 79.8827 370.502 76.3627 369.094 71.456H368.838C363.249 72.608 360.454 73.5893 360.454 74.4C357.382 81.056 355.057 84.384 353.478 84.384C352.582 84.384 352.049 83.808 351.878 82.656C351.878 81.632 353.009 79.6267 355.27 76.64L356.294 74.4H354.694L353.478 74.656C351.899 74.272 351.11 73.4613 351.11 72.224C351.75 70.7307 352.689 69.984 353.926 69.984L355.526 70.624C357.915 70.624 359.11 69.7493 359.11 68C361.286 62.88 363.675 55.5413 366.278 45.984ZM366.854 57.632L363.078 69.024C366.577 68.3413 368.326 67.68 368.326 67.04C367.686 60.768 367.195 57.632 366.854 57.632ZM419.759 43.616L438.958 42.4C439.513 42.4 440.047 42.9333 440.559 44C440.559 45.6213 438.681 46.432 434.927 46.432L423.727 47.072L423.471 47.2C424.537 54.1547 425.071 67.36 425.071 86.816C424.857 88.6933 424.175 89.632 423.023 89.632C421.913 89.632 421.273 88.7787 421.103 87.072V72.224C421.103 62.3253 420.655 54.0693 419.759 47.456C412.121 48.1813 408.303 49.0347 408.303 50.016L407.727 50.272C406.404 49.888 405.742 49.2053 405.742 48.224C405.742 45.8773 410.415 44.3413 419.759 43.616ZM435.234 50.656C436.855 50.9973 437.666 51.7227 437.666 52.832C437.239 54.0267 436.557 54.624 435.618 54.624C434.039 54.3253 433.25 53.536 433.25 52.256C433.677 51.1893 434.338 50.656 435.234 50.656ZM437.666 59.616C438.349 59.616 438.925 60.2347 439.394 61.472L438.818 66.016V69.024C438.818 72.5227 439.415 77.1093 440.61 82.784C440.183 83.5947 439.458 84 438.434 84C436.685 84 435.533 78.88 434.978 68.64V66.4C434.978 61.8773 435.874 59.616 437.666 59.616ZM444.928 61.6C445.226 60.5333 445.909 60 446.976 60C448.042 60 448.746 61.0667 449.088 63.2H449.344L452.288 62.56C453.653 62.56 454.976 63.84 456.256 66.4H456.512C458.389 63.456 460.309 61.984 462.272 61.984C466.453 62.752 468.544 65.4827 468.544 70.176L468.672 72.416L468.096 85.344V86.56C468.096 87.6267 467.434 88.2453 466.112 88.416C464.789 88.416 464.128 86.8587 464.128 83.744L464.896 72.16C464.896 67.8933 463.893 65.76 461.888 65.76C460.736 65.76 459.349 68.5547 457.728 74.144C456.917 80.544 456.256 83.744 455.744 83.744C455.018 83.744 454.656 83.8933 454.656 84.192C453.333 84.0213 452.672 83.3387 452.672 82.144L453.504 74.4C453.376 69.0667 452.842 66.4 451.904 66.4H451.712C450.645 67.2107 450.112 68.8107 450.112 71.2V74.592L449.856 84.384C449.557 85.4507 448.896 85.984 447.872 85.984C446.976 85.984 446.4 85.2373 446.144 83.744L445.888 76.192L446.272 69.984C446.016 66.784 445.568 63.9893 444.928 61.6ZM477.976 61.024C479.683 61.0667 482.563 64.0533 486.616 69.984L486.744 71.072C486.744 72.2667 483.821 73.184 477.976 73.824L477.784 74.016V74.272C478.68 78.112 479.619 80.032 480.6 80.032H481.368C482.733 80.032 484.803 78.56 487.576 75.616H487.96C488.813 75.616 489.475 76.2347 489.944 77.472C489.944 78.496 488.152 80.2667 484.568 82.784C483.629 83.3387 482.499 83.744 481.176 84C477.72 84 475.309 80.7573 473.944 74.272C471.981 73.9733 471 73.1627 471 71.84C471 70.9013 471.725 70.2827 473.176 69.984V70.24L473.816 69.984V68.384C473.816 63.4773 475.203 61.024 477.976 61.024ZM478.36 65.632H477.784L477.528 68V69.984H477.784C480.173 69.8987 481.368 69.6427 481.368 69.216C480.259 67.552 479.256 66.3573 478.36 65.632Z"/>
</mask>
<path d="M143.344 49.376L144.944 49.12H145.584C146.437 49.12 147.376 49.6533 148.4 50.72C150.277 50.72 152.944 53.0667 156.4 57.76C159.344 63.3067 160.816 68.2347 160.816 72.544C160.816 78.432 158.683 82.3573 154.416 84.32L150.384 85.152C143.984 85.152 139.376 80.352 136.56 70.752C135.92 68.2347 135.6 65.7813 135.6 63.392V62.752C135.6 55.5413 138.181 51.0827 143.344 49.376ZM142.768 55.52L141.36 54.944C140.037 56.5227 139.376 58.8053 139.376 61.792V63.52C139.376 71.4133 142.043 77.152 147.376 80.736L149.168 81.12H151.6C153.819 81.12 155.419 79.7333 156.4 76.96L156.784 74.144V72.16C156.784 65.76 154.245 60.0213 149.168 54.944L146.544 54.176H146.416C145.563 54.176 144.347 54.624 142.768 55.52ZM171.724 62.432C175.35 62.7307 177.164 64.5013 177.164 67.744L177.292 68.576L177.164 78.56C177.164 79.712 177.825 81.2693 179.148 83.232V83.36C178.806 84.5973 178.188 85.216 177.292 85.216C174.646 84.1067 173.324 81.76 173.324 78.176V77.344L173.132 77.216L173.324 76.96V76.832L173.516 68C173.516 66.7627 172.982 66.144 171.916 66.144H171.148C169.014 66.9973 167.948 71.6693 167.948 80.16C167.948 83.104 167.201 84.576 165.708 84.576C164.556 84.576 163.958 83.8507 163.916 82.4V76C163.916 67.7227 164.641 63.584 166.092 63.584L166.732 63.392L168.076 63.584C169.228 62.816 170.444 62.432 171.724 62.432ZM187.682 62.304L190.306 61.92C191.372 61.92 191.97 62.5813 192.098 63.904C192.098 65.056 190.711 65.8027 187.938 66.144C186.188 67.5093 185.314 69.2587 185.314 71.392V73.504C186.167 78.1973 187.618 80.544 189.666 80.544H190.306C191.5 80.544 193.292 79.4133 195.682 77.152H196.066C196.919 77.152 197.602 77.7493 198.114 78.944C197.516 80.7787 195.596 82.4427 192.354 83.936C191.756 84.192 191.01 84.32 190.114 84.32C185.719 84.32 182.86 80.864 181.538 73.952V72.544C181.538 67.552 183.586 64.1387 187.682 62.304ZM207.101 61.024C208.808 61.0667 211.688 64.0533 215.741 69.984L215.869 71.072C215.869 72.2667 212.946 73.184 207.101 73.824L206.909 74.016V74.272C207.805 78.112 208.744 80.032 209.725 80.032H210.493C211.858 80.032 213.928 78.56 216.701 75.616H217.085C217.938 75.616 218.6 76.2347 219.069 77.472C219.069 78.496 217.277 80.2667 213.693 82.784C212.754 83.3387 211.624 83.744 210.301 84C206.845 84 204.434 80.7573 203.069 74.272C201.106 73.9733 200.125 73.1627 200.125 71.84C200.125 70.9013 200.85 70.2827 202.301 69.984V70.24L202.941 69.984V68.384C202.941 63.4773 204.328 61.024 207.101 61.024ZM207.485 65.632H206.909L206.653 68V69.984H206.909C209.298 69.8987 210.493 69.6427 210.493 69.216C209.384 67.552 208.381 66.3573 207.485 65.632ZM260.246 55.2C260.246 49.056 261.184 45.984 263.062 45.984C264.939 45.984 265.878 49.4613 265.878 56.416L265.046 65.824C265.046 73.8453 266.112 80.032 268.246 84.384V84.64C268.246 85.4933 267.67 86.0267 266.518 86.24H266.262C264.683 86.1547 263.296 83.1467 262.102 77.216H261.846C259.627 83.872 256.79 87.2 253.334 87.2C249.878 87.2 247.659 84.4053 246.678 78.816L246.486 75.04V73.824L247.446 59.232V56.416C247.446 55.5627 247.936 54.9013 248.918 54.432H249.494C250.688 54.432 251.286 55.2213 251.286 56.8V57.184L250.262 74.272V76.64C250.262 80.0533 251.072 82.3147 252.694 83.424H253.845C256.022 82.1013 258.112 77.6213 260.118 69.984L261.078 65.632L260.246 55.2ZM279.588 64.992C284.111 64.992 286.777 67.8293 287.588 73.504C287.588 78.5387 285.241 82.144 280.548 84.32C280.036 84.576 279.332 84.704 278.436 84.704H277.988L276.58 84.576V84.704L276.836 101.792C276.537 103.115 275.855 103.776 274.788 103.776C273.593 103.392 272.996 102.773 272.996 101.92L272.42 67.104C272.42 65.9947 273.081 65.4187 274.404 65.376L275.748 65.952C276.943 65.312 278.223 64.992 279.588 64.992ZM276.388 71.776L276.196 73.76L276.388 80.544L278.18 80.992C281.039 80.992 282.895 78.9013 283.748 74.72V73.76C283.449 70.3893 282.255 68.704 280.164 68.704H279.204C277.327 68.704 276.388 69.728 276.388 71.776ZM300.831 59.872C303.988 59.872 306.378 62.2187 307.999 66.912L308.255 68.256C308.255 72.8213 306.122 77.4933 301.855 82.272C300.148 83.8507 298.42 84.64 296.671 84.64C294.111 84.64 292.298 83.168 291.231 80.224C290.847 78.8587 290.655 77.664 290.655 76.64V75.872C290.655 69.1307 293.108 64.0107 298.015 60.512C298.868 60.0853 299.807 59.872 300.831 59.872ZM294.431 76.512C294.431 79.4133 295.178 80.864 296.671 80.864C299.786 80.864 302.367 76.8747 304.415 68.896V67.68C303.69 65.0347 302.346 63.712 300.383 63.712C299.615 63.712 299.231 64.2453 299.231 65.312C299.231 66.0373 298.378 66.6133 296.671 67.04C295.178 69.5573 294.431 72.7147 294.431 76.512ZM319.411 62.432C323.038 62.7307 324.851 64.5013 324.851 67.744L324.979 68.576L324.851 78.56C324.851 79.712 325.512 81.2693 326.835 83.232V83.36C326.494 84.5973 325.875 85.216 324.979 85.216C322.334 84.1067 321.011 81.76 321.011 78.176V77.344L320.819 77.216L321.011 76.96V76.832L321.203 68C321.203 66.7627 320.67 66.144 319.603 66.144H318.835C316.702 66.9973 315.635 71.6693 315.635 80.16C315.635 83.104 314.888 84.576 313.395 84.576C312.243 84.576 311.646 83.8507 311.603 82.4V76C311.603 67.7227 312.328 63.584 313.779 63.584L314.419 63.392L315.763 63.584C316.915 62.816 318.131 62.432 319.411 62.432ZM366.278 45.984L367.878 45.472C369.329 45.472 370.054 47.392 370.054 51.232L372.038 66.016L372.294 66.272L379.654 63.584C380.635 63.584 381.169 64.3307 381.254 65.824C381.254 66.9333 378.545 68.2773 373.126 69.856L372.87 69.984V70.24C372.87 71.136 374.278 75.808 377.094 84.256V84.384C377.094 85.1947 376.433 85.8773 375.11 86.432C373.873 86.432 373.062 84.96 372.678 82.016C371.697 79.8827 370.502 76.3627 369.094 71.456H368.838C363.249 72.608 360.454 73.5893 360.454 74.4C357.382 81.056 355.057 84.384 353.478 84.384C352.582 84.384 352.049 83.808 351.878 82.656C351.878 81.632 353.009 79.6267 355.27 76.64L356.294 74.4H354.694L353.478 74.656C351.899 74.272 351.11 73.4613 351.11 72.224C351.75 70.7307 352.689 69.984 353.926 69.984L355.526 70.624C357.915 70.624 359.11 69.7493 359.11 68C361.286 62.88 363.675 55.5413 366.278 45.984ZM366.854 57.632L363.078 69.024C366.577 68.3413 368.326 67.68 368.326 67.04C367.686 60.768 367.195 57.632 366.854 57.632ZM419.759 43.616L438.958 42.4C439.513 42.4 440.047 42.9333 440.559 44C440.559 45.6213 438.681 46.432 434.927 46.432L423.727 47.072L423.471 47.2C424.537 54.1547 425.071 67.36 425.071 86.816C424.857 88.6933 424.175 89.632 423.023 89.632C421.913 89.632 421.273 88.7787 421.103 87.072V72.224C421.103 62.3253 420.655 54.0693 419.759 47.456C412.121 48.1813 408.303 49.0347 408.303 50.016L407.727 50.272C406.404 49.888 405.742 49.2053 405.742 48.224C405.742 45.8773 410.415 44.3413 419.759 43.616ZM435.234 50.656C436.855 50.9973 437.666 51.7227 437.666 52.832C437.239 54.0267 436.557 54.624 435.618 54.624C434.039 54.3253 433.25 53.536 433.25 52.256C433.677 51.1893 434.338 50.656 435.234 50.656ZM437.666 59.616C438.349 59.616 438.925 60.2347 439.394 61.472L438.818 66.016V69.024C438.818 72.5227 439.415 77.1093 440.61 82.784C440.183 83.5947 439.458 84 438.434 84C436.685 84 435.533 78.88 434.978 68.64V66.4C434.978 61.8773 435.874 59.616 437.666 59.616ZM444.928 61.6C445.226 60.5333 445.909 60 446.976 60C448.042 60 448.746 61.0667 449.088 63.2H449.344L452.288 62.56C453.653 62.56 454.976 63.84 456.256 66.4H456.512C458.389 63.456 460.309 61.984 462.272 61.984C466.453 62.752 468.544 65.4827 468.544 70.176L468.672 72.416L468.096 85.344V86.56C468.096 87.6267 467.434 88.2453 466.112 88.416C464.789 88.416 464.128 86.8587 464.128 83.744L464.896 72.16C464.896 67.8933 463.893 65.76 461.888 65.76C460.736 65.76 459.349 68.5547 457.728 74.144C456.917 80.544 456.256 83.744 455.744 83.744C455.018 83.744 454.656 83.8933 454.656 84.192C453.333 84.0213 452.672 83.3387 452.672 82.144L453.504 74.4C453.376 69.0667 452.842 66.4 451.904 66.4H451.712C450.645 67.2107 450.112 68.8107 450.112 71.2V74.592L449.856 84.384C449.557 85.4507 448.896 85.984 447.872 85.984C446.976 85.984 446.4 85.2373 446.144 83.744L445.888 76.192L446.272 69.984C446.016 66.784 445.568 63.9893 444.928 61.6ZM477.976 61.024C479.683 61.0667 482.563 64.0533 486.616 69.984L486.744 71.072C486.744 72.2667 483.821 73.184 477.976 73.824L477.784 74.016V74.272C478.68 78.112 479.619 80.032 480.6 80.032H481.368C482.733 80.032 484.803 78.56 487.576 75.616H487.96C488.813 75.616 489.475 76.2347 489.944 77.472C489.944 78.496 488.152 80.2667 484.568 82.784C483.629 83.3387 482.499 83.744 481.176 84C477.72 84 475.309 80.7573 473.944 74.272C471.981 73.9733 471 73.1627 471 71.84C471 70.9013 471.725 70.2827 473.176 69.984V70.24L473.816 69.984V68.384C473.816 63.4773 475.203 61.024 477.976 61.024ZM478.36 65.632H477.784L477.528 68V69.984H477.784C480.173 69.8987 481.368 69.6427 481.368 69.216C480.259 67.552 479.256 66.3573 478.36 65.632Z" fill="#4B9EFF"/>
<path d="M143.344 49.376L143.028 47.4011L142.869 47.4265L142.716 47.4771L143.344 49.376ZM144.944 49.12V47.12H144.785L144.628 47.1451L144.944 49.12ZM148.4 50.72L146.957 52.1051L147.548 52.72H148.4V50.72ZM156.4 57.76L158.167 56.8224L158.098 56.6925L158.01 56.5741L156.4 57.76ZM154.416 84.32L154.82 86.2787L155.044 86.2325L155.252 86.137L154.416 84.32ZM150.384 85.152V87.152H150.588L150.788 87.1107L150.384 85.152ZM136.56 70.752L134.622 71.2448L134.631 71.28L134.641 71.3149L136.56 70.752ZM142.768 55.52L142.011 57.3711L142.91 57.739L143.755 57.2594L142.768 55.52ZM141.36 54.944L142.117 53.0929L140.765 52.5398L139.827 53.6596L141.36 54.944ZM147.376 80.736L146.26 82.396L146.58 82.6109L146.957 82.6916L147.376 80.736ZM149.168 81.12L148.749 83.0756L148.956 83.12H149.168V81.12ZM156.4 76.96L158.285 77.6272L158.354 77.4336L158.382 77.2302L156.4 76.96ZM156.784 74.144L158.766 74.4142L158.784 74.2797V74.144H156.784ZM149.168 54.944L150.582 53.5298L150.221 53.1682L149.73 53.0245L149.168 54.944ZM146.544 54.176L147.106 52.2565L146.831 52.176H146.544V54.176ZM143.66 51.3509L145.26 51.0949L144.628 47.1451L143.028 47.4011L143.66 51.3509ZM144.944 51.12H145.584V47.12H144.944V51.12ZM145.584 51.12C145.608 51.12 146.052 51.1621 146.957 52.1051L149.843 49.3349C148.7 48.1446 147.267 47.12 145.584 47.12V51.12ZM148.4 52.72C148.573 52.72 149.233 52.8782 150.487 53.9814C151.666 55.0196 153.1 56.6512 154.79 58.9459L158.01 56.5741C156.244 54.1754 154.616 52.2871 153.129 50.9786C151.716 49.7351 150.104 48.72 148.4 48.72V52.72ZM154.633 58.6976C157.489 64.0783 158.816 68.6769 158.816 72.544H162.816C162.816 67.7924 161.199 62.535 158.167 56.8224L154.633 58.6976ZM158.816 72.544C158.816 75.2568 158.323 77.3579 157.459 78.949C156.609 80.5122 155.343 81.6922 153.58 82.503L155.252 86.137C157.756 84.9851 159.689 83.2211 160.973 80.859C162.242 78.5248 162.816 75.7192 162.816 72.544H158.816ZM154.012 82.3613L149.98 83.1933L150.788 87.1107L154.82 86.2787L154.012 82.3613ZM150.384 83.152C147.752 83.152 145.514 82.1916 143.571 80.1669C141.573 78.0862 139.838 74.8231 138.479 70.1891L134.641 71.3149C136.098 76.2809 138.075 80.2178 140.685 82.9371C143.35 85.7124 146.616 87.152 150.384 87.152V83.152ZM138.498 70.2592C137.896 67.8891 137.6 65.6014 137.6 63.392H133.6C133.6 65.9613 133.944 68.5803 134.622 71.2448L138.498 70.2592ZM137.6 63.392V62.752H133.6V63.392H137.6ZM137.6 62.752C137.6 59.3649 138.209 56.829 139.267 55.0021C140.298 53.2217 141.827 51.9838 143.972 51.2749L142.716 47.4771C139.698 48.4749 137.356 50.3197 135.805 52.9979C134.282 55.6297 133.6 58.9284 133.6 62.752H137.6ZM143.525 53.6689L142.117 53.0929L140.603 56.7951L142.011 57.3711L143.525 53.6689ZM139.827 53.6596C138.092 55.7299 137.376 58.5421 137.376 61.792H141.376C141.376 59.0686 141.982 57.3154 142.893 56.2284L139.827 53.6596ZM137.376 61.792V63.52H141.376V61.792H137.376ZM137.376 63.52C137.376 71.9062 140.245 78.3533 146.26 82.396L148.492 79.076C143.841 75.9507 141.376 70.9204 141.376 63.52H137.376ZM146.957 82.6916L148.749 83.0756L149.587 79.1644L147.795 78.7804L146.957 82.6916ZM149.168 83.12H151.6V79.12H149.168V83.12ZM151.6 83.12C153.165 83.12 154.592 82.6159 155.774 81.5914C156.918 80.5998 157.722 79.2193 158.285 77.6272L154.515 76.2928C154.097 77.474 153.61 78.1735 153.154 78.5686C152.736 78.9307 152.253 79.12 151.6 79.12V83.12ZM158.382 77.2302L158.766 74.4142L154.802 73.8738L154.418 76.6898L158.382 77.2302ZM158.784 74.144V72.16H154.784V74.144H158.784ZM158.784 72.16C158.784 65.1629 155.985 58.9322 150.582 53.5298L147.754 56.3582C152.506 61.1104 154.784 66.3571 154.784 72.16H158.784ZM149.73 53.0245L147.106 52.2565L145.982 56.0955L148.606 56.8635L149.73 53.0245ZM146.544 52.176H146.416V56.176H146.544V52.176ZM146.416 52.176C145.002 52.176 143.392 52.866 141.781 53.7806L143.755 57.2594C145.301 56.382 146.123 56.176 146.416 56.176V52.176ZM171.724 62.432L171.888 60.4387L171.806 60.432H171.724V62.432ZM177.164 67.744H175.164V67.8969L175.187 68.0481L177.164 67.744ZM177.292 68.576L179.291 68.6016L179.293 68.4358L179.268 68.2719L177.292 68.576ZM177.164 78.56L175.164 78.5344L175.164 78.5472V78.56H177.164ZM179.148 83.232H181.148V82.621L180.806 82.1143L179.148 83.232ZM179.148 83.36L181.075 83.8919L181.148 83.6308V83.36H179.148ZM177.292 85.216L176.518 87.0604L176.889 87.216H177.292V85.216ZM173.324 77.344H175.324V76.2736L174.433 75.6799L173.324 77.344ZM173.132 77.216L171.532 76.016L170.263 77.7074L172.022 78.8801L173.132 77.216ZM173.324 76.96L174.923 78.16L175.324 77.6267V76.96H173.324ZM173.324 76.832L171.324 76.7885L171.324 76.8103V76.832H173.324ZM173.516 68L175.515 68.0435L175.516 68.0217V68H173.516ZM171.148 66.144V64.144H170.762L170.405 64.287L171.148 66.144ZM163.916 82.4H161.916V82.4294L161.916 82.4588L163.916 82.4ZM166.092 63.584V65.584H166.385L166.666 65.4997L166.092 63.584ZM166.732 63.392L167.014 61.4121L166.579 61.3498L166.157 61.4763L166.732 63.392ZM168.076 63.584L167.793 65.5639L168.549 65.672L169.185 65.2481L168.076 63.584ZM171.559 64.4253C173.107 64.5527 173.951 64.9708 174.406 65.4149C174.827 65.8261 175.164 66.503 175.164 67.744H179.164C179.164 65.7423 178.593 63.9126 177.201 62.5531C175.842 61.2265 173.967 60.61 171.888 60.4387L171.559 64.4253ZM175.187 68.0481L175.315 68.8801L179.268 68.2719L179.14 67.4399L175.187 68.0481ZM175.292 68.5504L175.164 78.5344L179.163 78.5856L179.291 68.6016L175.292 68.5504ZM175.164 78.56C175.164 80.3524 176.135 82.3411 177.489 84.3497L180.806 82.1143C179.514 80.1976 179.164 79.0716 179.164 78.56H175.164ZM177.148 83.232V83.36H181.148V83.232H177.148ZM177.22 82.8281C177.163 83.0327 177.107 83.1687 177.063 83.2532C177.02 83.3368 176.997 83.3537 177.013 83.3378C177.033 83.3176 177.082 83.2786 177.155 83.2485C177.228 83.2188 177.281 83.216 177.292 83.216V87.216C178.256 87.216 179.147 86.8606 179.842 86.1662C180.484 85.524 180.853 84.6989 181.075 83.8919L177.22 82.8281ZM178.065 83.3716C177.124 82.9769 176.486 82.4022 176.058 81.642C175.612 80.8514 175.324 79.7337 175.324 78.176H171.324C171.324 80.2023 171.696 82.05 172.573 83.606C173.467 85.1925 174.814 86.3458 176.518 87.0604L178.065 83.3716ZM175.324 78.176V77.344H171.324V78.176H175.324ZM174.433 75.6799L174.241 75.5519L172.022 78.8801L172.214 79.0081L174.433 75.6799ZM174.731 78.416L174.923 78.16L171.724 75.76L171.532 76.016L174.731 78.416ZM175.324 76.96V76.832H171.324V76.96H175.324ZM175.323 76.8755L175.515 68.0435L171.516 67.9565L171.324 76.7885L175.323 76.8755ZM175.516 68C175.516 67.1398 175.336 66.1212 174.63 65.3021C173.875 64.4262 172.841 64.144 171.916 64.144V68.144C171.993 68.144 171.973 68.1558 171.894 68.1254C171.804 68.0904 171.693 68.0206 171.601 67.9139C171.514 67.8135 171.492 67.736 171.493 67.7404C171.496 67.7506 171.516 67.8278 171.516 68H175.516ZM171.916 64.144H171.148V68.144H171.916V64.144ZM170.405 64.287C169.32 64.7208 168.555 65.568 168.017 66.4977C167.479 67.4257 167.089 68.5669 166.798 69.8428C166.215 72.3955 165.948 75.8608 165.948 80.16H169.948C169.948 75.9686 170.213 72.8525 170.697 70.7332C170.939 69.6731 171.216 68.9557 171.478 68.5023C171.606 68.2818 171.714 68.1519 171.789 68.0796C171.825 68.0444 171.852 68.0244 171.868 68.0139C171.876 68.0086 171.882 68.0053 171.885 68.0035C171.888 68.0017 171.89 68.001 171.89 68.001L170.405 64.287ZM165.948 80.16C165.948 81.5277 165.763 82.2528 165.604 82.5672C165.539 82.6958 165.517 82.6757 165.589 82.6286C165.672 82.5742 165.737 82.576 165.708 82.576V86.576C166.425 86.576 167.143 86.3938 167.786 85.9714C168.418 85.5563 168.863 84.9842 169.171 84.3768C169.758 83.2192 169.948 81.7363 169.948 80.16H165.948ZM165.708 82.576C165.627 82.576 165.643 82.5632 165.714 82.5925C165.749 82.6073 165.791 82.6298 165.834 82.6616C165.877 82.6936 165.913 82.7282 165.939 82.7606C165.993 82.8256 165.99 82.8535 165.97 82.7877C165.95 82.7184 165.922 82.5778 165.915 82.3412L161.916 82.4588C161.944 83.3999 162.154 84.4563 162.852 85.3034C163.615 86.2308 164.682 86.576 165.708 86.576V82.576ZM165.916 82.4V76H161.916V82.4H165.916ZM165.916 76C165.916 71.8887 166.098 68.926 166.429 67.0333C166.599 66.0676 166.782 65.5331 166.91 65.2907C167.063 64.9997 166.857 65.584 166.092 65.584V61.584C164.6 61.584 163.76 62.6856 163.369 63.4293C162.953 64.2215 162.683 65.2391 162.49 66.3427C162.096 68.5887 161.916 71.834 161.916 76H165.916ZM166.666 65.4997L167.306 65.3076L166.157 61.4763L165.517 61.6683L166.666 65.4997ZM166.449 65.3719L167.793 65.5639L168.358 61.6041L167.014 61.4121L166.449 65.3719ZM169.185 65.2481C170.036 64.6804 170.871 64.432 171.724 64.432V60.432C170.016 60.432 168.419 60.9516 166.966 61.9199L169.185 65.2481ZM187.682 62.304L187.392 60.3251L187.117 60.3653L186.864 60.4787L187.682 62.304ZM190.306 61.92V59.92H190.16L190.016 59.9411L190.306 61.92ZM192.098 63.904H194.098V63.8075L194.088 63.7114L192.098 63.904ZM187.938 66.144L187.693 64.159L187.144 64.2266L186.707 64.5674L187.938 66.144ZM185.314 73.504H183.314V73.6843L183.346 73.8618L185.314 73.504ZM195.682 77.152V75.152H194.885L194.307 75.6994L195.682 77.152ZM198.114 78.944L200.015 79.5632L200.248 78.8477L199.952 78.1562L198.114 78.944ZM192.354 83.936L193.141 85.7743L193.166 85.7638L193.19 85.7526L192.354 83.936ZM181.538 73.952H179.538V74.1416L179.573 74.3279L181.538 73.952ZM187.971 64.2829L190.595 63.8989L190.016 59.9411L187.392 60.3251L187.971 64.2829ZM190.306 63.92C190.367 63.92 190.346 63.9294 190.279 63.9026C190.245 63.8893 190.207 63.8695 190.167 63.8421C190.128 63.8146 190.095 63.7848 190.069 63.7566C190.018 63.6995 190.017 63.6721 190.035 63.7227C190.055 63.7767 190.087 63.8935 190.107 64.0966L194.088 63.7114C194.002 62.8225 193.734 61.8466 193.038 61.0754C192.285 60.2426 191.283 59.92 190.306 59.92V63.92ZM190.098 63.904C190.098 63.7587 190.151 63.61 190.222 63.5124C190.274 63.4412 190.278 63.4762 190.109 63.5671C189.742 63.7647 188.994 63.9989 187.693 64.159L188.182 68.129C189.654 67.9478 190.986 67.638 192.006 67.0889C193.075 66.5131 194.098 65.4801 194.098 63.904H190.098ZM186.707 64.5674C184.495 66.294 183.314 68.6144 183.314 71.392H187.314C187.314 69.9029 187.882 68.7247 189.168 67.7206L186.707 64.5674ZM183.314 71.392V73.504H187.314V71.392H183.314ZM183.346 73.8618C183.789 76.3016 184.421 78.3488 185.34 79.8356C186.288 81.3694 187.716 82.544 189.666 82.544V78.544C189.567 78.544 189.245 78.5453 188.743 77.7324C188.211 76.8726 187.691 75.3997 187.281 73.1462L183.346 73.8618ZM189.666 82.544H190.306V78.544H189.666V82.544ZM190.306 82.544C191.473 82.544 192.612 82.0187 193.613 81.3875C194.662 80.7257 195.813 79.7815 197.056 78.6046L194.307 75.6994C193.161 76.7839 192.221 77.5356 191.478 78.0045C191.109 78.2373 190.82 78.3802 190.605 78.4615C190.387 78.5443 190.296 78.544 190.306 78.544V82.544ZM195.682 79.152H196.066V75.152H195.682V79.152ZM196.066 79.152C196.04 79.152 195.996 79.1464 195.949 79.128C195.903 79.1103 195.887 79.0936 195.9 79.1052C195.941 79.1404 196.09 79.299 196.275 79.7318L199.952 78.1562C199.313 76.6649 198.107 75.152 196.066 75.152V79.152ZM196.212 78.3248C195.886 79.3245 194.646 80.6784 191.517 82.1194L193.19 85.7526C196.546 84.2069 199.146 82.2328 200.015 79.5632L196.212 78.3248ZM191.566 82.0977C191.293 82.2148 190.835 82.32 190.114 82.32V86.32C191.184 86.32 192.22 86.1692 193.141 85.7743L191.566 82.0977ZM190.114 82.32C188.526 82.32 187.273 81.7328 186.215 80.4533C185.088 79.0915 184.133 76.872 183.502 73.5761L179.573 74.3279C180.265 77.944 181.4 80.9085 183.132 83.0027C184.933 85.1792 187.306 86.32 190.114 86.32V82.32ZM183.538 73.952V72.544H179.538V73.952H183.538ZM183.538 72.544C183.538 70.3193 183.993 68.595 184.788 67.269C185.576 65.9571 186.775 64.9014 188.499 64.1293L186.864 60.4787C184.492 61.5412 182.619 63.1095 181.359 65.211C180.106 67.2984 179.538 69.7767 179.538 72.544H183.538ZM207.101 61.024L207.151 59.0246L207.126 59.024H207.101V61.024ZM215.741 69.984L217.727 69.7503L217.67 69.2617L217.392 68.8555L215.741 69.984ZM215.869 71.072H217.869V70.9548L217.855 70.8383L215.869 71.072ZM207.101 73.824L206.883 71.8359L206.184 71.9124L205.687 72.4098L207.101 73.824ZM206.909 74.016L205.495 72.6018L204.909 73.1876V74.016H206.909ZM206.909 74.272H204.909V74.5022L204.961 74.7265L206.909 74.272ZM216.701 75.616V73.616H215.837L215.245 74.2446L216.701 75.616ZM219.069 77.472H221.069V77.1054L220.939 76.7627L219.069 77.472ZM213.693 82.784L214.71 84.5059L214.778 84.4658L214.843 84.4206L213.693 82.784ZM210.301 84V86H210.493L210.681 85.9636L210.301 84ZM203.069 74.272L205.026 73.86L204.74 72.5033L203.37 72.2948L203.069 74.272ZM202.301 69.984H204.301V67.5303L201.898 68.0251L202.301 69.984ZM202.301 70.24H200.301V73.1941L203.044 72.097L202.301 70.24ZM202.941 69.984L203.684 71.841L204.941 71.3381V69.984H202.941ZM207.485 65.632L208.743 64.0775L208.193 63.632H207.485V65.632ZM206.909 65.632V63.632H205.114L204.921 65.417L206.909 65.632ZM206.653 68L204.665 67.785L204.653 67.8922V68H206.653ZM206.653 69.984H204.653V71.984H206.653V69.984ZM206.909 69.984V71.984H206.945L206.98 71.9827L206.909 69.984ZM210.493 69.216H212.493V68.6104L212.157 68.1066L210.493 69.216ZM207.051 63.0234C206.939 63.0206 207.065 62.9906 207.499 63.2769C207.905 63.5449 208.437 63.9956 209.101 64.6843C210.427 66.0595 212.088 68.1832 214.09 71.1125L217.392 68.8555C215.341 65.8542 213.535 63.5191 211.981 61.9077C211.205 61.1031 210.444 60.4284 209.703 59.9391C208.99 59.468 208.116 59.0488 207.151 59.0246L207.051 63.0234ZM213.755 70.2177L213.883 71.3057L217.855 70.8383L217.727 69.7503L213.755 70.2177ZM213.869 71.072C213.869 70.4509 214.27 70.2077 214.15 70.295C214.038 70.3753 213.726 70.5444 213.078 70.7478C211.807 71.1466 209.772 71.5196 206.883 71.8359L207.319 75.8121C210.276 75.4884 212.624 75.0827 214.276 74.5642C215.089 74.3089 215.873 73.9847 216.492 73.537C217.102 73.0963 217.869 72.2904 217.869 71.072H213.869ZM205.687 72.4098L205.495 72.6018L208.323 75.4302L208.515 75.2382L205.687 72.4098ZM204.909 74.016V74.272H208.909V74.016H204.909ZM204.961 74.7265C205.42 76.6921 205.919 78.3062 206.488 79.4704C206.771 80.0485 207.123 80.6268 207.583 81.0862C208.051 81.5547 208.773 82.032 209.725 82.032V78.032C209.941 78.032 210.12 78.0872 210.246 78.1492C210.305 78.1785 210.347 78.2068 210.373 78.2263C210.386 78.2361 210.396 78.2441 210.402 78.2494C210.408 78.2547 210.411 78.2577 210.411 78.2578C210.411 78.2578 210.409 78.2553 210.404 78.2497C210.399 78.2441 210.392 78.2358 210.383 78.2244C210.364 78.2012 210.339 78.1675 210.309 78.1212C210.247 78.027 210.17 77.8941 210.082 77.7136C209.712 76.9578 209.294 75.6919 208.857 73.8175L204.961 74.7265ZM209.725 82.032H210.493V78.032H209.725V82.032ZM210.493 82.032C211.819 82.032 213.106 81.3562 214.228 80.5577C215.414 79.7145 216.726 78.506 218.157 76.9874L215.245 74.2446C213.902 75.67 212.794 76.6695 211.91 77.2983C211.47 77.611 211.122 77.8057 210.861 77.9177C210.595 78.0319 210.483 78.032 210.493 78.032V82.032ZM216.701 77.616H217.085V73.616H216.701V77.616ZM217.085 77.616C217.05 77.616 216.994 77.6084 216.933 77.5835C216.874 77.5594 216.848 77.5345 216.855 77.5405C216.884 77.5675 217.027 77.7266 217.199 78.1813L220.939 76.7627C220.363 75.243 219.196 73.616 217.085 73.616V77.616ZM217.069 77.472C217.069 77.1756 217.183 77.0921 217.049 77.3004C216.935 77.4792 216.71 77.759 216.319 78.1453C215.54 78.9156 214.3 79.9134 212.543 81.1474L214.843 84.4206C216.67 83.1373 218.118 81.9911 219.131 80.9907C219.636 80.4917 220.083 79.9794 220.417 79.4596C220.731 78.9693 221.069 78.2804 221.069 77.472H217.069ZM212.676 81.0621C211.974 81.4766 211.07 81.8141 209.921 82.0364L210.681 85.9636C212.177 85.6739 213.534 85.2007 214.71 84.5059L212.676 81.0621ZM210.301 82C209.318 82 208.406 81.586 207.506 80.3748C206.549 79.0876 205.683 76.9789 205.026 73.86L201.112 74.684C201.821 78.0504 202.842 80.8057 204.296 82.7612C205.806 84.7927 207.828 86 210.301 86V82ZM203.37 72.2948C202.563 72.172 202.232 71.9783 202.135 71.8981C202.101 71.8706 202.113 71.8712 202.126 71.9002C202.138 71.927 202.125 71.9187 202.125 71.84H198.125C198.125 73.071 198.616 74.1798 199.587 74.9819C200.471 75.7124 201.612 76.0733 202.768 76.2492L203.37 72.2948ZM202.125 71.84C202.125 71.8697 202.118 71.9468 202.074 72.0404C202.031 72.1331 201.98 72.1827 201.967 72.1937C201.96 72.1995 202 72.1641 202.126 72.1109C202.252 72.0579 202.439 71.9976 202.704 71.9429L201.898 68.0251C201.008 68.2082 200.094 68.5335 199.371 69.1503C198.571 69.8328 198.125 70.7747 198.125 71.84H202.125ZM200.301 69.984V70.24H204.301V69.984H200.301ZM203.044 72.097L203.684 71.841L202.198 68.127L201.558 68.383L203.044 72.097ZM204.941 69.984V68.384H200.941V69.984H204.941ZM204.941 68.384C204.941 66.0535 205.282 64.6272 205.722 63.8481C206.068 63.2366 206.45 63.024 207.101 63.024V59.024C204.979 59.024 203.281 60.0381 202.24 61.8799C201.294 63.5541 200.941 65.8078 200.941 68.384H204.941ZM207.485 63.632H206.909V67.632H207.485V63.632ZM204.921 65.417L204.665 67.785L208.641 68.215L208.897 65.847L204.921 65.417ZM204.653 68V69.984H208.653V68H204.653ZM206.653 71.984H206.909V67.984H206.653V71.984ZM206.98 71.9827C208.204 71.939 209.242 71.8495 210.016 71.6836C210.386 71.6044 210.846 71.4779 211.261 71.2405C211.631 71.0293 212.493 70.4075 212.493 69.216H208.493C208.493 68.2378 209.206 67.808 209.277 67.7675C209.393 67.7008 209.406 67.7236 209.178 67.7724C208.757 67.8625 208.004 67.9436 206.838 67.9853L206.98 71.9827ZM212.157 68.1066C211.005 66.3787 209.871 64.99 208.743 64.0775L206.227 67.1865C206.891 67.7247 207.762 68.7253 208.829 70.3254L212.157 68.1066ZM260.246 55.2H258.246V55.2796L258.252 55.359L260.246 55.2ZM265.878 56.416L267.87 56.5922L267.878 56.5043V56.416H265.878ZM265.046 65.824L263.053 65.6478L263.046 65.7357V65.824H265.046ZM268.246 84.384H270.246V83.9202L270.041 83.5037L268.246 84.384ZM266.518 86.24V88.24H266.701L266.882 88.2066L266.518 86.24ZM266.262 86.24L266.154 88.2371L266.207 88.24H266.262V86.24ZM262.102 77.216L264.062 76.8211L263.739 75.216H262.102V77.216ZM261.846 77.216V75.216H260.404L259.948 76.5835L261.846 77.216ZM246.678 78.816L244.68 78.9176L244.686 79.0406L244.708 79.1619L246.678 78.816ZM246.486 75.04H244.486V75.0908L244.488 75.1416L246.486 75.04ZM246.486 73.824L244.49 73.6927L244.486 73.7583V73.824H246.486ZM247.446 59.232L249.441 59.3633L249.446 59.2977V59.232H247.446ZM248.918 54.432V52.432H248.464L248.055 52.6277L248.918 54.432ZM251.286 57.184L253.282 57.3036L253.286 57.2439V57.184H251.286ZM250.262 74.272L248.265 74.1524L248.262 74.2121V74.272H250.262ZM252.694 83.424L251.564 85.0746L252.075 85.424H252.694V83.424ZM253.845 83.424V85.424H254.406L254.884 85.133L253.845 83.424ZM260.118 69.984L262.052 70.4919L262.062 70.4536L262.071 70.4148L260.118 69.984ZM261.078 65.632L263.031 66.0628L263.095 65.7709L263.071 65.473L261.078 65.632ZM262.246 55.2C262.246 52.1803 262.482 50.1173 262.862 48.8724C263.283 47.4944 263.552 47.984 263.062 47.984V43.984C260.693 43.984 259.554 46.0096 259.037 47.7036C258.479 49.5307 258.246 52.0757 258.246 55.2H262.246ZM263.062 47.984C262.81 47.984 262.686 47.829 262.739 47.8947C262.841 48.0201 263.041 48.3681 263.243 49.1132C263.641 50.59 263.878 52.9835 263.878 56.416H267.878C267.878 52.8938 267.644 50.0713 267.104 48.0708C266.836 47.0772 266.45 46.1212 265.848 45.3773C265.197 44.5736 264.252 43.984 263.062 43.984V47.984ZM263.885 56.2398L263.053 65.6478L267.038 66.0002L267.87 56.5922L263.885 56.2398ZM263.046 65.824C263.046 73.9749 264.122 80.5152 266.45 85.2643L270.041 83.5037C268.103 79.5488 267.046 73.7158 267.046 65.824H263.046ZM266.246 84.384V84.64H270.246V84.384H266.246ZM266.246 84.64C266.246 84.6258 266.249 84.5536 266.291 84.4528C266.334 84.3481 266.397 84.2656 266.455 84.2125C266.506 84.1647 266.528 84.1632 266.48 84.1841C266.431 84.2055 266.328 84.2411 266.153 84.2734L266.882 88.2066C267.658 88.0627 268.502 87.7684 269.172 87.1475C269.907 86.4671 270.246 85.5697 270.246 84.64H266.246ZM266.518 84.24H266.262V88.24H266.518V84.24ZM266.369 84.2429C266.639 84.2575 266.704 84.3965 266.557 84.244C266.4 84.0802 266.153 83.7307 265.854 83.0827C265.258 81.7913 264.65 79.7371 264.062 76.8211L260.141 77.6109C260.748 80.6256 261.43 83.0407 262.221 84.7573C262.616 85.6133 263.085 86.4024 263.67 87.012C264.265 87.6328 265.094 88.1798 266.154 88.2371L266.369 84.2429ZM262.102 75.216H261.846V79.216H262.102V75.216ZM259.948 76.5835C258.877 79.7975 257.713 82.0204 256.532 83.4064C255.384 84.7525 254.326 85.2 253.334 85.2V89.2C255.797 89.2 257.886 87.9835 259.575 86.0016C261.231 84.0596 262.596 81.2905 263.743 77.8485L259.948 76.5835ZM253.334 85.2C252.238 85.2 251.388 84.7979 250.644 83.8605C249.829 82.8344 249.111 81.111 248.647 78.4701L244.708 79.1619C245.225 82.1104 246.107 84.579 247.511 86.3475C248.986 88.2047 250.973 89.2 253.334 89.2V85.2ZM248.675 78.7144L248.483 74.9384L244.488 75.1416L244.68 78.9176L248.675 78.7144ZM248.486 75.04V73.824H244.486V75.04H248.486ZM248.481 73.9553L249.441 59.3633L245.45 59.1007L244.49 73.6927L248.481 73.9553ZM249.446 59.232V56.416H245.446V59.232H249.446ZM249.446 56.416C249.446 56.3969 249.448 56.4048 249.44 56.4284C249.437 56.439 249.432 56.4492 249.428 56.458C249.426 56.4622 249.424 56.4656 249.422 56.468C249.421 56.4692 249.421 56.4701 249.42 56.4708C249.42 56.4714 249.42 56.4717 249.42 56.4717C249.42 56.4717 249.42 56.4714 249.42 56.4707C249.421 56.47 249.422 56.469 249.423 56.4676C249.425 56.4649 249.429 56.4607 249.435 56.4552C249.446 56.4441 249.464 56.4274 249.492 56.4061C249.548 56.3627 249.64 56.3035 249.78 56.2363L248.055 52.6277C246.607 53.3199 245.446 54.5676 245.446 56.416H249.446ZM248.918 56.432H249.494V52.432H248.918V56.432ZM249.494 56.432C249.574 56.432 249.551 56.4453 249.471 56.4103C249.38 56.3701 249.296 56.302 249.243 56.2309C249.197 56.1708 249.21 56.1581 249.234 56.2532C249.259 56.3506 249.286 56.5249 249.286 56.8H253.286C253.286 55.8155 253.109 54.7116 252.432 53.8171C251.676 52.8175 250.572 52.432 249.494 52.432V56.432ZM249.286 56.8V57.184H253.286V56.8H249.286ZM249.289 57.0644L248.265 74.1524L252.258 74.3916L253.282 57.3036L249.289 57.0644ZM248.262 74.272V76.64H252.262V74.272H248.262ZM248.262 76.64C248.262 80.2325 249.095 83.3851 251.564 85.0746L253.823 81.7734C253.05 81.2443 252.262 79.8742 252.262 76.64H248.262ZM252.694 85.424H253.845V81.424H252.694V85.424ZM254.884 85.133C256.503 84.1493 257.777 82.2332 258.858 79.9178C259.975 77.5245 261.035 74.3668 262.052 70.4919L258.183 69.4761C257.195 73.2385 256.207 76.1395 255.233 78.2262C254.223 80.3908 253.364 81.376 252.807 81.715L254.884 85.133ZM262.071 70.4148L263.031 66.0628L259.124 65.2012L258.164 69.5532L262.071 70.4148ZM263.071 65.473L262.239 55.041L258.252 55.359L259.084 65.791L263.071 65.473ZM287.588 73.504H289.588V73.3619L289.568 73.2212L287.588 73.504ZM280.548 84.32L279.707 82.5055L279.68 82.5179L279.654 82.5311L280.548 84.32ZM277.988 84.704L277.807 86.6958L277.897 86.704H277.988V84.704ZM276.58 84.576L276.761 82.5842L274.58 82.3859V84.576H276.58ZM276.58 84.704H274.58V84.719L274.58 84.734L276.58 84.704ZM276.836 101.792L278.787 102.233L278.839 102L278.836 101.762L276.836 101.792ZM274.788 103.776L274.176 105.68L274.474 105.776H274.788V103.776ZM272.996 101.92H274.996V101.903L274.996 101.887L272.996 101.92ZM272.42 67.104H270.42V67.1205L270.42 67.1371L272.42 67.104ZM274.404 65.376L275.192 63.5377L274.784 63.3627L274.34 63.377L274.404 65.376ZM275.748 65.952L274.96 67.7903L275.844 68.1693L276.692 67.715L275.748 65.952ZM276.388 71.776L278.379 71.9686L278.388 71.8725V71.776H276.388ZM276.196 73.76L274.205 73.5674L274.193 73.6917L274.197 73.8166L276.196 73.76ZM276.388 80.544L274.389 80.6006L274.432 82.1165L275.903 82.4843L276.388 80.544ZM278.18 80.992L277.695 82.9323L277.934 82.992H278.18V80.992ZM283.748 74.72L285.708 75.1199L285.748 74.922V74.72H283.748ZM283.748 73.76H285.748V73.6716L285.74 73.5835L283.748 73.76ZM279.588 66.992C281.395 66.992 282.629 67.5391 283.523 68.4897C284.47 69.4973 285.235 71.1741 285.608 73.7868L289.568 73.2212C289.13 70.1592 288.157 67.58 286.437 65.7503C284.664 63.8636 282.304 62.992 279.588 62.992V66.992ZM285.588 73.504C285.588 75.7013 285.08 77.4671 284.152 78.893C283.221 80.3223 281.782 81.5432 279.707 82.5055L281.389 86.1345C284.007 84.9208 286.088 83.2511 287.504 81.075C288.923 78.8955 289.588 76.3414 289.588 73.504H285.588ZM279.654 82.5311C279.533 82.5916 279.18 82.704 278.436 82.704V86.704C279.484 86.704 280.539 86.5604 281.442 86.1089L279.654 82.5311ZM278.436 82.704H277.988V86.704H278.436V82.704ZM278.169 82.7122L276.761 82.5842L276.399 86.5678L277.807 86.6958L278.169 82.7122ZM274.58 84.576V84.704H278.58V84.576H274.58ZM274.58 84.734L274.836 101.822L278.836 101.762L278.58 84.674L274.58 84.734ZM274.885 101.351C274.787 101.788 274.675 101.876 274.708 101.844C274.731 101.822 274.768 101.797 274.809 101.781C274.846 101.767 274.847 101.776 274.788 101.776V105.776C275.772 105.776 276.73 105.454 277.492 104.716C278.208 104.023 278.587 103.119 278.787 102.233L274.885 101.351ZM275.4 101.872C275.201 101.808 275.066 101.747 274.981 101.699C274.895 101.651 274.873 101.625 274.883 101.635C274.896 101.649 274.932 101.692 274.961 101.764C274.991 101.836 274.996 101.895 274.996 101.92H270.996C270.996 102.869 271.35 103.734 272.005 104.413C272.614 105.044 273.399 105.43 274.176 105.68L275.4 101.872ZM274.996 101.887L274.42 67.0709L270.42 67.1371L270.996 101.953L274.996 101.887ZM274.42 67.104C274.42 67.022 274.432 67.0345 274.406 67.1026C274.392 67.1373 274.37 67.1807 274.338 67.2271C274.305 67.2737 274.268 67.3146 274.23 67.3482C274.151 67.4167 274.1 67.4272 274.131 67.4173C274.168 67.406 274.271 67.3813 274.468 67.375L274.34 63.377C273.442 63.406 272.419 63.6209 271.602 64.3318C270.725 65.096 270.42 66.1359 270.42 67.104H274.42ZM273.616 67.2143L274.96 67.7903L276.536 64.1137L275.192 63.5377L273.616 67.2143ZM276.692 67.715C277.594 67.2318 278.55 66.992 279.588 66.992V62.992C277.896 62.992 276.291 63.3922 274.804 64.189L276.692 67.715ZM274.397 71.5834L274.205 73.5674L278.187 73.9526L278.379 71.9686L274.397 71.5834ZM274.197 73.8166L274.389 80.6006L278.387 80.4874L278.195 73.7034L274.197 73.8166ZM275.903 82.4843L277.695 82.9323L278.665 79.0517L276.873 78.6037L275.903 82.4843ZM278.18 82.992C280.166 82.992 281.894 82.2356 283.212 80.7518C284.465 79.34 285.245 77.3884 285.708 75.1199L281.788 74.3201C281.398 76.2329 280.823 77.4173 280.22 78.0962C279.682 78.7031 279.052 78.992 278.18 78.992V82.992ZM285.748 74.72V73.76H281.748V74.72H285.748ZM285.74 73.5835C285.577 71.7466 285.154 70.0724 284.26 68.8114C283.282 67.4322 281.848 66.704 280.164 66.704V70.704C280.57 70.704 280.779 70.8185 280.996 71.1246C281.297 71.5489 281.62 72.4027 281.756 73.9365L285.74 73.5835ZM280.164 66.704H279.204V70.704H280.164V66.704ZM279.204 66.704C277.91 66.704 276.585 67.0649 275.618 68.1206C274.68 69.1432 274.388 70.4847 274.388 71.776H278.388C278.388 71.0193 278.565 70.8248 278.566 70.8234C278.567 70.8229 278.581 70.8025 278.655 70.7756C278.741 70.7445 278.911 70.704 279.204 70.704V66.704ZM307.999 66.912L309.964 66.5378L309.937 66.3957L309.889 66.259L307.999 66.912ZM308.255 68.256H310.255V68.0672L310.22 67.8818L308.255 68.256ZM301.855 82.272L303.213 83.7402L303.283 83.6753L303.347 83.604L301.855 82.272ZM291.231 80.224L289.306 80.7655L289.326 80.8362L289.351 80.9053L291.231 80.224ZM298.015 60.512L297.121 58.7231L296.981 58.793L296.854 58.8836L298.015 60.512ZM304.415 68.896L306.352 69.3932L306.415 69.1486V68.896H304.415ZM304.415 67.68H306.415V67.4108L306.344 67.1511L304.415 67.68ZM296.671 67.04L296.186 65.0997L295.377 65.3021L294.951 66.0196L296.671 67.04ZM300.831 61.872C302.679 61.872 304.58 63.1394 306.109 67.565L309.889 66.259C308.176 61.298 305.297 57.872 300.831 57.872V61.872ZM306.034 67.2862L306.29 68.6302L310.22 67.8818L309.964 66.5378L306.034 67.2862ZM306.255 68.256C306.255 72.163 304.434 76.3804 300.363 80.94L303.347 83.604C307.809 78.6062 310.255 73.4797 310.255 68.256H306.255ZM300.497 80.8038C299.036 82.1556 297.77 82.64 296.671 82.64V86.64C299.071 86.64 301.261 85.5458 303.213 83.7402L300.497 80.8038ZM296.671 82.64C295.803 82.64 295.167 82.4016 294.651 81.9832C294.107 81.5413 293.562 80.786 293.111 79.5427L289.351 80.9053C289.967 82.606 290.862 84.0587 292.131 85.0888C293.428 86.1424 294.979 86.64 296.671 86.64V82.64ZM293.156 79.6825C292.804 78.431 292.655 77.4258 292.655 76.64H288.655C288.655 77.9022 288.89 79.2863 289.306 80.7655L293.156 79.6825ZM292.655 76.64V75.872H288.655V76.64H292.655ZM292.655 75.872C292.655 69.6882 294.864 65.2149 299.176 62.1404L296.854 58.8836C291.352 62.8064 288.655 68.5731 288.655 75.872H292.655ZM298.909 62.3009C299.465 62.0231 300.094 61.872 300.831 61.872V57.872C299.52 57.872 298.272 58.1476 297.121 58.7231L298.909 62.3009ZM292.431 76.512C292.431 78.0693 292.621 79.5408 293.213 80.6913C293.524 81.2956 293.972 81.8616 294.604 82.2707C295.245 82.6862 295.959 82.864 296.671 82.864V78.864C296.636 78.864 296.697 78.8605 296.778 78.9133C296.85 78.9598 296.832 78.9817 296.769 78.8607C296.615 78.5605 296.431 77.856 296.431 76.512H292.431ZM296.671 82.864C299.213 82.864 301.168 81.2063 302.622 78.9585C304.086 76.6968 305.308 73.462 306.352 69.3932L302.478 68.3987C301.474 72.3087 300.382 75.0578 299.264 76.7855C298.137 78.527 297.244 78.864 296.671 78.864V82.864ZM306.415 68.896V67.68H302.415V68.896H306.415ZM306.344 67.1511C305.928 65.6333 305.278 64.2746 304.266 63.2785C303.203 62.2326 301.865 61.712 300.383 61.712V65.712C300.863 65.712 301.179 65.8527 301.46 66.1295C301.792 66.456 302.177 67.0813 302.486 68.2089L306.344 67.1511ZM300.383 61.712C299.48 61.712 298.531 62.0617 297.896 62.9434C297.349 63.7035 297.231 64.5987 297.231 65.312H301.231C301.231 65.1589 301.245 65.0886 301.248 65.0787C301.25 65.07 301.231 65.1573 301.142 65.2806C301.044 65.4162 300.899 65.5438 300.719 65.6269C300.551 65.705 300.421 65.712 300.383 65.712V61.712ZM297.231 65.312C297.231 65.075 297.308 64.8697 297.399 64.7313C297.476 64.613 297.533 64.5892 297.472 64.6303C297.413 64.6699 297.287 64.7414 297.062 64.8297C296.84 64.9167 296.551 65.0084 296.186 65.0997L297.156 68.9803C298.099 68.7446 299 68.4247 299.71 67.9457C300.438 67.4543 301.231 66.5924 301.231 65.312H297.231ZM294.951 66.0196C293.228 68.9247 292.431 72.46 292.431 76.512H296.431C296.431 72.9693 297.128 70.19 298.391 68.0604L294.951 66.0196ZM319.411 62.432L319.575 60.4387L319.493 60.432H319.411V62.432ZM324.851 67.744H322.851V67.8969L322.874 68.0481L324.851 67.744ZM324.979 68.576L326.979 68.6016L326.981 68.4358L326.956 68.2719L324.979 68.576ZM324.851 78.56L322.851 78.5344L322.851 78.5472V78.56H324.851ZM326.835 83.232H328.835V82.621L328.494 82.1143L326.835 83.232ZM326.835 83.36L328.763 83.8919L328.835 83.6308V83.36H326.835ZM324.979 85.216L324.206 87.0604L324.577 87.216H324.979V85.216ZM321.011 77.344H323.011V76.2736L322.12 75.6799L321.011 77.344ZM320.819 77.216L319.219 76.016L317.95 77.7074L319.71 78.8801L320.819 77.216ZM321.011 76.96L322.611 78.16L323.011 77.6267V76.96H321.011ZM321.011 76.832L319.011 76.7885L319.011 76.8103V76.832H321.011ZM321.203 68L323.203 68.0435L323.203 68.0217V68H321.203ZM318.835 66.144V64.144H318.45L318.092 64.287L318.835 66.144ZM311.603 82.4H309.603V82.4294L309.604 82.4588L311.603 82.4ZM313.779 63.584V65.584H314.073L314.354 65.4997L313.779 63.584ZM314.419 63.392L314.702 61.4121L314.266 61.3498L313.844 61.4763L314.419 63.392ZM315.763 63.584L315.48 65.5639L316.237 65.672L316.872 65.2481L315.763 63.584ZM319.247 64.4253C320.794 64.5527 321.639 64.9708 322.094 65.4149C322.515 65.8261 322.851 66.503 322.851 67.744H326.851C326.851 65.7423 326.281 63.9126 324.888 62.5531C323.53 61.2265 321.655 60.61 319.575 60.4387L319.247 64.4253ZM322.874 68.0481L323.002 68.8801L326.956 68.2719L326.828 67.4399L322.874 68.0481ZM322.979 68.5504L322.851 78.5344L326.851 78.5856L326.979 68.6016L322.979 68.5504ZM322.851 78.56C322.851 80.3524 323.823 82.3411 325.176 84.3497L328.494 82.1143C327.202 80.1976 326.851 79.0716 326.851 78.56H322.851ZM324.835 83.232V83.36H328.835V83.232H324.835ZM324.907 82.8281C324.851 83.0327 324.794 83.1687 324.751 83.2532C324.707 83.3368 324.685 83.3537 324.701 83.3378C324.721 83.3176 324.769 83.2786 324.843 83.2485C324.915 83.2188 324.968 83.216 324.979 83.216V87.216C325.943 87.216 326.835 86.8606 327.529 86.1662C328.171 85.524 328.54 84.6989 328.763 83.8919L324.907 82.8281ZM325.752 83.3716C324.811 82.9769 324.174 82.4022 323.745 81.642C323.3 80.8514 323.011 79.7337 323.011 78.176H319.011C319.011 80.2023 319.384 82.05 320.261 83.606C321.155 85.1925 322.502 86.3458 324.206 87.0604L325.752 83.3716ZM323.011 78.176V77.344H319.011V78.176H323.011ZM322.12 75.6799L321.928 75.5519L319.71 78.8801L319.902 79.0081L322.12 75.6799ZM322.419 78.416L322.611 78.16L319.411 75.76L319.219 76.016L322.419 78.416ZM323.011 76.96V76.832H319.011V76.96H323.011ZM323.011 76.8755L323.203 68.0435L319.203 67.9565L319.011 76.7885L323.011 76.8755ZM323.203 68C323.203 67.1398 323.024 66.1212 322.318 65.3021C321.563 64.4262 320.528 64.144 319.603 64.144V68.144C319.681 68.144 319.66 68.1558 319.582 68.1254C319.491 68.0904 319.38 68.0206 319.288 67.9139C319.202 67.8135 319.18 67.736 319.181 67.7404C319.184 67.7506 319.203 67.8278 319.203 68H323.203ZM319.603 64.144H318.835V68.144H319.603V64.144ZM318.092 64.287C317.008 64.7208 316.243 65.568 315.704 66.4977C315.167 67.4257 314.776 68.5669 314.485 69.8428C313.902 72.3955 313.635 75.8608 313.635 80.16H317.635C317.635 75.9686 317.901 72.8525 318.385 70.7332C318.627 69.6731 318.903 68.9557 319.166 68.5023C319.293 68.2818 319.402 68.1519 319.476 68.0796C319.513 68.0444 319.539 68.0244 319.555 68.0139C319.563 68.0086 319.569 68.0053 319.572 68.0035C319.576 68.0017 319.578 68.001 319.578 68.001L318.092 64.287ZM313.635 80.16C313.635 81.5277 313.451 82.2528 313.291 82.5672C313.226 82.6958 313.205 82.6757 313.277 82.6286C313.359 82.5742 313.424 82.576 313.395 82.576V86.576C314.112 86.576 314.831 86.3938 315.473 85.9714C316.105 85.5563 316.551 84.9842 316.859 84.3768C317.446 83.2192 317.635 81.7363 317.635 80.16H313.635ZM313.395 82.576C313.314 82.576 313.33 82.5632 313.401 82.5925C313.437 82.6073 313.479 82.6298 313.522 82.6616C313.565 82.6936 313.6 82.7282 313.627 82.7606C313.68 82.8256 313.677 82.8535 313.658 82.7877C313.637 82.7184 313.609 82.5778 313.602 82.3412L309.604 82.4588C309.632 83.3999 309.842 84.4563 310.539 85.3034C311.303 86.2308 312.37 86.576 313.395 86.576V82.576ZM313.603 82.4V76H309.603V82.4H313.603ZM313.603 76C313.603 71.8887 313.785 68.926 314.117 67.0333C314.286 66.0676 314.47 65.5331 314.597 65.2907C314.75 64.9997 314.545 65.584 313.779 65.584V61.584C312.288 61.584 311.448 62.6856 311.057 63.4293C310.64 64.2215 310.37 65.2391 310.177 66.3427C309.783 68.5887 309.603 71.834 309.603 76H313.603ZM314.354 65.4997L314.994 65.3076L313.844 61.4763L313.204 61.6683L314.354 65.4997ZM314.136 65.3719L315.48 65.5639L316.046 61.6041L314.702 61.4121L314.136 65.3719ZM316.872 65.2481C317.724 64.6804 318.558 64.432 319.411 64.432V60.432C317.704 60.432 316.106 60.9516 314.654 61.9199L316.872 65.2481ZM366.278 45.984L365.668 44.0791L364.634 44.4103L364.348 45.4585L366.278 45.984ZM367.878 45.472V43.472H367.566L367.268 43.5671L367.878 45.472ZM370.054 51.232H368.054V51.3656L368.072 51.498L370.054 51.232ZM372.038 66.016L370.056 66.282L370.146 66.9521L370.624 67.4302L372.038 66.016ZM372.294 66.272L370.88 67.6862L371.782 68.5883L372.98 68.1506L372.294 66.272ZM379.654 63.584V61.584H379.3L378.968 61.7054L379.654 63.584ZM381.254 65.824H383.254V65.7669L383.251 65.7099L381.254 65.824ZM373.126 69.856L372.567 67.9358L372.393 67.9864L372.232 68.0671L373.126 69.856ZM372.87 69.984L371.976 68.1951L370.87 68.7479V69.984H372.87ZM377.094 84.256H379.094V83.9314L378.991 83.6235L377.094 84.256ZM375.11 86.432V88.432H375.512L375.883 88.2764L375.11 86.432ZM372.678 82.016L374.661 81.7573L374.622 81.4561L374.495 81.1802L372.678 82.016ZM369.094 71.456L371.016 70.9043L370.601 69.456H369.094V71.456ZM368.838 71.456V69.456H368.634L368.434 69.4972L368.838 71.456ZM360.454 74.4L362.27 75.2381L362.454 74.8393V74.4H360.454ZM351.878 82.656H349.878V82.8033L349.9 82.9491L351.878 82.656ZM355.27 76.64L356.865 77.8473L356.997 77.6718L357.089 77.4715L355.27 76.64ZM356.294 74.4L358.113 75.2315L359.407 72.4H356.294V74.4ZM354.694 74.4V72.4H354.486L354.282 72.4429L354.694 74.4ZM353.478 74.656L353.005 76.5993L353.446 76.7066L353.89 76.6131L353.478 74.656ZM351.11 72.224L349.272 71.4362L349.11 71.8135V72.224H351.11ZM353.926 69.984L354.669 68.127L354.311 67.984H353.926V69.984ZM355.526 70.624L354.783 72.481L355.141 72.624H355.526V70.624ZM359.11 68L357.269 67.2177L357.11 67.5926V68H359.11ZM366.854 57.632V55.632H365.41L364.956 57.0027L366.854 57.632ZM363.078 69.024L361.18 68.3947L360.103 71.6422L363.461 70.987L363.078 69.024ZM368.326 67.04H370.326V66.9382L370.316 66.837L368.326 67.04ZM366.888 47.8888L368.488 47.3768L367.268 43.5671L365.668 44.0791L366.888 47.8888ZM367.878 47.472C367.753 47.472 367.6 47.414 367.507 47.3317C367.454 47.2852 367.528 47.325 367.639 47.6188C367.871 48.2339 368.054 49.3808 368.054 51.232H372.054C372.054 49.2432 371.874 47.5101 371.381 46.2052C371.129 45.539 370.75 44.8588 370.153 44.3323C369.516 43.77 368.728 43.472 367.878 43.472V47.472ZM368.072 51.498L370.056 66.282L374.02 65.75L372.036 50.966L368.072 51.498ZM370.624 67.4302L370.88 67.6862L373.708 64.8578L373.452 64.6018L370.624 67.4302ZM372.98 68.1506L380.34 65.4626L378.968 61.7054L371.608 64.3934L372.98 68.1506ZM379.654 65.584C379.642 65.584 379.549 65.5805 379.422 65.5179C379.29 65.4528 379.204 65.3645 379.163 65.3065C379.129 65.2592 379.147 65.2649 379.178 65.3764C379.209 65.4874 379.242 65.6682 379.257 65.9381L383.251 65.7099C383.199 64.8004 383.002 63.7999 382.417 62.9815C381.746 62.0411 380.738 61.584 379.654 61.584V65.584ZM379.254 65.824C379.254 65.2603 379.585 65.0531 379.404 65.2175C379.261 65.3466 378.938 65.5721 378.333 65.8723C377.139 66.4648 375.242 67.1564 372.567 67.9358L373.685 71.7762C376.429 70.9769 378.596 70.2072 380.111 69.4557C380.86 69.0839 381.554 68.6667 382.088 68.1825C382.584 67.7336 383.254 66.9424 383.254 65.824H379.254ZM372.232 68.0671L371.976 68.1951L373.764 71.7729L374.02 71.6449L372.232 68.0671ZM370.87 69.984V70.24H374.87V69.984H370.87ZM370.87 70.24C370.87 70.7585 371.033 71.4682 371.195 72.1103C371.382 72.8486 371.655 73.8132 372.011 74.9931C372.723 77.3569 373.787 80.6584 375.197 84.8885L378.991 83.6235C377.585 79.4056 376.537 76.1471 375.841 73.8389C375.493 72.6828 375.238 71.7834 375.073 71.1297C374.883 70.3798 374.87 70.1695 374.87 70.24H370.87ZM375.094 84.256V84.384H379.094V84.256H375.094ZM375.094 84.384C375.094 84.3056 375.112 84.2246 375.141 84.1581C375.168 84.0971 375.189 84.0838 375.162 84.1124C375.09 84.1866 374.863 84.3667 374.337 84.5876L375.883 88.2764C377.339 87.6661 379.094 86.502 379.094 84.384H375.094ZM375.11 84.432C375.228 84.432 375.352 84.4765 375.429 84.532C375.481 84.5692 375.431 84.5533 375.326 84.3632C375.1 83.9532 374.842 83.1419 374.661 81.7573L370.695 82.2747C370.898 83.8341 371.237 85.2308 371.822 86.2928C372.435 87.4065 373.506 88.432 375.11 88.432V84.432ZM374.495 81.1802C373.582 79.1944 372.421 75.7993 371.016 70.9043L367.172 72.0076C368.583 76.926 369.812 80.5709 370.861 82.8518L374.495 81.1802ZM369.094 69.456H368.838V73.456H369.094V69.456ZM368.434 69.4972C365.616 70.078 363.415 70.6327 361.887 71.169C361.137 71.4323 360.442 71.7277 359.898 72.0764C359.627 72.2505 359.307 72.4917 359.038 72.821C358.763 73.1567 358.454 73.6943 358.454 74.4H362.454C362.454 74.903 362.233 75.2327 362.132 75.355C362.038 75.471 361.98 75.4935 362.058 75.4436C362.212 75.3443 362.565 75.1703 363.213 74.943C364.48 74.498 366.47 73.986 369.242 73.4148L368.434 69.4972ZM358.638 73.5619C357.119 76.8534 355.828 79.2235 354.767 80.7425C354.233 81.5059 353.81 81.9772 353.505 82.238C353.167 82.5256 353.178 82.384 353.478 82.384V86.384C354.567 86.384 355.461 85.8264 356.099 85.282C356.77 84.7108 357.416 83.9341 358.045 83.0335C359.309 81.2245 360.717 78.6026 362.27 75.2381L358.638 73.5619ZM353.478 82.384C353.469 82.384 353.527 82.3829 353.622 82.421C353.722 82.4614 353.81 82.5249 353.874 82.5932C353.931 82.6556 353.94 82.6915 353.926 82.6574C353.911 82.6209 353.881 82.5299 353.856 82.3629L349.9 82.9491C350.017 83.7416 350.295 84.616 350.938 85.3108C351.639 86.0672 352.56 86.384 353.478 86.384V82.384ZM353.878 82.656C353.878 82.7118 353.91 82.3564 354.468 81.3663C354.971 80.4748 355.759 79.3074 356.865 77.8473L353.675 75.4327C352.52 76.9593 351.612 78.2878 350.984 79.4017C350.411 80.417 349.878 81.5762 349.878 82.656H353.878ZM357.089 77.4715L358.113 75.2315L354.475 73.5685L353.451 75.8085L357.089 77.4715ZM356.294 72.4H354.694V76.4H356.294V72.4ZM354.282 72.4429L353.066 72.6989L353.89 76.6131L355.106 76.3571L354.282 72.4429ZM353.951 72.7127C353.376 72.5728 353.177 72.4077 353.135 72.3648C353.126 72.3551 353.123 72.3507 353.123 72.3515C353.124 72.3525 353.125 72.3536 353.124 72.3527C353.124 72.3516 353.121 72.3431 353.117 72.3241C353.114 72.3048 353.11 72.2723 353.11 72.224H349.11C349.11 73.3104 349.475 74.3399 350.269 75.1552C351.017 75.9229 352.002 76.3552 353.005 76.5993L353.951 72.7127ZM352.948 73.0118C353.182 72.4663 353.404 72.2164 353.539 72.1092C353.643 72.0269 353.744 71.984 353.926 71.984V67.984C352.871 67.984 351.884 68.3145 351.049 68.9788C350.245 69.6182 349.678 70.4884 349.272 71.4362L352.948 73.0118ZM353.183 71.841L354.783 72.481L356.269 68.767L354.669 68.127L353.183 71.841ZM355.526 72.624C356.906 72.624 358.302 72.382 359.395 71.5817C360.605 70.6963 361.11 69.381 361.11 68H357.11C357.11 68.2112 357.074 68.3009 357.066 68.3193C357.063 68.3265 357.062 68.3325 357.033 68.3543C356.931 68.4286 356.536 68.624 355.526 68.624V72.624ZM360.951 68.7823C363.179 63.5384 365.597 56.0981 368.208 46.5095L364.348 45.4585C361.754 54.9845 359.393 62.2216 357.269 67.2177L360.951 68.7823ZM364.956 57.0027L361.18 68.3947L364.976 69.6533L368.752 58.2613L364.956 57.0027ZM363.461 70.987C365.241 70.6397 366.686 70.2783 367.721 69.8868C368.227 69.6955 368.755 69.4536 369.192 69.1287C369.567 68.8494 370.326 68.169 370.326 67.04H366.326C366.326 66.64 366.468 66.3364 366.588 66.159C366.699 65.9963 366.8 65.9227 366.804 65.9193C366.815 65.9114 366.786 65.9339 366.694 65.9801C366.604 66.0247 366.478 66.0805 366.307 66.1452C365.593 66.415 364.414 66.7256 362.695 67.061L363.461 70.987ZM370.316 66.837C369.995 63.6928 369.708 61.2975 369.454 59.6748C369.329 58.8739 369.203 58.2027 369.071 57.7071C369.009 57.474 368.921 57.1807 368.79 56.9092C368.728 56.7807 368.605 56.5466 368.393 56.3159C368.2 56.1064 367.683 55.632 366.854 55.632V59.632C366.067 59.632 365.594 59.1821 365.447 59.0216C365.28 58.8399 365.203 58.6793 365.188 58.6488C365.152 58.5733 365.163 58.574 365.205 58.7329C365.281 59.0213 365.382 59.5261 365.502 60.2932C365.739 61.8065 366.017 64.1152 366.336 67.243L370.316 66.837ZM419.759 43.616L419.632 41.62L419.618 41.6209L419.604 41.622L419.759 43.616ZM438.958 42.4V40.4H438.895L438.832 40.404L438.958 42.4ZM440.559 44H442.559V43.5449L442.362 43.1345L440.559 44ZM434.927 46.432V44.432H434.869L434.812 44.4353L434.927 46.432ZM423.727 47.072L423.612 45.0753L423.201 45.0988L422.832 45.2831L423.727 47.072ZM423.471 47.2L422.576 45.4111L421.273 46.0628L421.494 47.5032L423.471 47.2ZM425.071 86.816L427.058 87.0418L427.071 86.9293V86.816H425.071ZM421.103 87.072H419.103V87.1718L419.112 87.271L421.103 87.072ZM419.759 47.456L421.74 47.1875L421.482 45.2833L419.569 45.465L419.759 47.456ZM408.303 50.016L409.115 51.8436L410.303 51.3157V50.016H408.303ZM407.727 50.272L407.169 52.1927L407.871 52.3965L408.539 52.0996L407.727 50.272ZM419.885 45.612L439.085 44.396L438.832 40.404L419.632 41.62L419.885 45.612ZM438.958 44.4C438.765 44.4 438.603 44.3509 438.49 44.2958C438.387 44.2451 438.346 44.2 438.36 44.2142C438.374 44.2282 438.422 44.2803 438.496 44.3939C438.569 44.5058 438.657 44.6599 438.755 44.8655L442.362 43.1345C442.057 42.4999 441.679 41.8763 441.189 41.3858C440.685 40.8825 439.934 40.4 438.958 40.4V44.4ZM438.559 44C438.559 44.0073 438.558 43.9836 438.572 43.9418C438.586 43.8988 438.607 43.8636 438.623 43.8419C438.653 43.8032 438.615 43.8767 438.358 43.9879C437.799 44.2291 436.721 44.432 434.927 44.432V48.432C436.887 48.432 438.625 48.2296 439.943 47.6601C440.625 47.366 441.291 46.9328 441.79 46.2861C442.31 45.6118 442.559 44.8213 442.559 44H438.559ZM434.812 44.4353L423.612 45.0753L423.841 49.0687L435.041 48.4287L434.812 44.4353ZM422.832 45.2831L422.576 45.4111L424.365 48.9889L424.621 48.8609L422.832 45.2831ZM421.494 47.5032C422.534 54.2852 423.071 67.3436 423.071 86.816H427.071C427.071 67.3764 426.541 54.0241 425.447 46.8968L421.494 47.5032ZM423.083 86.5902C423.041 86.9641 422.98 87.2422 422.917 87.4416C422.853 87.6424 422.797 87.7302 422.781 87.7517C422.772 87.7647 422.804 87.7185 422.888 87.6755C422.972 87.6323 423.032 87.632 423.023 87.632V91.632C424.244 91.632 425.302 91.0865 426.016 90.1043C426.65 89.2319 426.934 88.1311 427.058 87.0418L423.083 86.5902ZM423.023 87.632C423.006 87.632 423.065 87.6304 423.155 87.6745C423.248 87.7198 423.299 87.7765 423.311 87.792C423.315 87.7985 423.275 87.7467 423.225 87.5882C423.175 87.4303 423.125 87.198 423.093 86.873L419.112 87.271C419.214 88.2879 419.476 89.3466 420.111 90.192C420.826 91.1454 421.868 91.632 423.023 91.632V87.632ZM423.103 87.072V72.224H419.103V87.072H423.103ZM423.103 72.224C423.103 62.274 422.653 53.9212 421.74 47.1875L417.777 47.7245C418.656 54.2175 419.103 62.3767 419.103 72.224H423.103ZM419.569 45.465C415.73 45.8295 412.766 46.2333 410.73 46.6881C409.73 46.9118 408.837 47.1723 408.152 47.5013C407.814 47.6638 407.413 47.8957 407.071 48.2358C406.718 48.587 406.303 49.1877 406.303 50.016H410.303C410.303 50.5989 410.006 50.9583 409.892 51.0722C409.788 51.175 409.746 51.1735 409.885 51.1067C410.155 50.977 410.694 50.7949 411.603 50.5919C413.386 50.1933 416.149 49.8078 419.948 49.447L419.569 45.465ZM407.49 48.1884L406.914 48.4444L408.539 52.0996L409.115 51.8436L407.49 48.1884ZM408.284 48.3513C408.06 48.2862 407.906 48.2204 407.806 48.1664C407.706 48.113 407.674 48.0789 407.675 48.0804C407.68 48.0859 407.705 48.1154 407.725 48.1653C407.744 48.214 407.742 48.2408 407.742 48.224H403.742C403.742 49.2153 404.097 50.1359 404.802 50.8636C405.459 51.5422 406.314 51.9445 407.169 52.1927L408.284 48.3513ZM407.742 48.224C407.742 48.3975 407.625 48.3799 407.897 48.1542C408.205 47.8981 408.812 47.56 409.871 47.212C411.974 46.5206 415.285 45.9693 419.913 45.61L419.604 41.622C414.888 41.988 411.191 42.5674 408.622 43.412C407.345 43.832 406.2 44.3632 405.34 45.0778C404.444 45.8228 403.742 46.8772 403.742 48.224H407.742ZM435.234 50.656L435.646 48.6989L435.442 48.656H435.234V50.656ZM437.666 52.832L439.549 53.5047L439.666 53.1784V52.832H437.666ZM435.618 54.624L435.246 56.5891L435.43 56.624H435.618V54.624ZM433.25 52.256L431.393 51.5132L431.25 51.8708V52.256H433.25ZM439.394 61.472L441.378 61.7235L441.441 61.2289L441.264 60.7627L439.394 61.472ZM438.818 66.016L436.834 65.7645L436.818 65.8897V66.016H438.818ZM440.61 82.784L442.38 83.7155L442.716 83.0775L442.567 82.372L440.61 82.784ZM434.978 68.64H432.978V68.6941L432.981 68.7482L434.978 68.64ZM434.822 52.6131C435.455 52.7463 435.682 52.9087 435.724 52.9465C435.733 52.9545 435.708 52.9324 435.685 52.8803C435.662 52.8292 435.666 52.8033 435.666 52.832H439.666C439.666 51.7212 439.23 50.7161 438.392 49.9655C437.623 49.278 436.634 48.907 435.646 48.6989L434.822 52.6131ZM435.783 52.1593C435.714 52.3511 435.649 52.4805 435.597 52.5633C435.547 52.6449 435.516 52.6716 435.517 52.6708C435.521 52.6673 435.544 52.6494 435.583 52.6353C435.62 52.6216 435.637 52.624 435.618 52.624V56.624C436.553 56.624 437.431 56.3108 438.151 55.6812C438.831 55.086 439.265 54.3019 439.549 53.5047L435.783 52.1593ZM435.99 52.6589C435.43 52.5529 435.267 52.4046 435.256 52.3938C435.254 52.3914 435.256 52.3936 435.261 52.4001C435.265 52.4065 435.267 52.4112 435.267 52.4112C435.267 52.4108 435.263 52.4006 435.259 52.3768C435.254 52.3527 435.25 52.3133 435.25 52.256H431.25C431.25 53.342 431.602 54.3967 432.428 55.2222C433.206 56.0007 434.228 56.3965 435.246 56.5891L435.99 52.6589ZM435.107 52.9988C435.236 52.6762 435.335 52.6016 435.322 52.6128C435.311 52.621 435.287 52.6368 435.254 52.6481C435.222 52.6589 435.211 52.656 435.234 52.656V48.656C434.356 48.656 433.517 48.9293 432.81 49.4992C432.135 50.0438 431.691 50.7691 431.393 51.5132L435.107 52.9988ZM437.666 61.616C437.522 61.616 437.385 61.5807 437.276 61.5269C437.175 61.4773 437.135 61.4308 437.146 61.4428C437.159 61.4565 437.207 61.5133 437.279 61.6415C437.351 61.7681 437.434 61.9443 437.524 62.1813L441.264 60.7627C440.984 60.0237 440.609 59.2924 440.074 58.7172C439.504 58.1052 438.69 57.616 437.666 57.616V61.616ZM437.41 61.2205L436.834 65.7645L440.802 66.2675L441.378 61.7235L437.41 61.2205ZM436.818 66.016V69.024H440.818V66.016H436.818ZM436.818 69.024C436.818 72.7216 437.446 77.4618 438.653 83.196L442.567 82.372C441.385 76.7569 440.818 72.3237 440.818 69.024H436.818ZM438.84 81.8525C438.811 81.9084 438.789 81.9331 438.782 81.9405C438.776 81.9469 438.774 81.9482 438.77 81.9501C438.768 81.9516 438.683 82 438.434 82V86C439.209 86 439.999 85.8457 440.722 85.4419C441.457 85.0312 442.005 84.427 442.38 83.7155L438.84 81.8525ZM438.434 82C439.112 82 439.233 82.5107 438.974 82.054C438.756 81.6689 438.482 80.9343 438.209 79.721C437.671 77.329 437.251 73.6244 436.975 68.5318L432.981 68.7482C433.26 73.8956 433.693 77.871 434.307 80.599C434.61 81.9457 434.987 83.1311 435.494 84.026C435.96 84.8493 436.881 86 438.434 86V82ZM436.978 68.64V66.4H432.978V68.64H436.978ZM436.978 66.4C436.978 64.2121 437.203 62.822 437.509 62.0487C437.656 61.6788 437.774 61.5738 437.778 61.5705C437.778 61.5704 437.776 61.5717 437.773 61.574C437.77 61.5762 437.765 61.5793 437.759 61.5827C437.747 61.59 437.731 61.5973 437.714 61.6034C437.677 61.6169 437.656 61.616 437.666 61.616V57.616C436.757 57.616 435.907 57.917 435.202 58.5095C434.534 59.0716 434.092 59.8145 433.791 60.5753C433.201 62.0633 432.978 64.0653 432.978 66.4H436.978ZM444.928 61.6L443.002 61.0607L442.854 61.5883L442.996 62.1175L444.928 61.6ZM449.088 63.2L447.113 63.516L447.382 65.2H449.088V63.2ZM449.344 63.2V65.2H449.558L449.768 65.1544L449.344 63.2ZM452.288 62.56V60.56H452.073L451.863 60.6056L452.288 62.56ZM456.256 66.4L454.467 67.2944L455.019 68.4H456.256V66.4ZM456.512 66.4V68.4H457.608L458.198 67.4753L456.512 66.4ZM462.272 61.984L462.633 60.0169L462.454 59.984H462.272V61.984ZM468.544 70.176H466.544V70.2331L466.547 70.2901L468.544 70.176ZM468.672 72.416L470.67 72.505L470.674 72.4034L470.668 72.3019L468.672 72.416ZM468.096 85.344L466.097 85.255L466.096 85.2995V85.344H468.096ZM466.112 88.416V90.416H466.24L466.367 90.3996L466.112 88.416ZM464.128 83.744L462.132 83.6117L462.128 83.6778V83.744H464.128ZM464.896 72.16L466.891 72.2923L466.896 72.2262V72.16H464.896ZM457.728 74.144L455.807 73.5868L455.763 73.7373L455.743 73.8927L457.728 74.144ZM454.656 84.192L454.4 86.1756L456.656 86.4666V84.192H454.656ZM452.672 82.144L450.683 81.9304L450.672 82.0369V82.144H452.672ZM453.504 74.4L455.492 74.6136L455.506 74.4832L455.503 74.352L453.504 74.4ZM451.712 66.4V64.4H451.038L450.501 64.8077L451.712 66.4ZM450.112 74.592L452.111 74.6443L452.112 74.6181V74.592H450.112ZM449.856 84.384L451.781 84.9233L451.848 84.6843L451.855 84.4363L449.856 84.384ZM446.144 83.744L444.145 83.8118L444.149 83.9478L444.172 84.0819L446.144 83.744ZM445.888 76.192L443.891 76.0685L443.885 76.1641L443.889 76.2598L445.888 76.192ZM446.272 69.984L448.268 70.1075L448.276 69.9659L448.265 69.8245L446.272 69.984ZM446.853 62.1393C446.887 62.0197 446.918 61.9625 446.928 61.9457C446.937 61.9323 446.928 61.9505 446.895 61.976C446.88 61.9877 446.865 61.9971 446.851 62.004C446.838 62.0108 446.83 62.0132 446.831 62.0131C446.832 62.0127 446.874 62 446.976 62V58C446.102 58 445.2 58.2238 444.432 58.8239C443.671 59.4184 443.234 60.2316 443.002 61.0607L446.853 62.1393ZM446.976 62C446.891 62 446.776 61.9737 446.675 61.9132C446.588 61.8607 446.585 61.8263 446.634 61.9017C446.757 62.0882 446.96 62.5621 447.113 63.516L451.062 62.884C450.874 61.7046 450.554 60.5785 449.973 59.6983C449.335 58.7321 448.321 58 446.976 58V62ZM449.088 65.2H449.344V61.2H449.088V65.2ZM449.768 65.1544L452.712 64.5144L451.863 60.6056L448.919 61.2456L449.768 65.1544ZM452.288 64.56C452.292 64.56 452.491 64.5495 452.913 64.9572C453.347 65.3779 453.878 66.1171 454.467 67.2944L458.044 65.5056C457.353 64.1229 456.582 62.9421 455.694 62.0828C454.793 61.2105 453.649 60.56 452.288 60.56V64.56ZM456.256 68.4H456.512V64.4H456.256V68.4ZM458.198 67.4753C459.991 64.6635 461.39 63.984 462.272 63.984V59.984C459.228 59.984 456.787 62.2485 454.825 65.3247L458.198 67.4753ZM461.91 63.9511C463.633 64.2676 464.711 64.9398 465.387 65.8238C466.083 66.7325 466.544 68.1106 466.544 70.176H470.544C470.544 67.5481 469.958 65.2142 468.564 63.3922C467.15 61.5455 465.091 60.4684 462.633 60.0169L461.91 63.9511ZM466.547 70.2901L466.675 72.5301L470.668 72.3019L470.54 70.0619L466.547 70.2901ZM466.673 72.327L466.097 85.255L470.094 85.433L470.67 72.505L466.673 72.327ZM466.096 85.344V86.56H470.096V85.344H466.096ZM466.096 86.56C466.096 86.6204 466.086 86.605 466.11 86.5454C466.121 86.516 466.138 86.4822 466.162 86.4477C466.185 86.4132 466.21 86.3849 466.233 86.3635C466.28 86.32 466.297 86.3231 466.24 86.3457C466.18 86.3695 466.06 86.4061 465.856 86.4324L466.367 90.3996C467.257 90.2847 468.215 89.9868 468.966 89.2845C469.773 88.5296 470.096 87.5398 470.096 86.56H466.096ZM466.112 86.416C466.205 86.416 466.356 86.4548 466.478 86.5508C466.571 86.6237 466.541 86.6469 466.464 86.4663C466.293 86.0632 466.128 85.2206 466.128 83.744H462.128C462.128 85.3821 462.292 86.8755 462.783 88.0297C463.037 88.6278 463.42 89.235 464.009 89.6972C464.627 90.1826 465.357 90.416 466.112 90.416V86.416ZM466.123 83.8763L466.891 72.2923L462.9 72.0277L462.132 83.6117L466.123 83.8763ZM466.896 72.16C466.896 69.9334 466.644 67.9781 465.954 66.5093C465.596 65.7489 465.086 65.043 464.36 64.5286C463.616 64.001 462.765 63.76 461.888 63.76V67.76C462.012 67.76 462.039 67.7857 462.047 67.7914C462.073 67.8104 462.19 67.9045 462.333 68.2107C462.646 68.8753 462.896 70.12 462.896 72.16H466.896ZM461.888 63.76C460.763 63.76 459.961 64.4303 459.499 64.9392C459.003 65.4853 458.575 66.1956 458.192 66.967C457.418 68.5258 456.627 70.7578 455.807 73.5868L459.648 74.7012C460.449 71.9409 461.162 69.9808 461.775 68.745C462.086 68.1191 462.321 67.7814 462.46 67.6288C462.632 67.4391 462.436 67.76 461.888 67.76V63.76ZM455.743 73.8927C455.34 77.0805 454.979 79.4179 454.665 80.9392C454.505 81.7132 454.372 82.1971 454.278 82.4555C454.226 82.5976 454.223 82.5655 454.294 82.4619C454.331 82.4081 454.439 82.2593 454.637 82.1094C454.847 81.9511 455.227 81.744 455.744 81.744V85.744C456.876 85.744 457.466 84.9089 457.591 84.7261C457.8 84.4225 457.939 84.0904 458.033 83.8325C458.232 83.2909 458.411 82.5748 458.582 81.7488C458.929 80.0701 459.305 77.6075 459.712 74.3953L455.743 73.8927ZM455.744 81.744C455.303 81.744 454.715 81.7807 454.166 82.0066C453.872 82.1275 453.487 82.3443 453.169 82.7376C452.824 83.1634 452.656 83.6772 452.656 84.192H456.656C456.656 84.5574 456.532 84.9406 456.278 85.2544C456.05 85.5357 455.801 85.6592 455.689 85.7054C455.503 85.782 455.458 85.744 455.744 85.744V81.744ZM454.911 82.2084C454.723 82.1842 454.621 82.1493 454.578 82.1307C454.54 82.1143 454.562 82.1172 454.604 82.1604C454.649 82.2066 454.673 82.2553 454.682 82.2795C454.688 82.2962 454.672 82.2604 454.672 82.144H450.672C450.672 83.1208 450.952 84.1394 451.731 84.9436C452.482 85.7191 453.467 86.0552 454.4 86.1756L454.911 82.2084ZM454.66 82.3576L455.492 74.6136L451.515 74.1864L450.683 81.9304L454.66 82.3576ZM455.503 74.352C455.438 71.6575 455.27 69.5166 454.969 68.0078C454.821 67.2716 454.614 66.5348 454.282 65.9335C453.979 65.3831 453.245 64.4 451.904 64.4V68.4C451.031 68.4 450.716 67.7502 450.781 67.8665C450.817 67.9319 450.927 68.195 451.046 68.7922C451.278 69.9501 451.441 71.8092 451.504 74.448L455.503 74.352ZM451.904 64.4H451.712V68.4H451.904V64.4ZM450.501 64.8077C448.655 66.2107 448.112 68.6549 448.112 71.2H452.112C452.112 68.9665 452.634 68.2106 452.922 67.9923L450.501 64.8077ZM448.112 71.2V74.592H452.112V71.2H448.112ZM448.112 74.5397L447.856 84.3317L451.855 84.4363L452.111 74.6443L448.112 74.5397ZM447.93 83.8447C447.894 83.9706 447.861 84.0335 447.849 84.055C447.838 84.0732 447.845 84.0552 447.88 84.0272C447.896 84.0141 447.914 84.0026 447.931 83.9933C447.949 83.984 447.962 83.9792 447.968 83.9772C447.981 83.9732 447.955 83.984 447.872 83.984V87.984C448.743 87.984 449.636 87.7499 450.391 87.1408C451.131 86.5438 451.554 85.7362 451.781 84.9233L447.93 83.8447ZM447.872 83.984C447.934 83.984 448.044 83.9995 448.164 84.0603C448.281 84.1195 448.339 84.1872 448.351 84.2024C448.358 84.2111 448.322 84.1668 448.27 84.0276C448.219 83.8899 448.163 83.688 448.115 83.4061L444.172 84.0819C444.325 84.9758 444.611 85.9027 445.184 86.6456C445.828 87.4799 446.767 87.984 447.872 87.984V83.984ZM448.142 83.6762L447.886 76.1242L443.889 76.2598L444.145 83.8118L448.142 83.6762ZM447.884 76.3155L448.268 70.1075L444.275 69.8605L443.891 76.0685L447.884 76.3155ZM448.265 69.8245C448.002 66.5371 447.538 63.6177 446.859 61.0825L442.996 62.1175C443.597 64.361 444.029 67.0309 444.278 70.1435L448.265 69.8245ZM477.976 61.024L478.026 59.0246L478.001 59.024H477.976V61.024ZM486.616 69.984L488.602 69.7503L488.545 69.2617L488.267 68.8555L486.616 69.984ZM486.744 71.072H488.744V70.9548L488.73 70.8383L486.744 71.072ZM477.976 73.824L477.758 71.8359L477.059 71.9124L476.562 72.4098L477.976 73.824ZM477.784 74.016L476.37 72.6018L475.784 73.1876V74.016H477.784ZM477.784 74.272H475.784V74.5022L475.836 74.7265L477.784 74.272ZM487.576 75.616V73.616H486.712L486.12 74.2446L487.576 75.616ZM489.944 77.472H491.944V77.1054L491.814 76.7627L489.944 77.472ZM484.568 82.784L485.585 84.5059L485.653 84.4658L485.718 84.4206L484.568 82.784ZM481.176 84V86H481.368L481.556 85.9636L481.176 84ZM473.944 74.272L475.901 73.86L475.615 72.5033L474.245 72.2948L473.944 74.272ZM473.176 69.984H475.176V67.5303L472.773 68.0251L473.176 69.984ZM473.176 70.24H471.176V73.1941L473.919 72.097L473.176 70.24ZM473.816 69.984L474.559 71.841L475.816 71.3381V69.984H473.816ZM478.36 65.632L479.618 64.0775L479.068 63.632H478.36V65.632ZM477.784 65.632V63.632H475.989L475.796 65.417L477.784 65.632ZM477.528 68L475.54 67.785L475.528 67.8922V68H477.528ZM477.528 69.984H475.528V71.984H477.528V69.984ZM477.784 69.984V71.984H477.82L477.855 71.9827L477.784 69.984ZM481.368 69.216H483.368V68.6104L483.032 68.1066L481.368 69.216ZM477.926 63.0234C477.814 63.0206 477.94 62.9906 478.374 63.2769C478.78 63.5449 479.312 63.9956 479.976 64.6843C481.302 66.0595 482.963 68.1832 484.965 71.1125L488.267 68.8555C486.216 65.8542 484.41 63.5191 482.856 61.9077C482.08 61.1031 481.319 60.4284 480.578 59.9391C479.865 59.468 478.991 59.0488 478.026 59.0246L477.926 63.0234ZM484.63 70.2177L484.758 71.3057L488.73 70.8383L488.602 69.7503L484.63 70.2177ZM484.744 71.072C484.744 70.4509 485.145 70.2077 485.025 70.295C484.913 70.3753 484.601 70.5444 483.953 70.7478C482.682 71.1466 480.647 71.5196 477.758 71.8359L478.194 75.8121C481.151 75.4884 483.499 75.0827 485.151 74.5642C485.964 74.3089 486.748 73.9847 487.367 73.537C487.977 73.0963 488.744 72.2904 488.744 71.072H484.744ZM476.562 72.4098L476.37 72.6018L479.198 75.4302L479.39 75.2382L476.562 72.4098ZM475.784 74.016V74.272H479.784V74.016H475.784ZM475.836 74.7265C476.295 76.6921 476.794 78.3062 477.363 79.4704C477.646 80.0485 477.998 80.6268 478.458 81.0862C478.926 81.5547 479.648 82.032 480.6 82.032V78.032C480.816 78.032 480.995 78.0872 481.121 78.1492C481.18 78.1785 481.222 78.2068 481.248 78.2263C481.261 78.2361 481.271 78.2441 481.277 78.2494C481.283 78.2547 481.286 78.2577 481.286 78.2578C481.286 78.2578 481.284 78.2553 481.279 78.2497C481.274 78.2441 481.267 78.2358 481.258 78.2244C481.239 78.2012 481.214 78.1675 481.184 78.1212C481.122 78.027 481.045 77.8941 480.957 77.7136C480.587 76.9578 480.169 75.6919 479.732 73.8175L475.836 74.7265ZM480.6 82.032H481.368V78.032H480.6V82.032ZM481.368 82.032C482.694 82.032 483.981 81.3562 485.103 80.5577C486.289 79.7145 487.601 78.506 489.032 76.9874L486.12 74.2446C484.777 75.67 483.669 76.6695 482.785 77.2983C482.345 77.611 481.997 77.8057 481.736 77.9177C481.47 78.0319 481.358 78.032 481.368 78.032V82.032ZM487.576 77.616H487.96V73.616H487.576V77.616ZM487.96 77.616C487.925 77.616 487.869 77.6084 487.808 77.5835C487.749 77.5594 487.723 77.5345 487.73 77.5405C487.759 77.5675 487.902 77.7266 488.074 78.1813L491.814 76.7627C491.238 75.243 490.071 73.616 487.96 73.616V77.616ZM487.944 77.472C487.944 77.1756 488.058 77.0921 487.924 77.3004C487.81 77.4792 487.585 77.759 487.194 78.1453C486.415 78.9156 485.175 79.9134 483.418 81.1474L485.718 84.4206C487.545 83.1373 488.993 81.9911 490.006 80.9907C490.511 80.4917 490.958 79.9794 491.292 79.4596C491.606 78.9693 491.944 78.2804 491.944 77.472H487.944ZM483.551 81.0621C482.849 81.4766 481.945 81.8141 480.796 82.0364L481.556 85.9636C483.052 85.6739 484.409 85.2007 485.585 84.5059L483.551 81.0621ZM481.176 82C480.193 82 479.281 81.586 478.381 80.3748C477.424 79.0876 476.558 76.9789 475.901 73.86L471.987 74.684C472.696 78.0504 473.717 80.8057 475.171 82.7612C476.681 84.7927 478.703 86 481.176 86V82ZM474.245 72.2948C473.438 72.172 473.107 71.9783 473.01 71.8981C472.976 71.8706 472.988 71.8712 473.001 71.9002C473.013 71.927 473 71.9187 473 71.84H469C469 73.071 469.491 74.1798 470.462 74.9819C471.346 75.7124 472.487 76.0733 473.643 76.2492L474.245 72.2948ZM473 71.84C473 71.8697 472.993 71.9468 472.949 72.0404C472.906 72.1331 472.855 72.1827 472.842 72.1937C472.835 72.1995 472.875 72.1641 473.001 72.1109C473.127 72.0579 473.314 71.9976 473.579 71.9429L472.773 68.0251C471.883 68.2082 470.969 68.5335 470.246 69.1503C469.446 69.8328 469 70.7747 469 71.84H473ZM471.176 69.984V70.24H475.176V69.984H471.176ZM473.919 72.097L474.559 71.841L473.073 68.127L472.433 68.383L473.919 72.097ZM475.816 69.984V68.384H471.816V69.984H475.816ZM475.816 68.384C475.816 66.0535 476.157 64.6272 476.597 63.8481C476.943 63.2366 477.325 63.024 477.976 63.024V59.024C475.854 59.024 474.156 60.0381 473.115 61.8799C472.169 63.5541 471.816 65.8078 471.816 68.384H475.816ZM478.36 63.632H477.784V67.632H478.36V63.632ZM475.796 65.417L475.54 67.785L479.516 68.215L479.772 65.847L475.796 65.417ZM475.528 68V69.984H479.528V68H475.528ZM477.528 71.984H477.784V67.984H477.528V71.984ZM477.855 71.9827C479.079 71.939 480.117 71.8495 480.891 71.6836C481.261 71.6044 481.721 71.4779 482.136 71.2405C482.506 71.0293 483.368 70.4075 483.368 69.216H479.368C479.368 68.2378 480.081 67.808 480.152 67.7675C480.268 67.7008 480.281 67.7236 480.053 67.7724C479.632 67.8625 478.879 67.9436 477.713 67.9853L477.855 71.9827ZM483.032 68.1066C481.88 66.3787 480.746 64.99 479.618 64.0775L477.102 67.1865C477.766 67.7247 478.637 68.7253 479.704 70.3254L483.032 68.1066Z" fill="white" mask="url(#path-1-outside-1_40_154)"/>
<path d="M43.4153 33.6812C46.7341 25.3608 56.5582 21.7851 64.4488 26.0256L69.1978 28.5778C72.1504 30.1647 75.5495 30.7168 78.8526 30.146L83.7198 29.305C92.9024 27.7184 101.294 34.8005 101.274 44.1192L101.266 47.7929C101.258 51.3423 102.509 54.7794 104.796 57.4933L107.164 60.3023C113.17 67.4276 111.293 78.247 103.239 82.9341L98.9701 85.4184C96.0729 87.1044 93.8239 89.7122 92.5821 92.8257L90.5847 97.8334C87.2659 106.154 77.4418 109.73 69.5512 105.489L64.8022 102.937C61.8496 101.35 58.4505 100.798 55.1474 101.369L50.2802 102.21C41.0976 103.796 32.7057 96.7141 32.7263 87.3954L32.7344 83.7217C32.7422 80.1723 31.4912 76.7352 29.2038 74.0213L26.8361 71.2123C20.8304 64.087 22.7067 53.2676 30.7608 48.5805L35.0299 46.0962C37.9271 44.4102 40.1761 41.8024 41.4179 38.6889L43.4153 33.6812Z" fill="#4B9EFF"/>
<circle cx="55.6818" cy="58.385" r="10.812" fill="white"/>
<circle cx="50.8165" cy="56.2227" r="5.40602" fill="black"/>
<circle cx="55.6818" cy="58.385" r="10.812" fill="white"/>
<circle cx="52.4384" cy="57.3037" r="5.40602" fill="black"/>
<circle cx="49.7354" cy="54.6007" r="1.0812" fill="white"/>
<circle cx="77.3251" cy="64.3682" r="10.812" fill="white"/>
<circle cx="80.1043" cy="66.9028" r="5.40602" fill="black"/>
<circle cx="83.7099" cy="67.204" r="1.0812" fill="white"/>
</svg>
