<svg width="318" height="1080" viewBox="0 0 318 1080" fill="none" xmlns="http://www.w3.org/2000/svg">
<rect width="318" height="1080" fill="#4B9EFF"/>
<line x1="17" y1="23.8999" x2="52" y2="23.8999" stroke="white" stroke-width="5"/>
<line x1="17" y1="35.8999" x2="52" y2="35.8999" stroke="white" stroke-width="5"/>
<line x1="17" y1="47.8999" x2="52" y2="47.8999" stroke="white" stroke-width="5"/>
<ellipse cx="297" cy="22.7999" rx="2" ry="2.4" fill="white"/>
<ellipse cx="297" cy="32.4" rx="2" ry="2.4" fill="white"/>
<ellipse cx="297" cy="42.0001" rx="2" ry="2.4" fill="white"/>
<path d="M0 70.8H318V142.8H0V70.8Z" fill="#B7D8FF"/>
<mask id="path-9-inside-1_53_281" fill="white">
<path d="M0 142.8H318V214.8H0V142.8Z"/>
</mask>
<path d="M0 142.8H318V214.8H0V142.8Z" fill="white"/>
<path d="M318 213.8H0V215.8H318V213.8Z" fill="#B7D8FF" mask="url(#path-9-inside-1_53_281)"/>
<mask id="path-11-outside-2_53_281" maskUnits="userSpaceOnUse" x="25" y="98" width="76" height="24" fill="black">
<rect fill="white" x="25" y="98" width="76" height="24"/>
<path d="M41.4 98.35H43.4V120.95H41.4V98.35ZM37.6 107.55H41.95V109.25H37.6V107.55ZM36.275 98.85H38.225V119.8H36.275V98.85ZM25.325 101.075H27.4V114.125H25.325V101.075ZM25.325 113.3H26.775C29.1 113.3 31.7 113.15 34.65 112.575L34.875 114.375C31.8 114.975 29.2 115.1 26.775 115.1H25.325V113.3ZM61.3719 102.5H62.9469V103.225C62.9469 106.875 61.1219 110.15 57.8469 111.525L56.8219 109.975C59.6969 108.825 61.3719 106.1 61.3719 103.225V102.5ZM61.7719 102.5H63.3219V103.225C63.3219 105.925 65.0469 108.475 67.8969 109.575L66.9219 111.125C63.5969 109.825 61.7719 106.7 61.7719 103.225V102.5ZM57.2719 101.325H67.3469V103H57.2719V101.325ZM61.3719 98.6H63.3219V102.025H61.3719V98.6ZM73.7219 98.375H75.6969V112.225H73.7219V98.375ZM70.0719 104.375H74.3469V106.075H70.0719V104.375ZM68.9219 98.75H70.8719V112.075H68.9219V98.75ZM60.5469 113.425H75.6969V120.95H73.6469V115.1H60.5469V113.425ZM85.2199 100.775H86.9199V102.6C86.9199 106.75 84.4199 110.225 80.6199 111.6L79.5699 109.95C82.9699 108.75 85.2199 105.825 85.2199 102.6V100.775ZM85.5949 100.775H87.2949V102.575C87.2949 105.525 89.4449 108.175 92.7699 109.275L91.7699 110.9C87.9949 109.65 85.5949 106.425 85.5949 102.575V100.775ZM80.1949 100.025H92.2699V101.725H80.1949V100.025ZM95.1199 98.35H97.1949V111.975H95.1199V98.35ZM96.6199 104.075H100.545V105.825H96.6199V104.075ZM89.9949 112.575C94.5949 112.575 97.4199 114.1 97.4199 116.725C97.4199 119.375 94.5949 120.9 89.9949 120.9C85.3949 120.9 82.5699 119.375 82.5699 116.725C82.5699 114.1 85.3949 112.575 89.9949 112.575ZM89.9949 114.25C86.6449 114.25 84.5949 115.15 84.5949 116.725C84.5949 118.325 86.6449 119.275 89.9949 119.275C93.3449 119.275 95.3949 118.325 95.3949 116.725C95.3949 115.15 93.3449 114.25 89.9949 114.25Z"/>
</mask>
<path d="M41.4 98.35H43.4V120.95H41.4V98.35ZM37.6 107.55H41.95V109.25H37.6V107.55ZM36.275 98.85H38.225V119.8H36.275V98.85ZM25.325 101.075H27.4V114.125H25.325V101.075ZM25.325 113.3H26.775C29.1 113.3 31.7 113.15 34.65 112.575L34.875 114.375C31.8 114.975 29.2 115.1 26.775 115.1H25.325V113.3ZM61.3719 102.5H62.9469V103.225C62.9469 106.875 61.1219 110.15 57.8469 111.525L56.8219 109.975C59.6969 108.825 61.3719 106.1 61.3719 103.225V102.5ZM61.7719 102.5H63.3219V103.225C63.3219 105.925 65.0469 108.475 67.8969 109.575L66.9219 111.125C63.5969 109.825 61.7719 106.7 61.7719 103.225V102.5ZM57.2719 101.325H67.3469V103H57.2719V101.325ZM61.3719 98.6H63.3219V102.025H61.3719V98.6ZM73.7219 98.375H75.6969V112.225H73.7219V98.375ZM70.0719 104.375H74.3469V106.075H70.0719V104.375ZM68.9219 98.75H70.8719V112.075H68.9219V98.75ZM60.5469 113.425H75.6969V120.95H73.6469V115.1H60.5469V113.425ZM85.2199 100.775H86.9199V102.6C86.9199 106.75 84.4199 110.225 80.6199 111.6L79.5699 109.95C82.9699 108.75 85.2199 105.825 85.2199 102.6V100.775ZM85.5949 100.775H87.2949V102.575C87.2949 105.525 89.4449 108.175 92.7699 109.275L91.7699 110.9C87.9949 109.65 85.5949 106.425 85.5949 102.575V100.775ZM80.1949 100.025H92.2699V101.725H80.1949V100.025ZM95.1199 98.35H97.1949V111.975H95.1199V98.35ZM96.6199 104.075H100.545V105.825H96.6199V104.075ZM89.9949 112.575C94.5949 112.575 97.4199 114.1 97.4199 116.725C97.4199 119.375 94.5949 120.9 89.9949 120.9C85.3949 120.9 82.5699 119.375 82.5699 116.725C82.5699 114.1 85.3949 112.575 89.9949 112.575ZM89.9949 114.25C86.6449 114.25 84.5949 115.15 84.5949 116.725C84.5949 118.325 86.6449 119.275 89.9949 119.275C93.3449 119.275 95.3949 118.325 95.3949 116.725C95.3949 115.15 93.3449 114.25 89.9949 114.25Z" fill="#3D5775"/>
<path d="M41.4 98.35V98.15H41.2V98.35H41.4ZM43.4 98.35H43.6V98.15H43.4V98.35ZM43.4 120.95V121.15H43.6V120.95H43.4ZM41.4 120.95H41.2V121.15H41.4V120.95ZM37.6 107.55V107.35H37.4V107.55H37.6ZM41.95 107.55H42.15V107.35H41.95V107.55ZM41.95 109.25V109.45H42.15V109.25H41.95ZM37.6 109.25H37.4V109.45H37.6V109.25ZM36.275 98.85V98.65H36.075V98.85H36.275ZM38.225 98.85H38.425V98.65H38.225V98.85ZM38.225 119.8V120H38.425V119.8H38.225ZM36.275 119.8H36.075V120H36.275V119.8ZM25.325 101.075V100.875H25.125V101.075H25.325ZM27.4 101.075H27.6V100.875H27.4V101.075ZM27.4 114.125V114.325H27.6V114.125H27.4ZM25.325 114.125H25.125V114.325H25.325V114.125ZM25.325 113.3V113.1H25.125V113.3H25.325ZM34.65 112.575L34.8485 112.55L34.8219 112.338L34.6117 112.379L34.65 112.575ZM34.875 114.375L34.9133 114.571L35.0966 114.536L35.0735 114.35L34.875 114.375ZM25.325 115.1H25.125V115.3H25.325V115.1ZM41.4 98.55H43.4V98.15H41.4V98.55ZM43.2 98.35V120.95H43.6V98.35H43.2ZM43.4 120.75H41.4V121.15H43.4V120.75ZM41.6 120.95V98.35H41.2V120.95H41.6ZM37.6 107.75H41.95V107.35H37.6V107.75ZM41.75 107.55V109.25H42.15V107.55H41.75ZM41.95 109.05H37.6V109.45H41.95V109.05ZM37.8 109.25V107.55H37.4V109.25H37.8ZM36.275 99.05H38.225V98.65H36.275V99.05ZM38.025 98.85V119.8H38.425V98.85H38.025ZM38.225 119.6H36.275V120H38.225V119.6ZM36.475 119.8V98.85H36.075V119.8H36.475ZM25.325 101.275H27.4V100.875H25.325V101.275ZM27.2 101.075V114.125H27.6V101.075H27.2ZM27.4 113.925H25.325V114.325H27.4V113.925ZM25.525 114.125V101.075H25.125V114.125H25.525ZM25.325 113.5H26.775V113.1H25.325V113.5ZM26.775 113.5C29.1092 113.5 31.7225 113.349 34.6883 112.771L34.6117 112.379C31.6775 112.951 29.0908 113.1 26.775 113.1V113.5ZM34.4515 112.6L34.6765 114.4L35.0735 114.35L34.8485 112.55L34.4515 112.6ZM34.8367 114.179C31.7784 114.775 29.1921 114.9 26.775 114.9V115.3C29.2079 115.3 31.8216 115.175 34.9133 114.571L34.8367 114.179ZM26.775 114.9H25.325V115.3H26.775V114.9ZM25.525 115.1V113.3H25.125V115.1H25.525ZM61.3719 102.5V102.3H61.1719V102.5H61.3719ZM62.9469 102.5H63.1469V102.3H62.9469V102.5ZM57.8469 111.525L57.6801 111.635L57.7715 111.774L57.9243 111.709L57.8469 111.525ZM56.8219 109.975L56.7476 109.789L56.5196 109.88L56.6551 110.085L56.8219 109.975ZM61.7719 102.5V102.3H61.5719V102.5H61.7719ZM63.3219 102.5H63.5219V102.3H63.3219V102.5ZM67.8969 109.575L68.0662 109.681L68.1955 109.476L67.9689 109.388L67.8969 109.575ZM66.9219 111.125L66.849 111.311L67.0031 111.371L67.0912 111.231L66.9219 111.125ZM57.2719 101.325V101.125H57.0719V101.325H57.2719ZM67.3469 101.325H67.5469V101.125H67.3469V101.325ZM67.3469 103V103.2H67.5469V103H67.3469ZM57.2719 103H57.0719V103.2H57.2719V103ZM61.3719 98.6V98.4H61.1719V98.6H61.3719ZM63.3219 98.6H63.5219V98.4H63.3219V98.6ZM63.3219 102.025V102.225H63.5219V102.025H63.3219ZM61.3719 102.025H61.1719V102.225H61.3719V102.025ZM73.7219 98.375V98.175H73.5219V98.375H73.7219ZM75.6969 98.375H75.8969V98.175H75.6969V98.375ZM75.6969 112.225V112.425H75.8969V112.225H75.6969ZM73.7219 112.225H73.5219V112.425H73.7219V112.225ZM70.0719 104.375V104.175H69.8719V104.375H70.0719ZM74.3469 104.375H74.5469V104.175H74.3469V104.375ZM74.3469 106.075V106.275H74.5469V106.075H74.3469ZM70.0719 106.075H69.8719V106.275H70.0719V106.075ZM68.9219 98.75V98.55H68.7219V98.75H68.9219ZM70.8719 98.75H71.0719V98.55H70.8719V98.75ZM70.8719 112.075V112.275H71.0719V112.075H70.8719ZM68.9219 112.075H68.7219V112.275H68.9219V112.075ZM60.5469 113.425V113.225H60.3469V113.425H60.5469ZM75.6969 113.425H75.8969V113.225H75.6969V113.425ZM75.6969 120.95V121.15H75.8969V120.95H75.6969ZM73.6469 120.95H73.4469V121.15H73.6469V120.95ZM73.6469 115.1H73.8469V114.9H73.6469V115.1ZM60.5469 115.1H60.3469V115.3H60.5469V115.1ZM61.3719 102.7H62.9469V102.3H61.3719V102.7ZM62.7469 102.5V103.225H63.1469V102.5H62.7469ZM62.7469 103.225C62.7469 106.81 60.9567 110.002 57.7695 111.341L57.9243 111.709C61.2871 110.298 63.1469 106.94 63.1469 103.225H62.7469ZM58.0137 111.415L56.9887 109.865L56.6551 110.085L57.6801 111.635L58.0137 111.415ZM56.8962 110.161C59.8512 108.979 61.5719 106.177 61.5719 103.225H61.1719C61.1719 106.023 59.5426 108.671 56.7476 109.789L56.8962 110.161ZM61.5719 103.225V102.5H61.1719V103.225H61.5719ZM61.7719 102.7H63.3219V102.3H61.7719V102.7ZM63.1219 102.5V103.225H63.5219V102.5H63.1219ZM63.1219 103.225C63.1219 106.012 64.9022 108.634 67.8249 109.762L67.9689 109.388C65.1915 108.316 63.5219 105.838 63.5219 103.225H63.1219ZM67.7276 109.469L66.7526 111.019L67.0912 111.231L68.0662 109.681L67.7276 109.469ZM66.9947 110.939C63.7566 109.673 61.9719 106.629 61.9719 103.225H61.5719C61.5719 106.771 63.4371 109.977 66.849 111.311L66.9947 110.939ZM61.9719 103.225V102.5H61.5719V103.225H61.9719ZM57.2719 101.525H67.3469V101.125H57.2719V101.525ZM67.1469 101.325V103H67.5469V101.325H67.1469ZM67.3469 102.8H57.2719V103.2H67.3469V102.8ZM57.4719 103V101.325H57.0719V103H57.4719ZM61.3719 98.8H63.3219V98.4H61.3719V98.8ZM63.1219 98.6V102.025H63.5219V98.6H63.1219ZM63.3219 101.825H61.3719V102.225H63.3219V101.825ZM61.5719 102.025V98.6H61.1719V102.025H61.5719ZM73.7219 98.575H75.6969V98.175H73.7219V98.575ZM75.4969 98.375V112.225H75.8969V98.375H75.4969ZM75.6969 112.025H73.7219V112.425H75.6969V112.025ZM73.9219 112.225V98.375H73.5219V112.225H73.9219ZM70.0719 104.575H74.3469V104.175H70.0719V104.575ZM74.1469 104.375V106.075H74.5469V104.375H74.1469ZM74.3469 105.875H70.0719V106.275H74.3469V105.875ZM70.2719 106.075V104.375H69.8719V106.075H70.2719ZM68.9219 98.95H70.8719V98.55H68.9219V98.95ZM70.6719 98.75V112.075H71.0719V98.75H70.6719ZM70.8719 111.875H68.9219V112.275H70.8719V111.875ZM69.1219 112.075V98.75H68.7219V112.075H69.1219ZM60.5469 113.625H75.6969V113.225H60.5469V113.625ZM75.4969 113.425V120.95H75.8969V113.425H75.4969ZM75.6969 120.75H73.6469V121.15H75.6969V120.75ZM73.8469 120.95V115.1H73.4469V120.95H73.8469ZM73.6469 114.9H60.5469V115.3H73.6469V114.9ZM60.7469 115.1V113.425H60.3469V115.1H60.7469ZM85.2199 100.775V100.575H85.0199V100.775H85.2199ZM86.9199 100.775H87.1199V100.575H86.9199V100.775ZM80.6199 111.6L80.4512 111.707L80.5372 111.843L80.688 111.788L80.6199 111.6ZM79.5699 109.95L79.5034 109.761L79.2661 109.845L79.4012 110.057L79.5699 109.95ZM85.5949 100.775V100.575H85.3949V100.775H85.5949ZM87.2949 100.775H87.4949V100.575H87.2949V100.775ZM92.7699 109.275L92.9403 109.38L93.0727 109.165L92.8327 109.085L92.7699 109.275ZM91.7699 110.9L91.7071 111.09L91.8573 111.14L91.9403 111.005L91.7699 110.9ZM80.1949 100.025V99.825H79.9949V100.025H80.1949ZM92.2699 100.025H92.4699V99.825H92.2699V100.025ZM92.2699 101.725V101.925H92.4699V101.725H92.2699ZM80.1949 101.725H79.9949V101.925H80.1949V101.725ZM95.1199 98.35V98.15H94.9199V98.35H95.1199ZM97.1949 98.35H97.3949V98.15H97.1949V98.35ZM97.1949 111.975V112.175H97.3949V111.975H97.1949ZM95.1199 111.975H94.9199V112.175H95.1199V111.975ZM96.6199 104.075V103.875H96.4199V104.075H96.6199ZM100.545 104.075H100.745V103.875H100.545V104.075ZM100.545 105.825V106.025H100.745V105.825H100.545ZM96.6199 105.825H96.4199V106.025H96.6199V105.825ZM85.2199 100.975H86.9199V100.575H85.2199V100.975ZM86.7199 100.775V102.6H87.1199V100.775H86.7199ZM86.7199 102.6C86.7199 106.665 84.2735 110.065 80.5519 111.412L80.688 111.788C84.5664 110.385 87.1199 106.835 87.1199 102.6H86.7199ZM80.7887 111.493L79.7387 109.843L79.4012 110.057L80.4512 111.707L80.7887 111.493ZM79.6365 110.139C83.1039 108.915 85.4199 105.922 85.4199 102.6H85.0199C85.0199 105.728 82.836 108.585 79.5034 109.761L79.6365 110.139ZM85.4199 102.6V100.775H85.0199V102.6H85.4199ZM85.5949 100.975H87.2949V100.575H85.5949V100.975ZM87.0949 100.775V102.575H87.4949V100.775H87.0949ZM87.0949 102.575C87.0949 105.63 89.3192 108.344 92.7071 109.465L92.8327 109.085C89.5706 108.006 87.4949 105.42 87.4949 102.575H87.0949ZM92.5996 109.17L91.5996 110.795L91.9403 111.005L92.9403 109.38L92.5996 109.17ZM91.8328 110.71C88.1355 109.486 85.7949 106.334 85.7949 102.575H85.3949C85.3949 106.516 87.8543 109.814 91.7071 111.09L91.8328 110.71ZM85.7949 102.575V100.775H85.3949V102.575H85.7949ZM80.1949 100.225H92.2699V99.825H80.1949V100.225ZM92.0699 100.025V101.725H92.4699V100.025H92.0699ZM92.2699 101.525H80.1949V101.925H92.2699V101.525ZM80.3949 101.725V100.025H79.9949V101.725H80.3949ZM95.1199 98.55H97.1949V98.15H95.1199V98.55ZM96.9949 98.35V111.975H97.3949V98.35H96.9949ZM97.1949 111.775H95.1199V112.175H97.1949V111.775ZM95.3199 111.975V98.35H94.9199V111.975H95.3199ZM96.6199 104.275H100.545V103.875H96.6199V104.275ZM100.345 104.075V105.825H100.745V104.075H100.345ZM100.545 105.625H96.6199V106.025H100.545V105.625ZM96.8199 105.825V104.075H96.4199V105.825H96.8199ZM89.9949 112.775C92.2774 112.775 94.0955 113.154 95.3355 113.841C96.567 114.522 97.2199 115.5 97.2199 116.725H97.6199C97.6199 115.325 96.8603 114.228 95.5293 113.491C94.2068 112.758 92.3125 112.375 89.9949 112.375V112.775ZM97.2199 116.725C97.2199 117.963 96.5662 118.947 95.3352 119.631C94.0954 120.321 92.2774 120.7 89.9949 120.7V121.1C92.3124 121.1 94.207 120.717 95.5296 119.981C96.8612 119.241 97.6199 118.137 97.6199 116.725H97.2199ZM89.9949 120.7C87.7124 120.7 85.8945 120.321 84.6546 119.631C83.4237 118.947 82.7699 117.963 82.7699 116.725H82.3699C82.3699 118.137 83.1287 119.241 84.4602 119.981C85.7829 120.717 87.6774 121.1 89.9949 121.1V120.7ZM82.7699 116.725C82.7699 115.5 83.4228 114.522 84.6543 113.841C85.8943 113.154 87.7125 112.775 89.9949 112.775V112.375C87.6774 112.375 85.783 112.758 84.4605 113.491C83.1295 114.228 82.3699 115.325 82.3699 116.725H82.7699ZM89.9949 114.05C88.3066 114.05 86.9243 114.276 85.9561 114.715C84.985 115.155 84.3949 115.829 84.3949 116.725H84.7949C84.7949 116.046 85.2298 115.483 86.1212 115.079C87.0156 114.674 88.3332 114.45 89.9949 114.45V114.05ZM84.3949 116.725C84.3949 117.63 84.9816 118.324 85.9536 118.781C86.9223 119.236 88.3055 119.475 89.9949 119.475V119.075C88.3344 119.075 87.0175 118.839 86.1237 118.419C85.2332 118.001 84.7949 117.42 84.7949 116.725H84.3949ZM89.9949 119.475C91.6844 119.475 93.0675 119.236 94.0362 118.781C95.0082 118.324 95.5949 117.63 95.5949 116.725H95.1949C95.1949 117.42 94.7566 118.001 93.8661 118.419C92.9723 118.839 91.6555 119.075 89.9949 119.075V119.475ZM95.5949 116.725C95.5949 115.829 95.0048 115.155 94.0337 114.715C93.0656 114.276 91.6832 114.05 89.9949 114.05V114.45C91.6566 114.45 92.9743 114.674 93.8686 115.079C94.76 115.483 95.1949 116.046 95.1949 116.725H95.5949Z" fill="#3D5775" mask="url(#path-11-outside-2_53_281)"/>
<mask id="path-13-outside-3_53_281" maskUnits="userSpaceOnUse" x="61" y="167" width="134" height="24" fill="black">
<rect fill="white" x="61" y="167" width="134" height="24"/>
<path d="M66.975 169.475H68.6V173.775C68.6 178.5 66.6 183.075 63.3 185.075L61.975 183.525C65.1 181.7 66.975 177.65 66.975 173.775V169.475ZM67.35 169.475H68.975V173.65C68.975 177.375 70.725 181.2 73.725 182.875L72.475 184.5C69.175 182.6 67.35 178.2 67.35 173.65V169.475ZM79.45 167.35H81.45V189.95H79.45V167.35ZM75.875 176.425H80.2V178.15H75.875V176.425ZM74.475 167.825H76.45V188.825H74.475V167.825ZM99.3719 171.5H100.947V172.225C100.947 175.875 99.1219 179.15 95.8469 180.525L94.8219 178.975C97.6969 177.825 99.3719 175.1 99.3719 172.225V171.5ZM99.7719 171.5H101.322V172.225C101.322 174.925 103.047 177.475 105.897 178.575L104.922 180.125C101.597 178.825 99.7719 175.7 99.7719 172.225V171.5ZM95.2719 170.325H105.347V172H95.2719V170.325ZM99.3719 167.6H101.322V171.025H99.3719V167.6ZM111.722 167.375H113.697V181.225H111.722V167.375ZM108.072 173.375H112.347V175.075H108.072V173.375ZM106.922 167.75H108.872V181.075H106.922V167.75ZM98.5469 182.425H113.697V189.95H111.647V184.1H98.5469V182.425ZM123.22 169.775H124.92V171.6C124.92 175.75 122.42 179.225 118.62 180.6L117.57 178.95C120.97 177.75 123.22 174.825 123.22 171.6V169.775ZM123.595 169.775H125.295V171.575C125.295 174.525 127.445 177.175 130.77 178.275L129.77 179.9C125.995 178.65 123.595 175.425 123.595 171.575V169.775ZM118.195 169.025H130.27V170.725H118.195V169.025ZM133.12 167.35H135.195V180.975H133.12V167.35ZM134.62 173.075H138.545V174.825H134.62V173.075ZM127.995 181.575C132.595 181.575 135.42 183.1 135.42 185.725C135.42 188.375 132.595 189.9 127.995 189.9C123.395 189.9 120.57 188.375 120.57 185.725C120.57 183.1 123.395 181.575 127.995 181.575ZM127.995 183.25C124.645 183.25 122.595 184.15 122.595 185.725C122.595 187.325 124.645 188.275 127.995 188.275C131.345 188.275 133.395 187.325 133.395 185.725C133.395 184.15 131.345 183.25 127.995 183.25ZM159.267 181.725H161.317V189.975H159.267V181.725ZM150.092 181H170.517V182.725H150.092V181ZM159.242 171.225H161.067V171.8C161.067 175.7 156.842 178.575 152.092 179.3L151.367 177.65C155.442 177.1 159.242 174.625 159.242 171.8V171.225ZM159.517 171.225H161.317V171.8C161.317 174.6 165.142 177.1 169.192 177.65L168.442 179.3C163.717 178.6 159.517 175.65 159.517 171.8V171.225ZM152.067 170.125H168.542V171.825H152.067V170.125ZM159.267 167.35H161.317V170.725H159.267V167.35ZM188.365 167.325H190.465V189.95H188.365V167.325ZM189.89 176.5H194.065V178.225H189.89V176.5ZM182.59 169.775H184.615C184.615 176.2 181.665 182 174.365 185.675L173.215 184.075C179.465 180.9 182.59 176.075 182.59 170.1V169.775ZM174.265 169.775H183.665V171.475H174.265V169.775Z"/>
</mask>
<path d="M66.975 169.475H68.6V173.775C68.6 178.5 66.6 183.075 63.3 185.075L61.975 183.525C65.1 181.7 66.975 177.65 66.975 173.775V169.475ZM67.35 169.475H68.975V173.65C68.975 177.375 70.725 181.2 73.725 182.875L72.475 184.5C69.175 182.6 67.35 178.2 67.35 173.65V169.475ZM79.45 167.35H81.45V189.95H79.45V167.35ZM75.875 176.425H80.2V178.15H75.875V176.425ZM74.475 167.825H76.45V188.825H74.475V167.825ZM99.3719 171.5H100.947V172.225C100.947 175.875 99.1219 179.15 95.8469 180.525L94.8219 178.975C97.6969 177.825 99.3719 175.1 99.3719 172.225V171.5ZM99.7719 171.5H101.322V172.225C101.322 174.925 103.047 177.475 105.897 178.575L104.922 180.125C101.597 178.825 99.7719 175.7 99.7719 172.225V171.5ZM95.2719 170.325H105.347V172H95.2719V170.325ZM99.3719 167.6H101.322V171.025H99.3719V167.6ZM111.722 167.375H113.697V181.225H111.722V167.375ZM108.072 173.375H112.347V175.075H108.072V173.375ZM106.922 167.75H108.872V181.075H106.922V167.75ZM98.5469 182.425H113.697V189.95H111.647V184.1H98.5469V182.425ZM123.22 169.775H124.92V171.6C124.92 175.75 122.42 179.225 118.62 180.6L117.57 178.95C120.97 177.75 123.22 174.825 123.22 171.6V169.775ZM123.595 169.775H125.295V171.575C125.295 174.525 127.445 177.175 130.77 178.275L129.77 179.9C125.995 178.65 123.595 175.425 123.595 171.575V169.775ZM118.195 169.025H130.27V170.725H118.195V169.025ZM133.12 167.35H135.195V180.975H133.12V167.35ZM134.62 173.075H138.545V174.825H134.62V173.075ZM127.995 181.575C132.595 181.575 135.42 183.1 135.42 185.725C135.42 188.375 132.595 189.9 127.995 189.9C123.395 189.9 120.57 188.375 120.57 185.725C120.57 183.1 123.395 181.575 127.995 181.575ZM127.995 183.25C124.645 183.25 122.595 184.15 122.595 185.725C122.595 187.325 124.645 188.275 127.995 188.275C131.345 188.275 133.395 187.325 133.395 185.725C133.395 184.15 131.345 183.25 127.995 183.25ZM159.267 181.725H161.317V189.975H159.267V181.725ZM150.092 181H170.517V182.725H150.092V181ZM159.242 171.225H161.067V171.8C161.067 175.7 156.842 178.575 152.092 179.3L151.367 177.65C155.442 177.1 159.242 174.625 159.242 171.8V171.225ZM159.517 171.225H161.317V171.8C161.317 174.6 165.142 177.1 169.192 177.65L168.442 179.3C163.717 178.6 159.517 175.65 159.517 171.8V171.225ZM152.067 170.125H168.542V171.825H152.067V170.125ZM159.267 167.35H161.317V170.725H159.267V167.35ZM188.365 167.325H190.465V189.95H188.365V167.325ZM189.89 176.5H194.065V178.225H189.89V176.5ZM182.59 169.775H184.615C184.615 176.2 181.665 182 174.365 185.675L173.215 184.075C179.465 180.9 182.59 176.075 182.59 170.1V169.775ZM174.265 169.775H183.665V171.475H174.265V169.775Z" fill="#4B9EFF"/>
<path d="M66.975 169.475V169.175H66.675V169.475H66.975ZM68.6 169.475H68.9V169.175H68.6V169.475ZM63.3 185.075L63.072 185.27L63.2376 185.464L63.4555 185.332L63.3 185.075ZM61.975 183.525L61.8237 183.266L61.5137 183.447L61.747 183.72L61.975 183.525ZM67.35 169.475V169.175H67.05V169.475H67.35ZM68.975 169.475H69.275V169.175H68.975V169.475ZM73.725 182.875L73.9628 183.058L74.1747 182.782L73.8712 182.613L73.725 182.875ZM72.475 184.5L72.3253 184.76L72.5528 184.891L72.7128 184.683L72.475 184.5ZM79.45 167.35V167.05H79.15V167.35H79.45ZM81.45 167.35H81.75V167.05H81.45V167.35ZM81.45 189.95V190.25H81.75V189.95H81.45ZM79.45 189.95H79.15V190.25H79.45V189.95ZM75.875 176.425V176.125H75.575V176.425H75.875ZM80.2 176.425H80.5V176.125H80.2V176.425ZM80.2 178.15V178.45H80.5V178.15H80.2ZM75.875 178.15H75.575V178.45H75.875V178.15ZM74.475 167.825V167.525H74.175V167.825H74.475ZM76.45 167.825H76.75V167.525H76.45V167.825ZM76.45 188.825V189.125H76.75V188.825H76.45ZM74.475 188.825H74.175V189.125H74.475V188.825ZM66.975 169.775H68.6V169.175H66.975V169.775ZM68.3 169.475V173.775H68.9V169.475H68.3ZM68.3 173.775C68.3 178.435 66.325 182.891 63.1445 184.818L63.4555 185.332C66.875 183.259 68.9 178.565 68.9 173.775H68.3ZM63.528 184.88L62.203 183.33L61.747 183.72L63.072 185.27L63.528 184.88ZM62.1263 183.784C65.3656 181.892 67.275 177.728 67.275 173.775H66.675C66.675 177.572 64.8344 181.508 61.8237 183.266L62.1263 183.784ZM67.275 173.775V169.475H66.675V173.775H67.275ZM67.35 169.775H68.975V169.175H67.35V169.775ZM68.675 169.475V173.65H69.275V169.475H68.675ZM68.675 173.65C68.675 177.45 70.4577 181.394 73.5788 183.137L73.8712 182.613C70.9923 181.006 69.275 177.3 69.275 173.65H68.675ZM73.4872 182.692L72.2372 184.317L72.7128 184.683L73.9628 183.058L73.4872 182.692ZM72.6247 184.24C69.4531 182.414 67.65 178.141 67.65 173.65H67.05C67.05 178.259 68.8969 182.786 72.3253 184.76L72.6247 184.24ZM67.65 173.65V169.475H67.05V173.65H67.65ZM79.45 167.65H81.45V167.05H79.45V167.65ZM81.15 167.35V189.95H81.75V167.35H81.15ZM81.45 189.65H79.45V190.25H81.45V189.65ZM79.75 189.95V167.35H79.15V189.95H79.75ZM75.875 176.725H80.2V176.125H75.875V176.725ZM79.9 176.425V178.15H80.5V176.425H79.9ZM80.2 177.85H75.875V178.45H80.2V177.85ZM76.175 178.15V176.425H75.575V178.15H76.175ZM74.475 168.125H76.45V167.525H74.475V168.125ZM76.15 167.825V188.825H76.75V167.825H76.15ZM76.45 188.525H74.475V189.125H76.45V188.525ZM74.775 188.825V167.825H74.175V188.825H74.775ZM99.3719 171.5V171.2H99.0719V171.5H99.3719ZM100.947 171.5H101.247V171.2H100.947V171.5ZM95.8469 180.525L95.5966 180.69L95.7338 180.898L95.963 180.802L95.8469 180.525ZM94.8219 178.975L94.7105 178.696L94.3685 178.833L94.5716 179.14L94.8219 178.975ZM99.7719 171.5V171.2H99.4719V171.5H99.7719ZM101.322 171.5H101.622V171.2H101.322V171.5ZM105.897 178.575L106.151 178.735L106.345 178.426L106.005 178.295L105.897 178.575ZM104.922 180.125L104.813 180.404L105.044 180.495L105.176 180.285L104.922 180.125ZM95.2719 170.325V170.025H94.9719V170.325H95.2719ZM105.347 170.325H105.647V170.025H105.347V170.325ZM105.347 172V172.3H105.647V172H105.347ZM95.2719 172H94.9719V172.3H95.2719V172ZM99.3719 167.6V167.3H99.0719V167.6H99.3719ZM101.322 167.6H101.622V167.3H101.322V167.6ZM101.322 171.025V171.325H101.622V171.025H101.322ZM99.3719 171.025H99.0719V171.325H99.3719V171.025ZM111.722 167.375V167.075H111.422V167.375H111.722ZM113.697 167.375H113.997V167.075H113.697V167.375ZM113.697 181.225V181.525H113.997V181.225H113.697ZM111.722 181.225H111.422V181.525H111.722V181.225ZM108.072 173.375V173.075H107.772V173.375H108.072ZM112.347 173.375H112.647V173.075H112.347V173.375ZM112.347 175.075V175.375H112.647V175.075H112.347ZM108.072 175.075H107.772V175.375H108.072V175.075ZM106.922 167.75V167.45H106.622V167.75H106.922ZM108.872 167.75H109.172V167.45H108.872V167.75ZM108.872 181.075V181.375H109.172V181.075H108.872ZM106.922 181.075H106.622V181.375H106.922V181.075ZM98.5469 182.425V182.125H98.2469V182.425H98.5469ZM113.697 182.425H113.997V182.125H113.697V182.425ZM113.697 189.95V190.25H113.997V189.95H113.697ZM111.647 189.95H111.347V190.25H111.647V189.95ZM111.647 184.1H111.947V183.8H111.647V184.1ZM98.5469 184.1H98.2469V184.4H98.5469V184.1ZM99.3719 171.8H100.947V171.2H99.3719V171.8ZM100.647 171.5V172.225H101.247V171.5H100.647ZM100.647 172.225C100.647 175.778 98.8741 178.929 95.7307 180.248L95.963 180.802C99.3697 179.371 101.247 175.972 101.247 172.225H100.647ZM96.0971 180.36L95.0721 178.81L94.5716 179.14L95.5966 180.69L96.0971 180.36ZM94.9333 179.254C97.9283 178.056 99.6719 175.216 99.6719 172.225H99.0719C99.0719 174.984 97.4654 177.594 94.7105 178.696L94.9333 179.254ZM99.6719 172.225V171.5H99.0719V172.225H99.6719ZM99.7719 171.8H101.322V171.2H99.7719V171.8ZM101.022 171.5V172.225H101.622V171.5H101.022ZM101.022 172.225C101.022 175.056 102.83 177.713 105.789 178.855L106.005 178.295C103.264 177.237 101.622 174.794 101.622 172.225H101.022ZM105.643 178.415L104.668 179.965L105.176 180.285L106.151 178.735L105.643 178.415ZM105.031 179.846C101.837 178.597 100.072 175.594 100.072 172.225H99.4719C99.4719 175.806 101.357 179.053 104.813 180.404L105.031 179.846ZM100.072 172.225V171.5H99.4719V172.225H100.072ZM95.2719 170.625H105.347V170.025H95.2719V170.625ZM105.047 170.325V172H105.647V170.325H105.047ZM105.347 171.7H95.2719V172.3H105.347V171.7ZM95.5719 172V170.325H94.9719V172H95.5719ZM99.3719 167.9H101.322V167.3H99.3719V167.9ZM101.022 167.6V171.025H101.622V167.6H101.022ZM101.322 170.725H99.3719V171.325H101.322V170.725ZM99.6719 171.025V167.6H99.0719V171.025H99.6719ZM111.722 167.675H113.697V167.075H111.722V167.675ZM113.397 167.375V181.225H113.997V167.375H113.397ZM113.697 180.925H111.722V181.525H113.697V180.925ZM112.022 181.225V167.375H111.422V181.225H112.022ZM108.072 173.675H112.347V173.075H108.072V173.675ZM112.047 173.375V175.075H112.647V173.375H112.047ZM112.347 174.775H108.072V175.375H112.347V174.775ZM108.372 175.075V173.375H107.772V175.075H108.372ZM106.922 168.05H108.872V167.45H106.922V168.05ZM108.572 167.75V181.075H109.172V167.75H108.572ZM108.872 180.775H106.922V181.375H108.872V180.775ZM107.222 181.075V167.75H106.622V181.075H107.222ZM98.5469 182.725H113.697V182.125H98.5469V182.725ZM113.397 182.425V189.95H113.997V182.425H113.397ZM113.697 189.65H111.647V190.25H113.697V189.65ZM111.947 189.95V184.1H111.347V189.95H111.947ZM111.647 183.8H98.5469V184.4H111.647V183.8ZM98.8469 184.1V182.425H98.2469V184.1H98.8469ZM123.22 169.775V169.475H122.92V169.775H123.22ZM124.92 169.775H125.22V169.475H124.92V169.775ZM118.62 180.6L118.367 180.761L118.496 180.964L118.722 180.882L118.62 180.6ZM117.57 178.95L117.47 178.667L117.114 178.793L117.317 179.111L117.57 178.95ZM123.595 169.775V169.475H123.295V169.775H123.595ZM125.295 169.775H125.595V169.475H125.295V169.775ZM130.77 178.275L131.025 178.432L131.224 178.109L130.864 177.99L130.77 178.275ZM129.77 179.9L129.676 180.185L129.901 180.259L130.025 180.057L129.77 179.9ZM118.195 169.025V168.725H117.895V169.025H118.195ZM130.27 169.025H130.57V168.725H130.27V169.025ZM130.27 170.725V171.025H130.57V170.725H130.27ZM118.195 170.725H117.895V171.025H118.195V170.725ZM133.12 167.35V167.05H132.82V167.35H133.12ZM135.195 167.35H135.495V167.05H135.195V167.35ZM135.195 180.975V181.275H135.495V180.975H135.195ZM133.12 180.975H132.82V181.275H133.12V180.975ZM134.62 173.075V172.775H134.32V173.075H134.62ZM138.545 173.075H138.845V172.775H138.545V173.075ZM138.545 174.825V175.125H138.845V174.825H138.545ZM134.62 174.825H134.32V175.125H134.62V174.825ZM123.22 170.075H124.92V169.475H123.22V170.075ZM124.62 169.775V171.6H125.22V169.775H124.62ZM124.62 171.6C124.62 175.622 122.2 178.985 118.518 180.318L118.722 180.882C122.64 179.465 125.22 175.878 125.22 171.6H124.62ZM118.873 180.439L117.823 178.789L117.317 179.111L118.367 180.761L118.873 180.439ZM117.67 179.233C121.171 177.997 123.52 174.971 123.52 171.6H122.92C122.92 174.679 120.769 177.503 117.47 178.667L117.67 179.233ZM123.52 171.6V169.775H122.92V171.6H123.52ZM123.595 170.075H125.295V169.475H123.595V170.075ZM124.995 169.775V171.575H125.595V169.775H124.995ZM124.995 171.575C124.995 174.682 127.256 177.429 130.676 178.56L130.864 177.99C127.633 176.921 125.595 174.368 125.595 171.575H124.995ZM130.514 178.118L129.514 179.743L130.025 180.057L131.025 178.432L130.514 178.118ZM129.864 179.615C126.206 178.404 123.895 175.289 123.895 171.575H123.295C123.295 175.561 125.784 178.896 129.676 180.185L129.864 179.615ZM123.895 171.575V169.775H123.295V171.575H123.895ZM118.195 169.325H130.27V168.725H118.195V169.325ZM129.97 169.025V170.725H130.57V169.025H129.97ZM130.27 170.425H118.195V171.025H130.27V170.425ZM118.495 170.725V169.025H117.895V170.725H118.495ZM133.12 167.65H135.195V167.05H133.12V167.65ZM134.895 167.35V180.975H135.495V167.35H134.895ZM135.195 180.675H133.12V181.275H135.195V180.675ZM133.42 180.975V167.35H132.82V180.975H133.42ZM134.62 173.375H138.545V172.775H134.62V173.375ZM138.245 173.075V174.825H138.845V173.075H138.245ZM138.545 174.525H134.62V175.125H138.545V174.525ZM134.92 174.825V173.075H134.32V174.825H134.92ZM127.995 181.875C130.269 181.875 132.068 182.253 133.287 182.928C134.494 183.596 135.12 184.543 135.12 185.725H135.72C135.72 184.282 134.934 183.154 133.578 182.403C132.235 181.66 130.321 181.275 127.995 181.275V181.875ZM135.12 185.725C135.12 186.92 134.492 187.874 133.287 188.544C132.067 189.222 130.269 189.6 127.995 189.6V190.2C130.321 190.2 132.235 189.815 133.578 189.068C134.935 188.314 135.72 187.18 135.72 185.725H135.12ZM127.995 189.6C125.721 189.6 123.922 189.222 122.703 188.544C121.497 187.874 120.87 186.92 120.87 185.725H120.27C120.27 187.18 121.055 188.314 122.412 189.068C123.755 189.815 125.669 190.2 127.995 190.2V189.6ZM120.87 185.725C120.87 184.543 121.496 183.596 122.703 182.928C123.922 182.253 125.721 181.875 127.995 181.875V181.275C125.669 181.275 123.755 181.66 122.412 182.403C121.056 183.154 120.27 184.282 120.27 185.725H120.87ZM127.995 182.95C126.3 182.95 124.901 183.177 123.915 183.624C122.924 184.073 122.295 184.775 122.295 185.725H122.895C122.895 185.1 123.291 184.565 124.162 184.17C125.038 183.773 126.34 183.55 127.995 183.55V182.95ZM122.295 185.725C122.295 186.683 122.919 187.405 123.911 187.872C124.899 188.335 126.298 188.575 127.995 188.575V187.975C126.342 187.975 125.041 187.74 124.166 187.328C123.296 186.92 122.895 186.367 122.895 185.725H122.295ZM127.995 188.575C129.692 188.575 131.091 188.335 132.079 187.872C133.071 187.405 133.695 186.683 133.695 185.725H133.095C133.095 186.367 132.694 186.92 131.824 187.328C130.949 187.74 129.648 187.975 127.995 187.975V188.575ZM133.695 185.725C133.695 184.775 133.066 184.073 132.075 183.624C131.088 183.177 129.69 182.95 127.995 182.95V183.55C129.65 183.55 130.951 183.773 131.827 184.17C132.699 184.565 133.095 185.1 133.095 185.725H133.695ZM159.267 181.725V181.425H158.967V181.725H159.267ZM161.317 181.725H161.617V181.425H161.317V181.725ZM161.317 189.975V190.275H161.617V189.975H161.317ZM159.267 189.975H158.967V190.275H159.267V189.975ZM150.092 181V180.7H149.792V181H150.092ZM170.517 181H170.817V180.7H170.517V181ZM170.517 182.725V183.025H170.817V182.725H170.517ZM150.092 182.725H149.792V183.025H150.092V182.725ZM159.242 171.225V170.925H158.942V171.225H159.242ZM161.067 171.225H161.367V170.925H161.067V171.225ZM152.092 179.3L151.817 179.421L151.91 179.631L152.137 179.597L152.092 179.3ZM151.367 177.65L151.327 177.353L150.932 177.406L151.092 177.771L151.367 177.65ZM159.517 171.225V170.925H159.217V171.225H159.517ZM161.317 171.225H161.617V170.925H161.317V171.225ZM169.192 177.65L169.465 177.774L169.632 177.407L169.232 177.353L169.192 177.65ZM168.442 179.3L168.398 179.597L168.621 179.63L168.715 179.424L168.442 179.3ZM152.067 170.125V169.825H151.767V170.125H152.067ZM168.542 170.125H168.842V169.825H168.542V170.125ZM168.542 171.825V172.125H168.842V171.825H168.542ZM152.067 171.825H151.767V172.125H152.067V171.825ZM159.267 167.35V167.05H158.967V167.35H159.267ZM161.317 167.35H161.617V167.05H161.317V167.35ZM161.317 170.725V171.025H161.617V170.725H161.317ZM159.267 170.725H158.967V171.025H159.267V170.725ZM159.267 182.025H161.317V181.425H159.267V182.025ZM161.017 181.725V189.975H161.617V181.725H161.017ZM161.317 189.675H159.267V190.275H161.317V189.675ZM159.567 189.975V181.725H158.967V189.975H159.567ZM150.092 181.3H170.517V180.7H150.092V181.3ZM170.217 181V182.725H170.817V181H170.217ZM170.517 182.425H150.092V183.025H170.517V182.425ZM150.392 182.725V181H149.792V182.725H150.392ZM159.242 171.525H161.067V170.925H159.242V171.525ZM160.767 171.225V171.8H161.367V171.225H160.767ZM160.767 171.8C160.767 173.632 159.776 175.246 158.175 176.505C156.573 177.764 154.38 178.647 152.047 179.003L152.137 179.597C154.553 179.228 156.848 178.311 158.546 176.976C160.245 175.641 161.367 173.868 161.367 171.8H160.767ZM152.366 179.179L151.641 177.529L151.092 177.771L151.817 179.421L152.366 179.179ZM151.407 177.947C153.487 177.667 155.503 176.894 157.007 175.822C158.502 174.756 159.542 173.352 159.542 171.8H158.942C158.942 173.073 158.082 174.319 156.658 175.334C155.243 176.343 153.321 177.083 151.327 177.353L151.407 177.947ZM159.542 171.8V171.225H158.942V171.8H159.542ZM159.517 171.525H161.317V170.925H159.517V171.525ZM161.017 171.225V171.8H161.617V171.225H161.017ZM161.017 171.8C161.017 173.341 162.064 174.745 163.561 175.813C165.067 176.888 167.083 177.666 169.151 177.947L169.232 177.353C167.251 177.084 165.329 176.337 163.91 175.325C162.482 174.305 161.617 173.059 161.617 171.8H161.017ZM168.919 177.526L168.169 179.176L168.715 179.424L169.465 177.774L168.919 177.526ZM168.486 179.003C166.167 178.66 163.987 177.765 162.394 176.497C160.801 175.228 159.817 173.607 159.817 171.8H159.217C159.217 173.843 160.332 175.622 162.021 176.966C163.709 178.31 165.991 179.24 168.398 179.597L168.486 179.003ZM159.817 171.8V171.225H159.217V171.8H159.817ZM152.067 170.425H168.542V169.825H152.067V170.425ZM168.242 170.125V171.825H168.842V170.125H168.242ZM168.542 171.525H152.067V172.125H168.542V171.525ZM152.367 171.825V170.125H151.767V171.825H152.367ZM159.267 167.65H161.317V167.05H159.267V167.65ZM161.017 167.35V170.725H161.617V167.35H161.017ZM161.317 170.425H159.267V171.025H161.317V170.425ZM159.567 170.725V167.35H158.967V170.725H159.567ZM188.365 167.325V167.025H188.065V167.325H188.365ZM190.465 167.325H190.765V167.025H190.465V167.325ZM190.465 189.95V190.25H190.765V189.95H190.465ZM188.365 189.95H188.065V190.25H188.365V189.95ZM189.89 176.5V176.2H189.59V176.5H189.89ZM194.065 176.5H194.365V176.2H194.065V176.5ZM194.065 178.225V178.525H194.365V178.225H194.065ZM189.89 178.225H189.59V178.525H189.89V178.225ZM182.59 169.775V169.475H182.29V169.775H182.59ZM184.615 169.775H184.915V169.475H184.615V169.775ZM174.365 185.675L174.121 185.85L174.271 186.058L174.5 185.943L174.365 185.675ZM173.215 184.075L173.079 183.808L172.767 183.966L172.971 184.25L173.215 184.075ZM174.265 169.775V169.475H173.965V169.775H174.265ZM183.665 169.775H183.965V169.475H183.665V169.775ZM183.665 171.475V171.775H183.965V171.475H183.665ZM174.265 171.475H173.965V171.775H174.265V171.475ZM188.365 167.625H190.465V167.025H188.365V167.625ZM190.165 167.325V189.95H190.765V167.325H190.165ZM190.465 189.65H188.365V190.25H190.465V189.65ZM188.665 189.95V167.325H188.065V189.95H188.665ZM189.89 176.8H194.065V176.2H189.89V176.8ZM193.765 176.5V178.225H194.365V176.5H193.765ZM194.065 177.925H189.89V178.525H194.065V177.925ZM190.19 178.225V176.5H189.59V178.225H190.19ZM182.59 170.075H184.615V169.475H182.59V170.075ZM184.315 169.775C184.315 176.089 181.426 181.784 174.23 185.407L174.5 185.943C181.903 182.216 184.915 176.311 184.915 169.775H184.315ZM174.608 185.5L173.458 183.9L172.971 184.25L174.121 185.85L174.608 185.5ZM173.351 184.342C179.686 181.124 182.89 176.205 182.89 170.1H182.29C182.29 175.945 179.244 180.676 173.079 183.808L173.351 184.342ZM182.89 170.1V169.775H182.29V170.1H182.89ZM174.265 170.075H183.665V169.475H174.265V170.075ZM183.365 169.775V171.475H183.965V169.775H183.365ZM183.665 171.175H174.265V171.775H183.665V171.175ZM174.565 171.475V169.775H173.965V171.475H174.565Z" fill="#4B9EFF" mask="url(#path-13-outside-3_53_281)"/>
<rect x="23" y="176.5" width="25" height="6" rx="3" fill="#4B9EFF"/>
<rect x="32.5" y="192" width="25" height="6" rx="3" transform="rotate(-90 32.5 192)" fill="#4B9EFF"/>
</svg>
