<svg width="134" height="132" viewBox="0 0 134 132" fill="none" xmlns="http://www.w3.org/2000/svg">
<path d="M43.4153 33.6812C46.7341 25.3608 56.5582 21.7851 64.4488 26.0256L69.1978 28.5778C72.1504 30.1647 75.5495 30.7168 78.8526 30.146L83.7198 29.305C92.9024 27.7184 101.294 34.8005 101.274 44.1192L101.266 47.7929C101.258 51.3423 102.509 54.7794 104.796 57.4933L107.164 60.3023C113.17 67.4276 111.293 78.247 103.239 82.9341L98.9701 85.4184C96.0729 87.1044 93.8239 89.7122 92.5821 92.8257L90.5847 97.8334C87.2659 106.154 77.4418 109.73 69.5512 105.489L64.8022 102.937C61.8496 101.35 58.4505 100.798 55.1474 101.369L50.2802 102.21C41.0976 103.796 32.7057 96.7141 32.7263 87.3954L32.7344 83.7217C32.7422 80.1723 31.4912 76.7352 29.2038 74.0213L26.8361 71.2123C20.8304 64.087 22.7067 53.2676 30.7608 48.5805L35.0299 46.0962C37.9271 44.4102 40.1761 41.8024 41.4179 38.6889L43.4153 33.6812Z" fill="#4B9EFF"/>
<circle cx="55.6818" cy="58.385" r="10.812" fill="white"/>
<circle cx="50.8165" cy="56.2227" r="5.40602" fill="black"/>
<circle cx="55.6818" cy="58.385" r="10.812" fill="white"/>
<circle cx="52.4384" cy="57.3037" r="5.40602" fill="black"/>
<circle cx="49.7354" cy="54.6007" r="1.0812" fill="white"/>
<circle cx="77.3251" cy="64.3682" r="10.812" fill="white"/>
<circle cx="80.1043" cy="66.9028" r="5.40602" fill="black"/>
<circle cx="83.7099" cy="67.204" r="1.0812" fill="white"/>
</svg>
